<svg width="20" height="20" viewBox="0 0 20 20" fill="none" xmlns="http://www.w3.org/2000/svg">
    <path fill-rule="evenodd" clip-rule="evenodd"
        d="M12.918 1.66602C11.7674 1.66602 10.8346 2.59876 10.8346 3.74935V16.2493C10.8346 17.3999 11.7674 18.3327 12.918 18.3327H16.2513C17.4019 18.3327 18.3346 17.3999 18.3346 16.2493V3.74935C18.3346 2.59876 17.4019 1.66602 16.2513 1.66602H12.918ZM12.5013 3.74935C12.5013 3.51923 12.6878 3.33268 12.918 3.33268H16.2513C16.4814 3.33268 16.668 3.51923 16.668 3.74935V16.2493C16.668 16.4795 16.4814 16.666 16.2513 16.666H12.918C12.6879 16.666 12.5013 16.4795 12.5013 16.2493V3.74935Z"
        fill="#98A2B3" />
    <path fill-rule="evenodd" clip-rule="evenodd"
        d="M3.7513 9.16602C2.60071 9.16602 1.66797 10.0988 1.66797 11.2493V16.2493C1.66797 17.3999 2.60071 18.3327 3.7513 18.3327H7.08464C8.23523 18.3327 9.16797 17.3999 9.16797 16.2493V11.2493C9.16797 10.0988 8.23523 9.16602 7.08464 9.16602H3.7513ZM3.33464 11.2493C3.33464 11.0192 3.52118 10.8327 3.7513 10.8327H7.08464C7.31475 10.8327 7.5013 11.0192 7.5013 11.2493V16.2493C7.5013 16.4795 7.31475 16.666 7.08464 16.666H3.7513C3.52118 16.666 3.33464 16.4795 3.33464 16.2493V11.2493Z"
        fill="#98A2B3" />
</svg>