<svg xmlns="http://www.w3.org/2000/svg" width="230" height="44" fill="none" viewBox="0 0 230 44">
    <g clip-path="url(#a)">
        <path fill="#fff"
            d="M12.145 29.636V9.78h12.661v2.893h-9.344v5.531h6.054v2.837h-6.054v5.7h9.455v2.894H12.144Zm13.922 0v-14.21h3.124v2.127c1.069-1.57 2.488-2.354 4.257-2.354.959 0 1.797.217 2.516.652.719.416 1.281 1.012 1.687 1.787.423.756.635 1.636.635 2.638v9.36h-3.151v-8.453c0-1.04-.277-1.862-.83-2.467-.553-.624-1.29-.936-2.211-.936-.59 0-1.134.132-1.631.397a3.574 3.574 0 0 0-1.272 1.163v10.296h-3.124Zm19.977 6.211a11.64 11.64 0 0 1-2.903-.368 11.909 11.909 0 0 1-2.626-1.021l1.078-2.355c.811.398 1.567.69 2.267.88.7.208 1.392.312 2.073.312 2.23 0 3.346-1.05 3.346-3.149v-2.24a5.46 5.46 0 0 1-1.797 1.39 5.12 5.12 0 0 1-2.212.482 5.412 5.412 0 0 1-3.124-.965c-.922-.662-1.659-1.54-2.212-2.638-.534-1.096-.801-2.316-.801-3.659 0-1.342.285-2.552.857-3.63.57-1.097 1.336-1.967 2.294-2.61a5.584 5.584 0 0 1 3.18-.964c.755 0 1.455.151 2.1.454a5.128 5.128 0 0 1 1.742 1.305v-1.645h3.069v14.72c0 1.834-.544 3.243-1.631 4.227-1.07.983-2.636 1.474-4.7 1.474Zm.11-8.707c.646 0 1.226-.133 1.742-.397a4.315 4.315 0 0 0 1.383-1.078v-6.268a3.922 3.922 0 0 0-1.41-1.05 3.809 3.809 0 0 0-1.714-.397c-.775 0-1.456.198-2.046.596-.59.378-1.05.917-1.383 1.616-.331.681-.497 1.475-.497 2.383 0 .87.166 1.654.498 2.354.331.7.792 1.248 1.382 1.645.59.397 1.271.596 2.046.596Zm12.54 2.751c-.976 0-1.842-.18-2.598-.539-.755-.378-1.345-.889-1.77-1.532-.405-.642-.607-1.39-.607-2.24 0-.87.212-1.617.636-2.24.442-.625 1.06-1.107 1.852-1.448.81-.34 1.77-.51 2.875-.51.663 0 1.308.076 1.935.227.627.132 1.253.36 1.88.68v-1.418c0-1.002-.267-1.749-.802-2.24-.534-.51-1.354-.766-2.46-.766a7.25 7.25 0 0 0-1.935.284c-.664.189-1.41.5-2.24.935l-1.188-2.325c1.087-.549 2.11-.946 3.068-1.192a11.86 11.86 0 0 1 2.903-.368c1.825 0 3.234.463 4.23 1.39 1.013.926 1.52 2.24 1.52 3.942v9.105h-3.096v-1.503c-.627.605-1.28 1.049-1.963 1.333a5.773 5.773 0 0 1-2.24.425Zm-2.045-4.396c0 .662.258 1.191.774 1.588.535.378 1.244.567 2.129.567.645 0 1.244-.104 1.797-.312a5.087 5.087 0 0 0 1.548-.936v-2.24a6.56 6.56 0 0 0-1.548-.54 8.249 8.249 0 0 0-1.714-.17c-.922 0-1.65.19-2.184.568-.535.36-.802.85-.802 1.475Zm17.572 10.352c-.977 0-1.945-.123-2.903-.368a11.91 11.91 0 0 1-2.626-1.021l1.078-2.355c.81.398 1.567.69 2.267.88.7.208 1.391.312 2.073.312 2.23 0 3.345-1.05 3.345-3.149v-2.24a5.46 5.46 0 0 1-1.797 1.39 5.12 5.12 0 0 1-2.211.482 5.412 5.412 0 0 1-3.124-.965c-.922-.662-1.659-1.54-2.212-2.638-.534-1.096-.802-2.316-.802-3.659 0-1.342.286-2.552.858-3.63.57-1.097 1.336-1.967 2.294-2.61a5.585 5.585 0 0 1 3.18-.964c.755 0 1.455.151 2.1.454a5.128 5.128 0 0 1 1.742 1.305v-1.645h3.069v14.72c0 1.834-.544 3.243-1.631 4.227-1.07.983-2.636 1.474-4.7 1.474Zm.11-8.707a3.77 3.77 0 0 0 1.742-.397 4.316 4.316 0 0 0 1.382-1.078v-6.268a3.923 3.923 0 0 0-1.41-1.05 3.81 3.81 0 0 0-1.714-.397c-.774 0-1.456.198-2.045.596-.59.378-1.05.917-1.383 1.616-.331.681-.497 1.475-.497 2.383 0 .87.166 1.654.497 2.354.332.7.793 1.248 1.383 1.645s1.271.596 2.045.596Zm14.504 2.78c-1.346 0-2.562-.322-3.65-.965a7.413 7.413 0 0 1-2.598-2.666c-.627-1.116-.94-2.364-.94-3.744 0-1.4.295-2.647.884-3.744a7.035 7.035 0 0 1 2.461-2.61c1.05-.661 2.22-.992 3.511-.992 1.345 0 2.534.321 3.566.964a6.753 6.753 0 0 1 2.46 2.61c.609 1.096.913 2.354.913 3.772v.766H84.716a4.85 4.85 0 0 0 .718 2.07c.406.586.913 1.05 1.52 1.39.628.34 1.31.51 2.047.51.718 0 1.382-.141 1.99-.425a4.1 4.1 0 0 0 1.548-1.191l2.074 1.9c-.793.813-1.668 1.409-2.627 1.787-.958.378-2.009.567-3.151.567Zm-4.092-8.623h7.713c-.11-.7-.35-1.305-.719-1.815a3.539 3.539 0 0 0-1.354-1.22c-.535-.303-1.143-.454-1.825-.454-.645 0-1.235.142-1.77.426a3.67 3.67 0 0 0-1.298 1.22c-.35.51-.6 1.124-.747 1.843Z" />
        <path fill="#2A5ADA"
            d="M95.68 29.636v-14.21h2.681v1.22c.332-.492.691-.851 1.078-1.078a2.73 2.73 0 0 1 1.355-.34c.59 0 1.115.151 1.576.454.479.283.848.7 1.106 1.248.368-.587.792-1.012 1.271-1.277a3.292 3.292 0 0 1 1.659-.425c.903 0 1.64.34 2.212 1.02.59.681.884 1.57.884 2.667v10.721h-2.654v-9.87c0-.68-.138-1.21-.414-1.588-.277-.398-.673-.596-1.189-.596-.258 0-.498.057-.719.17-.221.114-.433.312-.636.596.037.113.056.227.056.34v10.949h-2.654v-9.871c0-.68-.148-1.21-.443-1.588-.276-.398-.672-.596-1.188-.596-.222 0-.443.047-.664.142-.221.094-.433.274-.636.539v11.373H95.68Zm20.889-16.99a2.159 2.159 0 0 1-1.604-.68 2.291 2.291 0 0 1-.635-1.617c0-.624.212-1.153.635-1.588.443-.454.977-.68 1.604-.68a2.04 2.04 0 0 1 1.548.68c.442.435.664.964.664 1.588a2.24 2.24 0 0 1-.664 1.617 2.04 2.04 0 0 1-1.548.68Zm3.539 17.274c-1.678 0-2.949-.407-3.816-1.22-.866-.813-1.299-2.013-1.299-3.602V17.98h-4.976v-2.553h8.1v9.332c0 .85.194 1.465.581 1.844.405.378 1.013.567 1.824.567.461 0 .913-.047 1.355-.142a9.649 9.649 0 0 0 1.465-.454v2.695c-.424.17-.931.321-1.52.453a7.825 7.825 0 0 1-1.714.2Zm3.389-.284 5.391-7.26-5.225-6.95h3.677l3.456 4.765 3.511-4.765h3.511l-5.253 6.978 5.418 7.232h-3.676l-3.65-5.02-3.649 5.02h-3.511Z" />
    </g>
    <defs>
        <clipPath id="a">
            <path fill="#fff" d="M12 8h126v28H12z" />
        </clipPath>
    </defs>
</svg>