<svg width="20" height="20" viewBox="0 0 20 20" fill="none" xmlns="http://www.w3.org/2000/svg">
    <path fill-rule="evenodd" clip-rule="evenodd"
        d="M10.834 2.49935C10.834 2.03911 10.4609 1.66602 10.0006 1.66602C9.54038 1.66602 9.16728 2.03911 9.16728 2.49935V2.97507C6.34052 3.37929 4.16729 5.80954 4.16729 8.74844L4.16728 12.0821C4.16728 12.0821 4.16729 12.082 4.16728 12.0821C4.1672 12.0837 4.16664 12.0949 4.16302 12.1167C4.15869 12.143 4.15098 12.1787 4.13827 12.2246C4.1125 12.3177 4.07148 12.4336 4.01418 12.5706C3.89929 12.8453 3.73732 13.1616 3.55819 13.4807C3.2214 14.0806 3.05164 14.7955 3.17909 15.4754C3.31349 16.1923 3.77499 16.8176 4.56317 17.1177C5.26726 17.3858 6.20448 17.6309 7.44217 17.7769C7.47162 17.8024 7.50644 17.8316 7.54645 17.8636C7.67169 17.9638 7.85062 18.0937 8.07675 18.2229C8.52556 18.4793 9.18914 18.7493 10.0006 18.7493C10.8121 18.7493 11.4757 18.4793 11.9245 18.2229C12.1506 18.0937 12.3295 17.9638 12.4548 17.8636C12.4948 17.8316 12.5296 17.8024 12.5591 17.7769C13.7968 17.6309 14.734 17.3858 15.4381 17.1177C16.2262 16.8176 16.6877 16.1923 16.8221 15.4754C16.9496 14.7955 16.7798 14.0806 16.443 13.4807C16.2639 13.1616 16.1019 12.8453 15.9871 12.5706C15.9298 12.4336 15.8887 12.3177 15.863 12.2246C15.8503 12.1787 15.8426 12.143 15.8382 12.1167C15.8346 12.0949 15.834 12.0839 15.834 12.0823C15.834 12.0822 15.834 12.0823 15.834 12.0823L15.834 12.0753V8.74883C15.834 5.81001 13.6608 3.37936 10.834 2.97508V2.49935ZM5.83395 8.74844C5.83395 6.44745 7.69923 4.58268 10.0006 4.58268C12.3019 4.58268 14.1673 6.44776 14.1673 8.74883V12.0827C14.1673 12.4685 14.3118 12.8846 14.4494 13.2136C14.5989 13.5711 14.7948 13.9494 14.9897 14.2965C15.1792 14.634 15.2244 14.953 15.184 15.1683C15.1506 15.3465 15.0615 15.4777 14.845 15.5601C13.9493 15.9012 12.4372 16.2493 10.0006 16.2493C7.56401 16.2493 6.05196 15.9012 5.15624 15.5601C4.93969 15.4777 4.85063 15.3465 4.81722 15.1683C4.77686 14.953 4.82205 14.634 5.01153 14.2965C5.2064 13.9494 5.40231 13.5711 5.5518 13.2136C5.68941 12.8846 5.83395 12.4685 5.83395 12.0827V8.74844Z"
        fill="#98A2B3" />
</svg>