<svg width="20" height="20" viewBox="0 0 20 20" fill="none" xmlns="http://www.w3.org/2000/svg">
    <path fill-rule="evenodd" clip-rule="evenodd"
        d="M9.99876 4.40961L4.35801 6.66591L6.20135 7.40325L6.20533 7.40484L9.99876 8.92221L13.7922 7.40484L13.7962 7.40324L15.6395 6.66591L9.99876 4.40961ZM2.45463 8.05863L3.13951 8.33258L2.45463 8.60653C1.19741 9.10942 1.19742 10.8891 2.45463 11.392L3.13951 11.6659L2.45463 11.9399C1.19741 12.4428 1.19742 14.2224 2.45463 14.7253L9.44168 17.5201C9.79929 17.6632 10.1982 17.6632 10.5558 17.5201L17.5429 14.7253C18.8001 14.2224 18.8001 12.4427 17.5429 11.9399L16.858 11.6659L17.5429 11.392C18.8001 10.8891 18.8001 9.10941 17.5429 8.60653L16.858 8.33258L17.5429 8.05863C18.8001 7.55574 18.8001 5.77608 17.5429 5.2732L10.5558 2.47838C10.1982 2.33533 9.79929 2.33533 9.44168 2.47838L2.45463 5.2732C1.19741 5.77608 1.19742 7.55574 2.45463 8.05863ZM13.7929 10.7379C13.7938 10.7375 13.7946 10.7372 13.7954 10.7369L15.6395 9.99924L14.1654 9.40961L10.5558 10.8534C10.1982 10.9965 9.79929 10.9965 9.44168 10.8534L5.8321 9.40961L4.35801 9.99924L6.20207 10.7369C6.20292 10.7372 6.20377 10.7375 6.20462 10.7379L9.99876 12.2555L13.7929 10.7379ZM5.8321 12.7429L9.44168 14.1868C9.79929 14.3298 10.1982 14.3298 10.5558 14.1868L14.1654 12.7429L15.6395 13.3326L9.99876 15.5889L4.35801 13.3326L5.8321 12.7429Z"
        fill="#98A2B3" />
</svg>