<svg width="20" height="20" viewBox="0 0 20 20" fill="none" xmlns="http://www.w3.org/2000/svg">
    <path fill-rule="evenodd" clip-rule="evenodd"
        d="M10 0.833984C10.4602 0.833984 10.8333 1.20708 10.8333 1.66732V5.99555C12.0258 4.92626 13.895 4.16732 16.6667 4.16732C16.9328 4.16732 17.1829 4.2944 17.3398 4.50933C17.4966 4.72426 17.5415 5.00119 17.4604 5.25463C16.8429 7.18409 15.4368 8.41669 14.004 9.16732H14.8415C15.8769 9.16732 16.6617 10.1014 16.4832 11.1213L15.3166 17.788C15.177 18.5855 14.4845 19.1673 13.6748 19.1673H6.32517C5.51554 19.1673 4.82302 18.5855 4.68345 17.788L3.51679 11.1213C3.33831 10.1014 4.12314 9.16732 5.1585 9.16732H9.16667V7.69501C8.24666 7.55618 7.10528 7.24507 6.01506 6.67725C4.57569 5.92758 3.15981 4.69262 2.53965 2.75463C2.45855 2.50119 2.50336 2.22426 2.66025 2.00933C2.81714 1.7944 3.06724 1.66732 3.33334 1.66732C6.10502 1.66732 7.97425 2.42626 9.16667 3.49555V1.66732C9.16667 1.20708 9.53977 0.833984 10 0.833984ZM6.78495 5.19906C7.51652 5.58008 8.28189 5.82234 8.94586 5.96205C8.78256 5.57816 8.51516 5.16273 8.1005 4.77878C7.44876 4.17533 6.38669 3.60869 4.69207 3.40943C5.22112 4.19033 5.96606 4.77255 6.78495 5.19906ZM13.2151 7.69906C12.4835 8.08008 11.7181 8.32234 11.0542 8.46205C11.2175 8.07816 11.4849 7.66273 11.8995 7.27878C12.5512 6.67533 13.6133 6.10869 15.3079 5.90943C14.7789 6.69033 14.0339 7.27255 13.2151 7.69906ZM6.32517 17.5006L5.1585 10.834L14.8415 10.834L13.6748 17.5006H6.32517Z"
        fill="#98A2B3" />
</svg>