<svg xmlns="http://www.w3.org/2000/svg" width="15" height="15" fill="none" viewBox="0 0 15 15">
    <path fill="#1671D9" fill-rule="evenodd"
        d="M12.728 1.666c.31-.01.574.222.601.53.08.865-.007 1.578-.254 2.152a2.549 2.549 0 0 1-1.14 1.257c-.618.339-1.358.44-2.052.456.19.668.08 1.278-.284 1.743-.482.615-1.36.864-2.07.509-.707-.354-1.21-.348-1.59-.205-.4.151-.768.497-1.107 1.026-.595.928-.971 2.2-1.292 3.282-.051.173-.1.342-.15.503a.583.583 0 0 1-1.136-.252c.254-1.775 1.07-4.436 2.709-6.698C6.612 3.692 9.12 1.79 12.728 1.666ZM5.692 6.96c.71-.215 1.5-.12 2.36.31.164.082.453.038.628-.185.129-.165.28-.572-.208-1.304a.583.583 0 0 1 .516-.906c.94.05 1.798.03 2.386-.293.27-.149.486-.364.63-.695.105-.246.179-.576.186-1.017-2.852.278-4.88 1.847-6.283 3.783a12.09 12.09 0 0 0-.215.307Z"
        clip-rule="evenodd" />
    <path fill="#1671D9"
        d="M2.605 4.378a.94.94 0 0 0-.594-.594.313.313 0 0 1 0-.594.94.94 0 0 0 .594-.595.313.313 0 0 1 .595 0c.093.28.314.501.594.595a.313.313 0 0 1 0 .594.94.94 0 0 0-.594.594.313.313 0 0 1-.595 0Zm5.239 6.989a.942.942 0 0 1 .595.595.313.313 0 0 0 .594 0 .94.94 0 0 1 .595-.595.313.313 0 0 0 0-.594.94.94 0 0 1-.595-.595.313.313 0 0 0-.594 0 .94.94 0 0 1-.595.595.313.313 0 0 0 0 .594Z" />
</svg>