<svg xmlns="http://www.w3.org/2000/svg" width="20" height="20" fill="none" viewBox="0 0 20 20">
    <path fill="#667185" fill-rule="evenodd"
        d="M4.402 1.666a2.734 2.734 0 0 0-2.24 4.302L7.2 13.165c.196.28.301.614.301.956v1.842c0 1.708 1.798 2.82 3.325 2.056a3.03 3.03 0 0 0 1.675-2.71V14.12c0-.342.106-.676.302-.956l5.037-7.197a2.734 2.734 0 0 0-2.24-4.302H4.402Zm6.433 13.643c0 .516-.292.988-.754 1.219a.63.63 0 0 1-.913-.565v-1.842a3.33 3.33 0 0 0-.603-1.912L3.528 5.012a1.067 1.067 0 0 1 .874-1.68H15.6a1.068 1.068 0 0 1 .875 1.68l-5.038 7.197a3.333 3.333 0 0 0-.602 1.912v1.188Z"
        clip-rule="evenodd" />
</svg>