<svg xmlns="http://www.w3.org/2000/svg" width="12" height="12" fill="none" viewBox="0 0 12 12">
    <g clip-path="url(#a)">
        <path fill="#0D5EBA"
            d="M6 3a.5.5 0 0 1 .5.5V7a.5.5 0 0 1-1 0V3.5A.5.5 0 0 1 6 3Zm0 6a.625.625 0 1 1 0-1.25A.625.625 0 0 1 6 9Z" />
        <path fill="#0D5EBA" fill-rule="evenodd"
            d="M7.003.504a2 2 0 0 0-2.007 0l-1.624.943-1.63.936A2 2 0 0 0 .738 4.121L.742 6v.002L.738 7.88a2 2 0 0 0 1.004 1.738l1.628.936h.002l1.624.943a2 2 0 0 0 2.007 0l1.624-.942.002-.001 1.628-.936a2 2 0 0 0 1.004-1.738l-.004-1.878V6l.004-1.878a2 2 0 0 0-1.004-1.738L8.63 1.448l-.002-.001L7.003.504Zm-1.505.865a1 1 0 0 1 1.003 0l1.626.944h.002l1.63.937a1 1 0 0 1 .502.87L10.257 6l.004 1.88a1 1 0 0 1-.502.87l-1.63.936h-.002l-1.626.944a1 1 0 0 1-1.003 0l-1.626-.943L2.24 8.75a1 1 0 0 1-.502-.869l.004-1.88V6l-.004-1.88a1 1 0 0 1 .502-.869l1.63-.936.002-.001 1.626-.944Z"
            clip-rule="evenodd" />
    </g>
    <defs>
        <clipPath id="a">
            <path fill="#fff" d="M0 0h12v12H0z" />
        </clipPath>
    </defs>
</svg>