<svg xmlns="http://www.w3.org/2000/svg" width="25" height="24" fill="none" viewBox="0 0 25 24">
    <path fill="#F9FAFB"
        d="M17.5 4a1 1 0 1 1 2 0v3.2a1 1 0 0 1-1 1h-3.112a1 1 0 0 1 0-2h.685A6.596 6.596 0 0 0 12.277 5C8.561 5 5.5 8.107 5.5 12a1 1 0 1 1-2 0c0-4.944 3.903-9 8.777-9A8.6 8.6 0 0 1 17.5 4.766V4Zm-10 16a1 1 0 1 1-2 0v-3.2a1 1 0 0 1 1-1h3.112a1 1 0 0 1 0 2h-.685a6.596 6.596 0 0 0 3.796 1.2c3.716 0 6.777-3.107 6.777-7a1 1 0 1 1 2 0c0 4.944-3.903 9-8.777 9A8.596 8.596 0 0 1 7.5 19.234V20Z" />
</svg>