<svg xmlns="http://www.w3.org/2000/svg" width="1352" height="300" fill="none" viewBox="0 0 1352 300">
    <g clip-path="url(#a)">
        <rect width="1352" height="300" fill="url(#b)" rx="20" />
        <path fill="url(#c)" fill-rule="evenodd"
            d="m-188.384 432.157 15.698-21.673c15.067-20.287 46.461-63.632 94.084-54.696 48.252 7.55 112.732 67.38 158.527 67.508 45.163 1.513 71.992-55.616 97.84-112.419 26.829-57.129 52.676-113.933 95.381-119.842 43.687-6.234 102.899 37.692 149.045 38.88 45.164 1.513 76.558-41.832 121.722-40.318 46.146 1.188 105.358 45.113 153.961 53.724 47.271 7.875 82.953-19.24 128.747-19.112 45.164 1.513 100.792 31.329 131.556-10.63 31.395-43.345 38.277-157.405 67.563-207.112 27.96-50.442 79.02-34.41 103.22-27.128l25.53 8.016 100.79 304.308-20.61 6.829-101.11 33.49-122.7 40.643-121.724 40.318-121.722 40.319-122.704 40.643-121.723 40.318-122.703 40.644-121.723 40.318-121.722 40.318-122.704 40.644-101.108 33.49-20.614 6.828-100.797-304.308Z"
            clip-rule="evenodd" />
        <g filter="url(#d)">
            <path fill="#FFD2D2" d="M-605.231-259.675 871.377 1216.11l-35.811 34.98L-605.231-259.675Z" />
        </g>
        <g filter="url(#e)">
            <path fill="#FFD2D2" d="m82.746-77 538.362 425.886-32.47 38.103L82.746-77.001Z" />
        </g>
        <path fill="#04103E"
            d="M105.444 110.624h-8.528c-.312-1.716-.884-3.952-1.456-5.46l-2.08-5.668H76.74l-2.08 5.668c-.936 2.496-1.144 3.276-1.56 5.46h-8.528c.78-1.404 1.82-3.744 2.756-6.136l11.44-30.004c.988-2.6 1.404-3.9 1.664-5.252h9.048c.26 1.248.572 2.08 1.768 5.252l11.544 30.004c1.3 3.328 1.924 4.784 2.652 6.136ZM91.508 93.516l-5.564-15.392c-.208-.572-.364-1.196-.936-2.912-.832 2.444-.832 2.444-.988 2.912l-5.408 15.392h12.896Zm23.64 17.108h-7.488c.312-2.236.416-3.848.416-6.76V87.536c0-2.86-.104-4.628-.416-6.76h7.072v2.756c0 .78 0 .936-.104 2.236 3.172-4.056 5.928-5.512 10.608-5.512 4.004 0 6.968 1.3 8.84 3.848 1.248 1.716 1.768 3.796 1.768 7.28v12.48c0 2.86.104 4.836.416 6.76h-7.54c.26-2.34.364-4.108.364-6.76V92.32c0-2.184-.26-3.588-.884-4.576-.832-1.352-2.392-2.132-4.368-2.132-3.744 0-6.812 2.6-9.1 7.748v10.504c0 2.548.104 4.524.416 6.76Zm45.7 0v-3.38c-2.08 1.976-3.38 2.704-5.512 3.276-1.508.416-3.172.624-4.836.624-6.344 0-10.192-3.276-10.192-8.736 0-3.64 2.288-6.916 5.876-8.424 3.38-1.404 7.228-1.924 14.664-2.08v-2.652c0-3.016-2.028-4.576-5.98-4.576-2.08 0-4.212.572-5.408 1.508-.988.728-1.456 1.456-2.08 3.328l-6.656-1.196c1.196-3.016 2.132-4.368 4.108-5.772 2.548-1.872 5.46-2.652 9.932-2.652 4.992 0 8.008.884 10.244 3.068 1.768 1.664 2.444 3.64 2.444 7.176v13.988c0 2.756.104 4.16.416 6.5h-7.02Zm0-11.596v-2.6c-9.932.208-13.832 1.924-13.832 5.98 0 2.444 1.82 3.952 4.732 3.952 2.756 0 5.46-1.04 7.228-2.756 1.248-1.248 1.872-2.756 1.872-4.576Zm11.637-29.796h7.54c-.26 2.028-.364 3.692-.364 6.812v27.82c0 2.756.104 4.472.364 6.76h-7.54c.26-2.236.364-3.744.364-6.76V75.992c0-3.12-.104-4.784-.364-6.76Zm22.49 39.312-9.724-21.32c-2.288-5.148-2.34-5.304-2.964-6.448h7.904c.26 1.508 1.04 3.952 1.976 6.084l6.344 14.768 5.772-14.716c1.248-3.172 1.664-4.472 1.976-6.136h7.748c-.312.676-1.248 2.808-2.808 6.448l-11.856 27.82c-1.664 3.952-4.732 5.772-9.568 5.772-1.56 0-3.068-.156-5.46-.624l1.196-5.928c1.456.624 2.444.884 3.64.884 1.82 0 3.328-.988 4.056-2.6l1.768-4.004Zm24.644-35.776h7.436a57.514 57.514 0 0 0-.364 6.396v1.612h2.184c2.444 0 3.588-.052 5.252-.312V86.6c-1.716-.26-2.704-.312-5.096-.312h-2.34v16.12c0 2.548.936 3.484 3.432 3.484 1.352 0 2.184-.26 3.796-1.144l.936 5.512c-2.236.832-3.796 1.092-6.5 1.092-5.98 0-8.372-2.132-8.372-7.592V86.288h-1.976c-1.924 0-2.912.052-4.628.312v-6.136c1.508.26 2.496.312 4.68.312h1.924v-1.612c0-2.236-.156-4.524-.364-6.396Zm17.503-3.536h7.644v6.604h-7.644v-6.604Zm0 11.544h7.592c-.26 1.924-.364 3.64-.364 6.812v16.224c0 2.86.104 4.628.364 6.812h-7.592c.312-2.34.416-4.16.416-6.76V87.536c0-2.86-.104-4.628-.416-6.76Zm39.649 8.476-6.344 1.508c-.572-1.612-.936-2.34-1.612-3.172-1.248-1.56-3.068-2.392-5.356-2.392-5.096 0-8.268 4.004-8.268 10.452 0 6.5 3.224 10.504 8.476 10.504 2.6 0 4.68-1.04 5.98-2.912.468-.728.728-1.3 1.04-2.6l6.448 1.3c-.728 2.08-1.248 3.172-2.184 4.42-2.496 3.432-6.5 5.252-11.44 5.252-9.152 0-15.08-6.188-15.08-15.808 0-4.888 1.56-9.1 4.42-12.012 2.548-2.6 6.188-3.952 10.452-3.952 5.096 0 9.152 1.976 11.648 5.616.676 1.04 1.092 1.872 1.82 3.796Zm2.548 12.896 7.124-.884c.884 3.536 2.808 4.94 6.864 4.94 3.848 0 6.24-1.508 6.24-3.952a3.18 3.18 0 0 0-1.352-2.6c-.988-.676-1.3-.728-5.46-1.664-4.108-.884-5.72-1.404-7.488-2.236-2.964-1.404-4.576-3.9-4.576-6.916 0-1.82.572-3.536 1.612-4.836 2.132-2.704 5.668-4.056 10.4-4.056 4.264 0 7.644 1.04 9.776 3.016 1.352 1.3 2.08 2.6 2.808 5.148l-6.864.884c-.572-2.86-2.34-4.108-5.72-4.108-3.224 0-5.408 1.456-5.408 3.64 0 .988.572 1.872 1.612 2.444 1.144.572 2.236.884 5.2 1.56 5.304 1.144 7.436 1.872 9.152 3.172 2.028 1.456 3.016 3.588 3.016 6.448 0 2.132-.988 4.42-2.548 5.876-2.392 2.236-6.032 3.38-10.764 3.38-5.356 0-9.36-1.612-11.596-4.628-.936-1.248-1.404-2.288-2.028-4.628Zm-183.703 62.54 7.436 1.3c-.988 3.744-1.924 5.772-3.484 7.8-2.964 3.64-7.956 5.668-14.196 5.668-5.668 0-10.192-1.716-13.364-4.992-3.64-3.796-5.668-9.672-5.668-16.328 0-6.864 2.184-12.896 6.084-16.796 3.12-3.172 7.8-4.94 13-4.94 4.056 0 7.124.78 9.984 2.496 2.34 1.456 4.212 3.38 5.512 5.668.624 1.092.988 2.028 1.612 4.004l-7.228 1.664c-.728-2.288-1.196-3.276-2.236-4.472-1.768-2.132-4.368-3.224-7.592-3.224-7.384 0-11.856 5.772-11.856 15.34 0 9.516 4.576 15.444 11.856 15.444 3.64 0 6.76-1.404 8.424-3.848.884-1.3 1.3-2.392 1.716-4.784Zm25.582 14.924c-9.516 0-15.548-6.136-15.548-15.86 0-9.672 6.032-15.86 15.496-15.86 9.412 0 15.392 6.136 15.392 15.756 0 9.62-6.084 15.964-15.34 15.964Zm-.052-26.312c-5.46 0-8.788 3.952-8.788 10.452 0 6.396 3.328 10.348 8.736 10.348 5.408 0 8.736-3.9 8.736-10.244 0-6.708-3.172-10.556-8.684-10.556Zm26.36 25.324h-7.332c.26-2.236.364-3.952.364-6.76v-16.328c0-3.276-.104-4.784-.364-6.76h6.968v2.652c0 .312 0 1.092-.052 1.924 1.508-3.172 5.356-5.2 9.672-5.2 2.808 0 5.096.78 6.708 2.34.936.832 1.352 1.508 1.976 3.12 1.768-2.34 2.756-3.276 4.368-4.108 1.716-.936 3.484-1.352 5.824-1.352 3.328 0 6.032 1.04 7.8 2.964 1.716 1.872 2.444 4.212 2.444 7.904v12.844c0 2.912.104 4.628.416 6.76h-7.592c.312-2.132.416-3.692.416-6.76v-11.648c0-4.576-1.612-6.656-5.096-6.656-1.716 0-3.016.468-4.264 1.56-1.82 1.56-2.652 3.224-3.276 6.448v10.296c0 2.86.104 4.628.364 6.76h-7.488c.312-2.184.416-3.796.416-6.76v-11.648c0-4.368-1.664-6.552-5.044-6.552-2.184 0-3.952.884-5.356 2.704-1.144 1.508-1.664 2.704-2.236 5.2v10.296c0 2.808.104 4.368.364 6.76Zm43.616-41.392h7.644v6.604h-7.644v-6.604Zm0 11.544h7.592c-.26 1.924-.364 3.64-.364 6.812v16.224c0 2.86.104 4.628.364 6.812h-7.592c.312-2.34.416-4.16.416-6.76v-16.328c0-2.86-.104-4.628-.416-6.76Zm20.045 29.848h-7.488c.312-2.236.416-3.848.416-6.76v-16.328c0-2.86-.104-4.628-.416-6.76h7.072v2.756c0 .78 0 .936-.104 2.236 3.172-4.056 5.928-5.512 10.608-5.512 4.004 0 6.968 1.3 8.84 3.848 1.248 1.716 1.768 3.796 1.768 7.28v12.48c0 2.86.104 4.836.416 6.76h-7.54c.26-2.34.364-4.108.364-6.76V160.32c0-2.184-.26-3.588-.884-4.576-.832-1.352-2.392-2.132-4.368-2.132-3.744 0-6.812 2.6-9.1 7.748v10.504c0 2.548.104 4.524.416 6.76Zm25.317 4.784 5.2-3.588c2.028 2.808 4.316 3.952 8.06 3.952 4.004 0 7.072-1.404 8.528-3.9.884-1.56 1.248-3.38 1.352-6.916-2.6 3.276-5.668 4.732-10.192 4.732-8.268 0-13.572-5.668-13.572-14.56 0-8.996 5.46-14.82 13.884-14.82 4.628 0 7.696 1.404 9.932 4.576-.104-1.04-.104-1.144-.104-1.716v-2.392h6.968c-.26 2.236-.364 3.692-.364 6.5v17.42c0 6.24-1.352 10.244-4.368 12.792-2.6 2.132-6.916 3.328-12.272 3.328-6.084 0-9.516-1.404-13.052-5.408Zm6.188-20.124c0 3.068.832 5.616 2.392 7.176 1.3 1.404 3.536 2.34 5.512 2.34 2.86 0 5.772-1.664 7.228-4.108.988-1.612 1.456-3.536 1.456-5.928 0-3.328-1.04-5.928-3.12-7.696-1.456-1.196-3.172-1.872-5.044-1.872-5.2 0-8.424 3.9-8.424 10.088Zm43.752 3.224 7.488-.78c.208 2.34.52 3.38 1.456 4.576 1.508 1.976 4.212 3.068 7.592 3.068 5.2 0 8.32-2.34 8.32-6.24 0-2.132-.988-3.9-2.6-4.784-1.56-.832-1.872-.884-9.048-2.548-3.9-.884-5.98-1.716-7.852-3.172-2.652-2.08-4.004-4.94-4.004-8.424 0-7.228 5.824-11.908 14.768-11.908 5.928 0 10.4 1.82 12.948 5.252 1.3 1.716 1.924 3.276 2.548 6.032l-7.436.884c-.312-1.768-.676-2.652-1.56-3.692-1.352-1.612-3.64-2.496-6.5-2.496-4.524 0-7.592 2.288-7.592 5.668 0 2.184 1.144 3.692 3.536 4.732 1.144.468 1.56.572 7.332 1.872 4.108.884 6.604 1.872 8.476 3.172 2.964 2.184 4.316 5.044 4.316 8.944 0 3.692-1.144 6.708-3.276 8.84-2.756 2.652-6.864 3.952-12.428 3.952-4.264 0-8.424-1.04-10.92-2.704-2.08-1.404-3.588-3.38-4.576-5.928-.468-1.196-.676-2.184-.988-4.316Zm50.796 13.104c-9.516 0-15.548-6.136-15.548-15.86 0-9.672 6.032-15.86 15.496-15.86 9.412 0 15.392 6.136 15.392 15.756 0 9.62-6.084 15.964-15.34 15.964Zm-.052-26.312c-5.46 0-8.788 3.952-8.788 10.452 0 6.396 3.328 10.348 8.736 10.348 5.408 0 8.736-3.9 8.736-10.244 0-6.708-3.172-10.556-8.684-10.556Zm33.328 26.312c-9.516 0-15.548-6.136-15.548-15.86 0-9.672 6.032-15.86 15.496-15.86 9.412 0 15.392 6.136 15.392 15.756 0 9.62-6.084 15.964-15.34 15.964Zm-.052-26.312c-5.46 0-8.788 3.952-8.788 10.452 0 6.396 3.328 10.348 8.736 10.348 5.408 0 8.736-3.9 8.736-10.244 0-6.708-3.172-10.556-8.684-10.556Zm26.516 25.324h-7.488c.312-2.236.416-3.848.416-6.76v-16.328c0-2.86-.104-4.628-.416-6.76h7.072v2.756c0 .78 0 .936-.104 2.236 3.172-4.056 5.928-5.512 10.608-5.512 4.004 0 6.968 1.3 8.84 3.848 1.248 1.716 1.768 3.796 1.768 7.28v12.48c0 2.86.104 4.836.416 6.76h-7.54c.26-2.34.364-4.108.364-6.76V160.32c0-2.184-.26-3.588-.884-4.576-.832-1.352-2.392-2.132-4.368-2.132-3.744 0-6.812 2.6-9.1 7.748v10.504c0 2.548.104 4.524.416 6.76Z" />
        <g clip-path="url(#f)">
            <rect width="368" height="332" x="848" y="54" fill="#fff" rx="20" />
            <path stroke="#E4E7EC"
                d="M1199.67 54.293H864.331c-8.858 0-16.038 7.197-16.038 16.074v299.268c0 8.877 7.18 16.073 16.038 16.073h335.339c8.86 0 16.04-7.196 16.04-16.073V70.367c0-8.878-7.18-16.074-16.04-16.074Z" />
            <path fill="#344054"
                d="m870.302 77.86 2.962 4.021c.7.947.828 1.11 1.167 1.485h-2.158c-.175-.35-.467-.842-.735-1.228l-2.321-3.273-1.271 1.274v1.719c0 .69.023 1.017.104 1.508h-1.726c.07-.526.094-.889.094-1.508v-6.29a9.65 9.65 0 0 0-.094-1.507h1.726c-.069.385-.104.841-.104 1.508v2.723l2.974-3.097c.455-.468.676-.749.91-1.134h2.204c-.338.339-.723.713-1.236 1.239l-2.496 2.56Zm10.479 2.537h-5.073c.058.643.163.97.431 1.309.338.42.863.654 1.458.654.572 0 1.062-.21 1.4-.584.14-.164.221-.292.338-.608l1.376.444c-.268.562-.419.784-.711 1.076-.607.596-1.423.9-2.403.9-2.064 0-3.371-1.38-3.371-3.566 0-2.162 1.295-3.577 3.29-3.577 1.364 0 2.437.678 2.904 1.847.221.561.303.982.338 1.777 0 .024 0 .059.023.328Zm-5.038-1.158h3.522c-.082-.514-.222-.83-.513-1.122-.315-.316-.712-.468-1.26-.468-.91 0-1.574.608-1.749 1.59Zm8.184 3.66-2.181-4.794c-.513-1.157-.525-1.192-.665-1.45h1.773c.059.34.234.89.444 1.368l1.423 3.32 1.294-3.308c.28-.713.374-1.005.444-1.38h1.737a87.2 87.2 0 0 0-.629 1.45l-2.66 6.255c-.373.888-1.061 1.297-2.146 1.297-.35 0-.688-.035-1.225-.14l.269-1.333c.326.14.548.199.816.199a.974.974 0 0 0 .91-.585l.396-.9Zm11.874.467h-1.353c-.047-.28-.152-.655-.292-1.11l-.898-2.76c-.024-.046-.094-.303-.222-.783-.058.21-.198.69-.233.807l-.898 2.735a10.9 10.9 0 0 0-.303 1.11h-1.354c-.07-.338-.116-.513-.303-1.11l-1.283-4.15a22.483 22.483 0 0 0-.49-1.45h1.727c.023.34.128.936.256 1.392l.642 2.28c.046.151.116.479.21.935a19.3 19.3 0 0 1 .268-.947l.84-2.549c.116-.339.256-.876.291-1.11h1.248c.035.222.187.771.292 1.11l.863 2.654c.035.105.093.327.163.573.035.152.047.163.07.269.024-.094.024-.094.059-.258a18.2 18.2 0 0 1 .14-.62l.653-2.337a7.24 7.24 0 0 0 .256-1.391h1.715c-.152.385-.175.48-.478 1.45l-1.295 4.15c-.175.56-.233.783-.291 1.11Zm5.874.222c-2.135 0-3.488-1.38-3.488-3.566 0-2.174 1.353-3.565 3.476-3.565 2.111 0 3.453 1.38 3.453 3.542 0 2.163-1.365 3.589-3.441 3.589Zm-.012-5.915c-1.225 0-1.971.888-1.971 2.35 0 1.437.746 2.326 1.959 2.326s1.96-.877 1.96-2.303c0-1.508-.712-2.373-1.948-2.373Zm9.272-1.017-.408 1.473c-.49-.14-.735-.187-1.038-.187-.584 0-1.027.187-1.353.573-.292.338-.409.607-.479 1.168v2.163c0 .631.024.97.082 1.52h-1.668c.058-.573.082-.912.082-1.52v-3.67c0-.714-.012-1.04-.082-1.52h1.586v1.099c.42-.83 1.144-1.228 2.193-1.228.28 0 .56.035 1.085.129Zm5.858 6.71v-.573c0-.14 0-.269.011-.42-.606.853-1.224 1.157-2.356 1.157-.816 0-1.434-.188-1.948-.597-.781-.608-1.213-1.671-1.213-2.934 0-2.14 1.225-3.495 3.15-3.495.723 0 1.318.175 1.773.537.209.164.338.305.594.644 0-.14 0-.14-.011-.375-.012-.081-.012-.303-.012-.502v-1.17c0-.7-.023-1.087-.082-1.578h1.645c-.058.562-.082.97-.082 1.567v6.16c0 .69.024 1.064.082 1.579h-1.551Zm-3.989-3.355c0 1.391.746 2.268 1.913 2.268.618 0 1.213-.292 1.562-.772.292-.386.455-.958.455-1.566 0-.573-.221-1.181-.559-1.555-.362-.398-.957-.655-1.517-.655-1.131 0-1.854.889-1.854 2.28Zm17.426 3.355h-1.353c-.046-.28-.151-.655-.291-1.11l-.899-2.76c-.023-.046-.093-.303-.221-.783-.058.21-.198.69-.233.807l-.899 2.735c-.128.398-.256.865-.303 1.11h-1.353c-.07-.338-.116-.513-.303-1.11l-1.283-4.15a23.115 23.115 0 0 0-.49-1.45h1.726c.024.34.129.936.257 1.392l.641 2.28c.047.151.117.479.21.935.024-.117.222-.807.269-.947l.839-2.549a8.32 8.32 0 0 0 .292-1.11h1.248c.035.222.187.771.292 1.11l.863 2.654c.035.105.093.327.163.573.035.152.047.163.07.269.023-.094.023-.094.058-.258.035-.163.117-.537.14-.62l.654-2.337a7.24 7.24 0 0 0 .256-1.391h1.715c-.152.385-.175.48-.478 1.45l-1.295 4.15c-.175.56-.233.783-.292 1.11Zm2.667-9.305h1.714v1.484h-1.714v-1.484Zm0 2.595h1.703c-.059.432-.082.818-.082 1.531v3.648c0 .642.023 1.04.082 1.53h-1.703c.07-.525.093-.934.093-1.519v-3.67c0-.644-.023-1.04-.093-1.52Zm3.714-1.8h1.668a12.85 12.85 0 0 0-.082 1.437v.363h.49c.548 0 .805-.012 1.178-.07v1.38c-.385-.06-.606-.071-1.143-.071h-.525v3.624c0 .573.21.783.77.783.303 0 .49-.058.852-.257l.21 1.24c-.502.186-.852.245-1.458.245-1.342 0-1.878-.48-1.878-1.707v-3.928h-.444c-.431 0-.653.012-1.038.07v-1.38c.339.06.56.07 1.05.07h.432v-.362c0-.502-.035-1.017-.082-1.438Zm4.054-.795h1.657c-.059.444-.082.876-.082 1.543v1.671c0 .152 0 .21-.023.503.723-.912 1.353-1.24 2.414-1.24 1.493 0 2.345.854 2.345 2.362v2.946c0 .643.023 1.087.093 1.52h-1.691c.058-.526.081-.924.081-1.52v-2.595c0-.538-.116-.924-.338-1.157a1.082 1.082 0 0 0-.805-.34c-.874 0-1.551.562-2.076 1.73v2.362c0 .573.023 1.017.093 1.52h-1.679c.07-.503.093-.853.093-1.52v-6.254c0-.701-.023-1.064-.082-1.531Zm11.266 0h1.656c-.058.444-.081.876-.081 1.543v1.671c0 .152 0 .21-.024.503.724-.912 1.354-1.24 2.415-1.24 1.493 0 2.344.854 2.344 2.362v2.946c0 .643.024 1.087.094 1.52h-1.692c.059-.526.082-.924.082-1.52v-2.595c0-.538-.117-.924-.338-1.157a1.082 1.082 0 0 0-.805-.34c-.875 0-1.551.562-2.076 1.73v2.362c0 .573.023 1.017.093 1.52h-1.679c.069-.503.093-.853.093-1.52v-6.254c0-.701-.024-1.064-.082-1.531Zm7.603 0h1.715v1.484h-1.715v-1.484Zm0 2.595h1.703c-.058.432-.081.818-.081 1.531v3.648c0 .642.023 1.04.081 1.53h-1.703a10.5 10.5 0 0 0 .094-1.519v-3.67a9.62 9.62 0 0 0-.094-1.52Zm2.794 7.785 1.166-.806c.455.631.968.888 1.808.888.898 0 1.587-.315 1.913-.876.198-.351.28-.76.303-1.555-.583.736-1.271 1.064-2.286 1.064-1.854 0-3.044-1.275-3.044-3.274 0-2.022 1.225-3.332 3.114-3.332 1.038 0 1.726.316 2.228 1.03-.023-.234-.023-.258-.023-.386v-.538h1.563c-.059.502-.082.83-.082 1.461v3.916c0 1.403-.303 2.303-.98 2.876-.583.48-1.551.748-2.752.748-1.365 0-2.135-.316-2.928-1.216Zm1.388-4.524c0 .69.187 1.263.536 1.614.292.315.794.526 1.237.526a1.95 1.95 0 0 0 1.621-.924c.222-.362.327-.795.327-1.333 0-.748-.234-1.332-.7-1.73a1.763 1.763 0 0 0-1.132-.42c-1.166 0-1.889.876-1.889 2.267Zm6.606-5.856h1.657c-.059.444-.082.876-.082 1.543v1.671c0 .152 0 .21-.023.503.723-.912 1.353-1.24 2.414-1.24 1.493 0 2.345.854 2.345 2.362v2.946c0 .643.023 1.087.093 1.52h-1.691c.058-.526.081-.924.081-1.52v-2.595c0-.538-.116-.924-.338-1.157a1.082 1.082 0 0 0-.805-.34c-.875 0-1.551.562-2.076 1.73v2.362c0 .573.023 1.017.093 1.52h-1.679c.07-.503.093-.853.093-1.52v-6.254c0-.701-.023-1.064-.082-1.531Zm13.879 6.336h-5.074c.058.643.163.97.432 1.309.338.42.863.654 1.458.654.571 0 1.061-.21 1.399-.584.14-.164.222-.292.339-.608l1.376.444c-.268.562-.42.784-.712 1.076-.606.596-1.423.9-2.402.9-2.065 0-3.371-1.38-3.371-3.566 0-2.162 1.294-3.577 3.289-3.577 1.365 0 2.438.678 2.904 1.847.222.561.304.982.339 1.777 0 .024 0 .059.023.328Zm-5.039-1.158h3.523c-.082-.514-.222-.83-.514-1.122-.315-.316-.711-.468-1.259-.468-.91 0-1.575.608-1.75 1.59Zm5.665 2.221 1.598-.198c.198.795.63 1.11 1.54 1.11.863 0 1.4-.339 1.4-.888a.715.715 0 0 0-.304-.585c-.221-.152-.291-.163-1.224-.374-.922-.199-1.284-.315-1.68-.503-.665-.315-1.027-.876-1.027-1.554 0-.41.129-.795.362-1.088.478-.607 1.271-.911 2.333-.911.956 0 1.714.234 2.193.678.303.292.466.584.63 1.157l-1.54.199c-.128-.643-.525-.924-1.283-.924-.723 0-1.213.328-1.213.819 0 .222.128.42.361.549.257.129.502.199 1.167.35 1.19.258 1.668.422 2.053.714.455.327.676.806.676 1.45 0 .479-.221.993-.571 1.32-.537.503-1.353.76-2.415.76-1.201 0-2.099-.362-2.601-1.04-.21-.28-.315-.514-.455-1.04Zm7.754-6.604h1.668c-.046.409-.081.911-.081 1.437v.363h.49c.548 0 .804-.012 1.178-.07v1.38c-.385-.06-.607-.071-1.143-.071h-.525v3.624c0 .573.21.783.77.783.303 0 .489-.058.851-.257l.21 1.24c-.502.186-.851.245-1.458.245-1.341 0-1.878-.48-1.878-1.707v-3.928h-.443c-.432 0-.653.012-1.038.07v-1.38c.338.06.56.07 1.05.07h.431v-.362c0-.502-.035-1.017-.082-1.438Zm9.339 8.51h-1.64c.05-.503.08-.889.08-1.52v-3.67c0-.737-.03-1.076-.08-1.52h1.56v.596c0 .07 0 .245-.01.433.33-.714 1.2-1.17 2.17-1.17.63 0 1.14.176 1.5.526.21.188.3.34.44.702.4-.526.62-.736.98-.924.39-.21.79-.303 1.31-.303.75 0 1.35.233 1.75.666.38.42.55.947.55 1.777v2.887c0 .655.02 1.04.09 1.52h-1.7c.07-.48.09-.83.09-1.52v-2.618c0-1.03-.36-1.497-1.14-1.497-.39 0-.68.106-.96.351-.41.35-.59.725-.73 1.45v2.314c0 .643.02 1.04.08 1.52h-1.68c.07-.491.09-.853.09-1.52v-2.618c0-.982-.37-1.473-1.13-1.473-.49 0-.89.198-1.2.608-.26.338-.37.607-.5 1.168v2.315c0 .631.02.982.08 1.52Zm16.17-2.97h-5.07c.06.644.16.97.43 1.31.34.42.87.654 1.46.654.57 0 1.06-.21 1.4-.584.14-.164.22-.292.34-.608l1.37.444c-.26.562-.42.784-.71 1.076-.6.596-1.42.9-2.4.9-2.06 0-3.37-1.38-3.37-3.566 0-2.162 1.29-3.577 3.29-3.577 1.36 0 2.44.678 2.9 1.847.22.561.31.982.34 1.777 0 .024 0 .059.02.328Zm-5.03-1.157h3.52c-.08-.514-.22-.83-.51-1.122-.32-.316-.72-.468-1.26-.468-.91 0-1.58.608-1.75 1.59Zm7.63 4.127h-1.68c.07-.503.1-.865.1-1.52v-3.67c0-.644-.03-1.04-.1-1.52h1.59v.62c0 .175 0 .21-.02.502.71-.912 1.33-1.24 2.38-1.24.89 0 1.56.293 1.98.866.28.386.39.853.39 1.636v2.806c0 .643.03 1.087.1 1.52h-1.69c.05-.526.08-.924.08-1.52v-2.595c0-.491-.06-.807-.2-1.029-.19-.304-.54-.48-.98-.48-.84 0-1.53.585-2.04 1.743v2.361c0 .573.02 1.017.09 1.52Zm6.72-8.51h1.67c-.05.409-.08.911-.08 1.437v.363h.49c.54 0 .8-.012 1.17-.07v1.38c-.38-.06-.6-.071-1.14-.071h-.52v3.624c0 .573.21.783.77.783.3 0 .49-.058.85-.257l.21 1.24c-.5.186-.85.245-1.46.245-1.34 0-1.88-.48-1.88-1.707v-3.928h-.44c-.43 0-.66.012-1.04.07v-1.38c.34.06.56.07 1.05.07h.43v-.362c0-.502-.03-1.017-.08-1.438Zm4.04-.795h1.72v1.484h-1.72v-1.484Zm0 2.595h1.7c-.05.432-.08.818-.08 1.531v3.648c0 .642.03 1.04.08 1.53h-1.7c.07-.525.1-.934.1-1.519v-3.67c0-.644-.03-1.04-.1-1.52Zm6.14 6.932c-2.13 0-3.48-1.38-3.48-3.566 0-2.174 1.35-3.565 3.47-3.565 2.11 0 3.45 1.38 3.45 3.542 0 2.163-1.36 3.589-3.44 3.589Zm-.01-5.915c-1.22 0-1.97.888-1.97 2.35 0 1.437.75 2.326 1.96 2.326s1.96-.877 1.96-2.303c0-1.508-.71-2.373-1.95-2.373Zm6.07 5.693h-1.68c.07-.503.09-.865.09-1.52v-3.67c0-.644-.02-1.04-.09-1.52h1.58v.62c0 .175 0 .21-.02.502.71-.912 1.33-1.24 2.38-1.24.9 0 1.56.293 1.98.866.28.386.4.853.4 1.636v2.806c0 .643.02 1.087.09 1.52h-1.69c.06-.526.08-.924.08-1.52v-2.595c0-.491-.06-.807-.2-1.029-.18-.304-.53-.48-.98-.48-.84 0-1.52.585-2.04 1.743v2.361c0 .573.03 1.017.1 1.52Zm5.64-1.906 1.6-.198c.2.795.63 1.11 1.54 1.11.86 0 1.4-.339 1.4-.888a.713.713 0 0 0-.31-.585c-.22-.152-.29-.163-1.22-.374-.92-.199-1.28-.315-1.68-.503-.67-.315-1.03-.876-1.03-1.554 0-.41.13-.795.36-1.088.48-.607 1.28-.911 2.34-.911.95 0 1.71.234 2.19.678.3.292.47.584.63 1.157l-1.54.199c-.13-.643-.53-.924-1.28-.924-.73 0-1.22.328-1.22.819 0 .222.13.42.37.549.25.129.5.199 1.16.35 1.19.258 1.67.422 2.05.714.46.327.68.806.68 1.45 0 .479-.22.993-.57 1.32-.54.503-1.35.76-2.41.76-1.21 0-2.1-.362-2.61-1.04-.21-.28-.31-.514-.45-1.04Z" />
            <path fill="#fff"
                d="M858.789 110.113c0-6.295 5.092-11.398 11.372-11.398h323.679c6.28 0 11.37 5.103 11.37 11.398v14.028c0 6.295-5.09 11.398-11.37 11.398H870.161c-6.28 0-11.372-5.103-11.372-11.398v-14.028Z" />
            <path stroke="#E8E8E8"
                d="M858.789 110.113c0-6.295 5.092-11.398 11.372-11.398h323.679c6.28 0 11.37 5.103 11.37 11.398v14.028c0 6.295-5.09 11.398-11.37 11.398H870.161c-6.28 0-11.372-5.103-11.372-11.398v-14.028Z" />
            <path fill="url(#g)"
                d="M880.296 110.403a.583.583 0 0 1 .728 0l.602.481a.584.584 0 0 0 .525.105l.74-.214a.584.584 0 0 1 .672.279l.373.676a.58.58 0 0 0 .445.298l.765.086a.586.586 0 0 1 .515.516l.086.767a.585.585 0 0 0 .297.446l.675.374a.585.585 0 0 1 .278.673l-.213.742a.582.582 0 0 0 .104.526l.48.604c.17.213.17.516 0 .729l-.48.603a.585.585 0 0 0-.104.527l.213.742a.585.585 0 0 1-.278.673l-.675.374a.582.582 0 0 0-.297.446l-.086.767a.586.586 0 0 1-.515.516l-.765.085a.584.584 0 0 0-.445.299l-.373.676a.584.584 0 0 1-.672.279l-.74-.214a.58.58 0 0 0-.525.104l-.602.482a.583.583 0 0 1-.728 0l-.602-.482a.58.58 0 0 0-.525-.104l-.74.214a.584.584 0 0 1-.672-.279l-.373-.676a.584.584 0 0 0-.445-.299l-.766-.085a.586.586 0 0 1-.514-.516l-.086-.767a.582.582 0 0 0-.297-.446l-.675-.374a.585.585 0 0 1-.278-.673l.213-.742a.585.585 0 0 0-.104-.527l-.481-.603a.587.587 0 0 1 0-.729l.481-.604a.582.582 0 0 0 .104-.526l-.213-.742a.585.585 0 0 1 .278-.673l.675-.374a.585.585 0 0 0 .297-.446l.086-.767a.586.586 0 0 1 .514-.516l.766-.086a.58.58 0 0 0 .445-.298l.373-.676a.584.584 0 0 1 .672-.279l.74.214a.584.584 0 0 0 .525-.105l.602-.481Z" />
            <path fill="url(#h)"
                d="M880.66 122.971c3.221 0 5.832-2.616 5.832-5.845 0-3.228-2.611-5.845-5.832-5.845-3.221 0-5.832 2.617-5.832 5.845 0 3.229 2.611 5.845 5.832 5.845Z" />
            <path fill="url(#i)" fill-opacity=".5"
                d="M880.659 122.386a5.254 5.254 0 0 0 5.249-5.26 5.255 5.255 0 0 0-5.249-5.261 5.255 5.255 0 0 0-5.249 5.261c0 2.905 2.35 5.26 5.249 5.26Z"
                opacity=".18" />
            <path fill="#FCFCFC"
                d="M885.323 117.111a4.544 4.544 0 0 1-.147 1.182c-.022.088-.044.17-.071.258a4.616 4.616 0 0 1-.695 1.358 4.82 4.82 0 0 1-.591.657 4.636 4.636 0 0 1-3.145 1.237 4.628 4.628 0 0 1-3.156-1.215 4.999 4.999 0 0 1-.585-.641 4.597 4.597 0 0 1-.738-1.451 4.432 4.432 0 0 1-.165-.767 4.67 4.67 0 0 1 4.611-5.278 4.673 4.673 0 0 1 4.682 4.66Z" />
            <path fill="#fff"
                d="M880.658 121.803a4.67 4.67 0 0 0 4.665-4.676 4.67 4.67 0 0 0-4.665-4.676 4.671 4.671 0 0 0-4.666 4.676 4.67 4.67 0 0 0 4.666 4.676Z" />
            <path fill="url(#j)"
                d="M880.658 121.803a4.67 4.67 0 0 0 4.665-4.676 4.67 4.67 0 0 0-4.665-4.676 4.671 4.671 0 0 0-4.666 4.676 4.67 4.67 0 0 0 4.666 4.676Z" />
            <path fill="url(#k)"
                d="M878.375 116.912c0-.606.101-1.08.304-1.42.207-.344.56-.515 1.061-.515.5 0 .852.171 1.055.515.206.34.309.814.309 1.42 0 .614-.103 1.095-.309 1.442-.203.344-.555.515-1.055.515-.501 0-.854-.171-1.061-.515-.203-.347-.304-.828-.304-1.442Zm2.142 0c0-.284-.02-.524-.058-.72a.936.936 0 0 0-.221-.479c-.112-.126-.278-.189-.498-.189-.221 0-.387.063-.499.189a.974.974 0 0 0-.226.479 4.186 4.186 0 0 0-.052.72c0 .295.017.542.052.742.035.2.109.361.221.484.115.123.283.184.504.184.22 0 .386-.061.498-.184a.915.915 0 0 0 .226-.484c.035-.2.053-.447.053-.742Zm1.142-1.32v-.547h1.092v3.835h-.604v-3.288h-.488Z" />
            <path fill="#3D89DF"
                d="M897.953 117.889h-.392c-.35 0-.518.007-.714.042v-.772c.189.028.385.042.805.042h.301a5.7 5.7 0 0 0 .791-.035 5.702 5.702 0 0 0-.049.849v.701c0 .379.007.547.049.856-.469.266-.707.372-1.05.47a4.287 4.287 0 0 1-1.015.126c-.798 0-1.406-.224-1.84-.68-.483-.512-.749-1.277-.749-2.175 0-1.178.462-2.083 1.288-2.546.37-.203.762-.294 1.287-.294.637 0 1.19.203 1.568.568.238.231.371.442.518.82l-.798.225c-.231-.652-.63-.919-1.372-.919-1.035 0-1.679.814-1.679 2.132 0 .716.182 1.312.525 1.698.293.329.706.498 1.245.498.504 0 .903-.112 1.281-.351v-1.255Zm4.405-1.733-.203.744c-.252-.078-.392-.106-.595-.106-.364 0-.637.12-.84.372-.168.21-.238.379-.273.708v1.347c0 .351.014.554.049.863h-.854c.035-.344.049-.533.049-.863v-2.202a5.92 5.92 0 0 0-.049-.863h.805v.316c0 .056-.007.196-.014.252.294-.456.665-.638 1.281-.638.217 0 .371.014.644.07Zm2.364 4.04c-1.225 0-2.001-.806-2.001-2.076s.776-2.076 1.994-2.076 1.988.806 1.988 2.069-.784 2.083-1.981 2.083Zm0-3.542c-.77 0-1.246.554-1.246 1.452 0 .912.469 1.466 1.239 1.466.763 0 1.232-.547 1.232-1.445 0-.919-.462-1.473-1.225-1.473Zm5.517-.498h.847a5.303 5.303 0 0 0-.056.863v2.195c0 .365.014.589.056.87h-.798v-.337c0-.049.007-.147.014-.294-.357.484-.798.701-1.406.701-.532 0-.938-.182-1.176-.526-.154-.217-.224-.491-.224-.905v-1.711c0-.372-.014-.61-.049-.856h.854a6.672 6.672 0 0 0-.049.863v1.592c0 .617.238.912.748.912.35 0 .623-.14.896-.442.182-.211.287-.386.392-.673v-1.389c0-.323-.014-.575-.049-.863Zm2.614 5.338h-.833c.035-.295.049-.54.049-.87v-3.584c0-.379-.014-.603-.049-.884h.777v.309c0 .091 0 .112-.014.252.363-.449.79-.645 1.427-.645.539 0 .973.161 1.281.477.364.365.553.905.553 1.557 0 1.248-.714 2.034-1.848 2.034a1.92 1.92 0 0 1-1.057-.295 1.801 1.801 0 0 1-.356-.322c.021.196.021.28.021.491v.603c0 .372.014.596.049.877Zm1.273-1.985c.721 0 1.148-.54 1.148-1.438 0-.856-.434-1.361-1.162-1.361-.749 0-1.287.582-1.287 1.396 0 .4.147.8.37 1.031.224.231.581.372.931.372Zm5.449-4.419h.847a5.845 5.845 0 0 0-.049.828v.238h.315c.329 0 .476-.007.714-.042v.708a4.03 4.03 0 0 0-.7-.042h-.329v2.266c0 .351.105.463.434.463.189 0 .336-.042.546-.162l.147.66a2.052 2.052 0 0 1-.847.161c-.357 0-.623-.077-.784-.224-.175-.155-.245-.379-.245-.751v-2.413h-.273c-.245 0-.399.014-.623.042v-.708c.196.035.343.042.63.042h.266v-.238c0-.288-.021-.583-.049-.828Zm5.179 1.066-.203.744c-.252-.078-.392-.106-.595-.106-.364 0-.637.12-.84.372-.168.21-.238.379-.273.708v1.347c0 .351.014.554.049.863h-.853c.035-.344.049-.533.049-.863v-2.202a5.92 5.92 0 0 0-.049-.863h.804v.316c0 .056-.007.196-.014.252.294-.456.665-.638 1.281-.638.217 0 .371.014.644.07Zm.538-1.557h.888v.785h-.888v-.785Zm.014 1.557h.86c-.035.253-.049.47-.049.87v2.188c0 .365.014.575.049.87h-.86c.035-.323.049-.533.049-.863v-2.202c0-.365-.014-.596-.049-.863Zm2.63 5.338h-.833c.035-.295.049-.54.049-.87v-3.584c0-.379-.014-.603-.049-.884h.777v.309c0 .091 0 .112-.014.252.364-.449.791-.645 1.428-.645.538 0 .972.161 1.28.477.364.365.553.905.553 1.557 0 1.248-.714 2.034-1.847 2.034a1.92 1.92 0 0 1-1.057-.295 1.776 1.776 0 0 1-.357-.322c.021.196.021.28.021.491v.603c0 .372.014.596.049.877Zm1.274-1.985c.72 0 1.147-.54 1.147-1.438 0-.856-.434-1.361-1.161-1.361-.749 0-1.288.582-1.288 1.396 0 .4.147.8.371 1.031.224.231.581.372.931.372Z" />
            <path fill="#101928"
                d="M935.05 120.084h-.847c.042-.287.056-.491.056-.862v-3.753c0-.393-.014-.596-.049-.87h.84a5.962 5.962 0 0 0-.049.87v1.017c0 .105 0 .105-.021.337.371-.512.819-.737 1.449-.737.86 0 1.364.505 1.364 1.368v1.768c0 .357.014.61.049.862h-.861a4.97 4.97 0 0 0 .056-.862v-1.6c0-.301-.056-.519-.181-.652-.126-.147-.329-.231-.567-.231-.546 0-1.015.392-1.288 1.094v1.389c0 .322.014.575.049.862Zm5.539.113c-1.225 0-2.002-.807-2.002-2.077 0-1.269.777-2.076 1.995-2.076 1.217 0 1.987.807 1.987 2.069 0 1.263-.784 2.084-1.98 2.084Zm0-3.543c-.77 0-1.246.555-1.246 1.452 0 .912.469 1.466 1.239 1.466.762 0 1.231-.547 1.231-1.445 0-.918-.462-1.473-1.224-1.473Zm2.731-2.055h.854a5.962 5.962 0 0 0-.049.87v3.753c0 .357.014.554.049.862h-.854c.035-.287.049-.491.049-.862v-3.76c0-.386-.014-.61-.049-.863Zm4.843 5.485v-.287c.007-.126.014-.211.014-.253-.371.442-.798.632-1.428.632-.518 0-.931-.155-1.239-.463-.378-.365-.581-.926-.581-1.6 0-1.255.707-2.041 1.841-2.041.616 0 1.092.211 1.407.618 0-.078 0-.078-.014-.183-.007-.049-.007-.14-.007-.273v-.751c0-.379-.014-.603-.049-.884h.832a7.126 7.126 0 0 0-.049.877v3.718c0 .385.014.603.049.89h-.776Zm-.028-1.999c0-.841-.504-1.367-1.316-1.367-.378 0-.714.189-.91.505-.126.203-.21.554-.21.876 0 .463.112.842.315 1.074.203.224.511.35.84.35.777 0 1.281-.568 1.281-1.438Zm1.551.898.805-.105c.049.238.105.351.238.47.161.154.406.231.735.231.545 0 .902-.231.902-.582a.457.457 0 0 0-.196-.393c-.147-.098-.245-.126-.769-.238-.553-.119-.777-.189-1.022-.33a.937.937 0 0 1-.518-.855c0-.274.112-.534.315-.73.287-.266.686-.4 1.225-.4.524 0 .944.134 1.21.379.189.168.28.337.378.673l-.777.106c-.028-.176-.063-.253-.147-.344-.154-.161-.378-.246-.678-.246-.462 0-.784.225-.784.548 0 .147.084.273.224.357.161.084.322.133.728.218.748.168 1.007.259 1.231.456.231.203.336.448.336.792 0 .274-.126.561-.329.751-.301.287-.77.435-1.364.435-.686 0-1.204-.204-1.491-.59-.119-.161-.175-.294-.252-.603Zm6.965-3.893h.847a5.854 5.854 0 0 0-.049.828v.238h.315c.329 0 .476-.007.714-.042v.709a4.03 4.03 0 0 0-.7-.042h-.329v2.265c0 .351.105.463.434.463.189 0 .336-.042.546-.161l.147.659a2.052 2.052 0 0 1-.847.162c-.357 0-.623-.078-.784-.225-.175-.154-.245-.379-.245-.75v-2.413h-.273c-.245 0-.399.014-.623.042v-.709c.196.035.343.042.63.042h.266v-.238c0-.288-.021-.582-.049-.828Zm3.31 4.994h-.846c.042-.287.056-.491.056-.862v-3.753c0-.393-.014-.596-.049-.87h.839a5.962 5.962 0 0 0-.049.87v1.017c0 .105 0 .105-.021.337.371-.512.819-.737 1.449-.737.861 0 1.365.505 1.365 1.368v1.768c0 .357.014.61.049.862h-.861a4.97 4.97 0 0 0 .056-.862v-1.6c0-.301-.056-.519-.182-.652-.126-.147-.329-.231-.567-.231-.546 0-1.015.392-1.288 1.094v1.389c0 .322.014.575.049.862Zm7.282-1.788h-3.003c.028.421.098.638.273.863.21.273.525.42.917.42.364 0 .658-.119.875-.364.091-.113.14-.19.21-.386l.693.238c-.133.295-.231.442-.406.618-.35.343-.819.519-1.379.519-1.176 0-1.925-.807-1.925-2.077 0-1.262.742-2.083 1.876-2.083.987 0 1.673.617 1.82 1.642.014.091.014.091.049.61Zm-2.982-.596h2.219c-.042-.344-.14-.562-.336-.751-.196-.196-.448-.295-.777-.295-.399 0-.721.19-.931.541-.098.161-.133.273-.175.505Zm6.909 2.384h-.847c.042-.287.056-.491.056-.862v-3.753c0-.393-.014-.596-.049-.87h.84a5.962 5.962 0 0 0-.049.87v1.017c0 .105 0 .105-.021.337.371-.512.819-.737 1.449-.737.86 0 1.364.505 1.364 1.368v1.768c0 .357.014.61.049.862h-.861a4.97 4.97 0 0 0 .056-.862v-1.6c0-.301-.056-.519-.181-.652-.126-.147-.329-.231-.567-.231-.546 0-1.015.392-1.288 1.094v1.389c0 .322.014.575.049.862Zm3.711-5.485h.889v.786h-.889v-.786Zm.014 1.557h.861c-.035.253-.049.47-.049.87v2.189c0 .364.014.575.049.869h-.861c.035-.322.049-.533.049-.862v-2.203c0-.365-.014-.596-.049-.863Zm1.728 4.623.623-.435c.287.379.63.54 1.105.54.56 0 .98-.224 1.176-.61.091-.197.14-.484.147-.87a1.102 1.102 0 0 1-.308.33 1.81 1.81 0 0 1-1.022.301c-1.126 0-1.833-.757-1.833-1.964 0-1.206.714-1.978 1.833-1.978.588 0 1.029.19 1.337.583-.007-.029-.007-.05-.007-.064-.007-.056-.007-.077-.007-.147v-.309h.763a5.997 5.997 0 0 0-.049.842v2.406c0 .814-.14 1.263-.49 1.606-.308.302-.889.484-1.512.484-.79 0-1.273-.196-1.756-.715Zm.658-2.701c0 .828.427 1.347 1.112 1.347.735 0 1.239-.575 1.239-1.396 0-.785-.483-1.325-1.197-1.325-.713 0-1.154.526-1.154 1.374Zm4.947 2.006h-.847c.042-.287.056-.491.056-.862v-3.753c0-.393-.014-.596-.049-.87h.84a5.962 5.962 0 0 0-.049.87v1.017c0 .105 0 .105-.021.337.371-.512.819-.737 1.449-.737.86 0 1.364.505 1.364 1.368v1.768c0 .357.014.61.049.862h-.86a4.97 4.97 0 0 0 .056-.862v-1.6c0-.301-.056-.519-.182-.652-.126-.147-.329-.231-.567-.231-.546 0-1.015.392-1.288 1.094v1.389c0 .322.014.575.049.862Zm7.281-1.788h-3.003c.028.421.098.638.273.863.21.273.525.42.917.42.364 0 .658-.119.875-.364.091-.113.14-.19.21-.386l.693.238c-.133.295-.231.442-.406.618-.35.343-.819.519-1.379.519-1.176 0-1.924-.807-1.924-2.077 0-1.262.741-2.083 1.875-2.083.987 0 1.673.617 1.82 1.642.014.091.014.091.049.61Zm-2.982-.596h2.219c-.042-.344-.14-.562-.336-.751-.196-.196-.448-.295-.777-.295-.399 0-.721.19-.931.541-.098.161-.133.273-.175.505Zm3.543 1.283.805-.105c.049.238.105.351.238.47.161.154.406.231.735.231.546 0 .903-.231.903-.582a.457.457 0 0 0-.196-.393c-.147-.098-.245-.126-.77-.238-.553-.119-.777-.189-1.022-.33a.937.937 0 0 1-.518-.855c0-.274.112-.534.315-.73.287-.266.686-.4 1.225-.4.525 0 .945.134 1.211.379.189.168.28.337.378.673l-.777.106c-.028-.176-.063-.253-.147-.344-.154-.161-.378-.246-.679-.246-.462 0-.784.225-.784.548 0 .147.084.273.224.357.161.084.322.133.728.218.749.168 1.008.259 1.232.456.231.203.336.448.336.792 0 .274-.126.561-.329.751-.301.287-.77.435-1.365.435-.686 0-1.204-.204-1.491-.59-.119-.161-.175-.294-.252-.603Zm4.635-3.893h.847a5.854 5.854 0 0 0-.049.828v.238h.315c.329 0 .476-.007.714-.042v.709a4.03 4.03 0 0 0-.7-.042h-.329v2.265c0 .351.105.463.434.463.189 0 .336-.042.546-.161l.147.659a2.052 2.052 0 0 1-.847.162c-.357 0-.623-.078-.784-.225-.175-.154-.245-.379-.245-.75v-2.413h-.273c-.245 0-.399.014-.623.042v-.709c.196.035.343.042.63.042h.266v-.238c0-.288-.021-.582-.049-.828Zm7.965 4.994h-.84c.03-.287.05-.505.05-.862v-2.203c0-.407-.02-.603-.05-.863h.79v.302c0 .133 0 .14-.01.147v.106c.29-.428.71-.639 1.26-.639.4 0 .71.113.92.33.11.105.15.182.23.365.15-.204.24-.295.37-.4.27-.189.58-.288.97-.288.47 0 .82.141 1.05.414.21.239.3.533.3.989v1.74c0 .378.01.589.05.862h-.86c.04-.28.05-.47.05-.862v-1.607c0-.329-.03-.498-.14-.645-.11-.161-.32-.252-.56-.252-.32 0-.61.154-.83.456-.13.175-.19.329-.26.659v1.389c0 .378.02.596.05.862h-.85c.04-.266.05-.484.05-.862v-1.607c0-.596-.24-.897-.7-.897-.29 0-.61.189-.82.498-.12.168-.19.308-.27.617v1.389c0 .35.01.554.05.862Zm9.57-1.788h-3c.03.421.1.638.27.863.21.273.53.42.92.42.36 0 .66-.119.87-.364.09-.113.14-.19.21-.386l.7.238c-.14.295-.24.442-.41.618-.35.343-.82.519-1.38.519-1.18 0-1.92-.807-1.92-2.077 0-1.262.74-2.083 1.87-2.083.99 0 1.67.617 1.82 1.642.02.091.02.091.05.61Zm-2.98-.596h2.22c-.04-.344-.14-.562-.34-.751-.19-.196-.45-.295-.78-.295-.39 0-.72.19-.93.541-.09.161-.13.273-.17.505Zm4.58 2.384h-.85c.04-.294.06-.491.06-.862v-2.203a5.5 5.5 0 0 0-.06-.863h.8v.351c0 .049-.01.147-.02.295.38-.498.82-.716 1.43-.716.51 0 .92.183 1.16.519.15.218.22.498.22.912v1.705c0 .378.01.617.05.862h-.85c.03-.301.04-.519.04-.862v-1.593c0-.617-.23-.897-.74-.897-.34 0-.62.133-.9.435a1.64 1.64 0 0 0-.39.659v1.396c0 .322.01.575.05.862Zm4.16-4.994h.85c-.03.239-.05.519-.05.828v.238h.32c.33 0 .47-.007.71-.042v.709a3.97 3.97 0 0 0-.7-.042h-.33v2.265c0 .351.11.463.44.463.18 0 .33-.042.54-.161l.15.659c-.3.119-.53.162-.85.162-.36 0-.62-.078-.78-.225-.18-.154-.25-.379-.25-.75v-2.413h-.27c-.24 0-.4.014-.62.042v-.709c.19.035.34.042.63.042h.26v-.238c0-.288-.02-.582-.05-.828Zm2.47-.491h.89v.786h-.89v-.786Zm.01 1.557h.86a6.5 6.5 0 0 0-.05.87v2.189c0 .364.02.575.05.869h-.86c.04-.322.05-.533.05-.862v-2.203c0-.365-.01-.596-.05-.863Zm3.62 4.041c-1.23 0-2-.807-2-2.077 0-1.269.77-2.076 1.99-2.076s1.99.807 1.99 2.069c0 1.263-.79 2.084-1.98 2.084Zm0-3.543c-.77 0-1.25.555-1.25 1.452 0 .912.47 1.466 1.24 1.466.76 0 1.23-.547 1.23-1.445 0-.918-.46-1.473-1.22-1.473Zm3.58 3.43h-.85c.04-.294.06-.491.06-.862v-2.203a5.5 5.5 0 0 0-.06-.863h.8v.351c0 .049-.01.147-.02.295.38-.498.82-.716 1.43-.716.51 0 .92.183 1.16.519.15.218.22.498.22.912v1.705c0 .378.01.617.05.862h-.85c.03-.301.04-.519.04-.862v-1.593c0-.617-.23-.897-.74-.897-.34 0-.62.133-.9.435a1.64 1.64 0 0 0-.39.659v1.396c0 .322.01.575.05.862Zm3.52-1.101.8-.105c.05.238.11.351.24.47.16.154.41.231.74.231.54 0 .9-.231.9-.582a.45.45 0 0 0-.2-.393c-.14-.098-.24-.126-.77-.238-.55-.119-.77-.189-1.02-.33-.33-.182-.52-.484-.52-.855 0-.274.12-.534.32-.73.29-.266.69-.4 1.22-.4s.95.134 1.21.379c.19.168.28.337.38.673l-.77.106c-.03-.176-.07-.253-.15-.344-.16-.161-.38-.246-.68-.246-.46 0-.78.225-.78.548 0 .147.08.273.22.357.16.084.32.133.73.218.75.168 1.01.259 1.23.456.23.203.34.448.34.792 0 .274-.13.561-.33.751-.3.287-.77.435-1.37.435-.68 0-1.2-.204-1.49-.59-.12-.161-.17-.294-.25-.603Zm10.49 1.101h-.68c-.04-.175-.09-.371-.16-.61l-.61-1.817a9.735 9.735 0 0 0-.12-.455c-.04.161-.11.399-.14.47l-.6 1.802c-.07.225-.14.47-.16.61h-.68a6.268 6.268 0 0 0-.17-.617l-.76-2.455c-.1-.301-.2-.624-.29-.856h.87c.02.218.08.52.16.807l.44 1.522c.03.091.08.302.12.54.02-.091.14-.47.16-.547l.57-1.711c.06-.204.14-.477.16-.611h.63c.02.134.1.414.16.611l.58 1.767c.03.056.07.225.1.33.02.105.02.105.04.161.07-.322.12-.491.12-.505l.44-1.557c.09-.302.14-.589.16-.807h.87c-.08.204-.1.274-.28.856l-.77 2.462c-.09.316-.13.442-.16.61Zm1.75-5.485h.89v.786h-.89v-.786Zm.01 1.557h.86a6.5 6.5 0 0 0-.05.87v2.189c0 .364.02.575.05.869h-.86c.04-.322.05-.533.05-.862v-2.203c0-.365-.01-.596-.05-.863Zm2.25-1.066h.84c-.03.239-.05.519-.05.828v.238h.32c.33 0 .48-.007.71-.042v.709a3.97 3.97 0 0 0-.7-.042h-.33v2.265c0 .351.11.463.44.463.19 0 .33-.042.54-.161l.15.659a2.03 2.03 0 0 1-.85.162c-.35 0-.62-.078-.78-.225-.17-.154-.24-.379-.24-.75v-2.413h-.28c-.24 0-.4.014-.62.042v-.709c.2.035.34.042.63.042h.27v-.238c0-.288-.03-.582-.05-.828Zm3.31 4.994h-.85c.04-.287.06-.491.06-.862v-3.753c0-.393-.02-.596-.05-.87h.84c-.04.267-.05.477-.05.87v1.017c0 .105 0 .105-.02.337.37-.512.82-.737 1.45-.737.86 0 1.36.505 1.36 1.368v1.768c0 .357.01.61.05.862h-.86c.04-.245.05-.498.05-.862v-1.6c0-.301-.05-.519-.18-.652-.12-.147-.33-.231-.56-.231-.55 0-1.02.392-1.29 1.094v1.389c0 .322.01.575.05.862Zm6.68-4.769v-.758c.19.035.34.042.65.042h.56c.3 0 .41-.007.65-.035-.04.428-.05.758-.05 1.165v3.486c0 .357.01.589.05.869h-.9c.04-.266.06-.519.06-.869v-3.942h-.35c-.24 0-.44.014-.67.042Zm6.14 4.875c-.57 0-1.04-.183-1.4-.541a1.91 1.91 0 0 1-.44-.68 4.76 4.76 0 0 1-.27-1.62c0-.737.17-1.508.41-1.922.37-.603.96-.933 1.7-.933.57 0 1.05.183 1.4.54.21.204.36.435.44.681.19.491.28 1.052.28 1.627 0 .856-.19 1.613-.51 2.055-.37.526-.92.793-1.61.793Zm0-5.023c-.35 0-.61.113-.82.358a1.28 1.28 0 0 0-.3.526c-.13.393-.19.842-.19 1.312 0 .617.13 1.269.31 1.578.23.379.56.568 1 .568.33 0 .62-.112.81-.308.15-.155.26-.351.32-.569.13-.406.19-.827.19-1.297 0-.568-.12-1.214-.29-1.536-.21-.421-.55-.632-1.03-.632Zm4.83 5.023c-.57 0-1.04-.183-1.39-.541a1.784 1.784 0 0 1-.44-.68 4.533 4.533 0 0 1-.28-1.62c0-.737.17-1.508.42-1.922.36-.603.95-.933 1.7-.933.56 0 1.04.183 1.4.54.2.204.35.435.44.681.18.491.27 1.052.27 1.627 0 .856-.19 1.613-.5 2.055-.38.526-.93.793-1.62.793Zm0-5.023c-.35 0-.61.113-.82.358a1.28 1.28 0 0 0-.3.526c-.13.393-.19.842-.19 1.312 0 .617.13 1.269.31 1.578.23.379.56.568 1.01.568.32 0 .61-.112.8-.308.15-.155.26-.351.32-.569.13-.406.19-.827.19-1.297 0-.568-.12-1.214-.29-1.536-.21-.421-.55-.632-1.03-.632Zm7.82 4.917v-.442c-.25.211-.37.288-.59.372-.24.091-.52.141-.8.141-.82 0-1.32-.428-1.32-1.137 0-.519.33-.954.88-1.157.44-.161.86-.211 1.83-.239v-.301c0-.253-.06-.414-.18-.512-.14-.119-.37-.183-.66-.183-.57 0-.88.19-1.03.653l-.77-.148c.14-.364.26-.547.49-.722.32-.253.75-.372 1.32-.372.58 0 .97.119 1.24.386.22.21.31.47.31.905v1.922c0 .343.01.533.06.834h-.78Zm0-1.522v-.392c-.75.021-1.13.07-1.44.189-.35.133-.52.351-.52.659 0 .344.26.554.69.554.35 0 .76-.161 1.02-.413a.832.832 0 0 0 .25-.597Zm5.13-1.325-.73.189c-.18-.519-.49-.765-.97-.765-.71 0-1.17.562-1.17 1.452 0 .884.46 1.445 1.19 1.445.37 0 .68-.154.85-.407.05-.091.09-.168.14-.343l.74.154c-.11.288-.17.421-.29.575-.33.435-.83.66-1.45.66-1.18 0-1.94-.807-1.94-2.063 0-1.262.76-2.097 1.92-2.097.84 0 1.42.414 1.71 1.2Zm3.5-1.081-.2.744c-.25-.077-.39-.105-.59-.105-.37 0-.64.119-.84.372-.17.21-.24.378-.28.708v1.347c0 .35.02.554.05.862h-.85c.03-.343.05-.533.05-.862v-2.203a6.7 6.7 0 0 0-.05-.863h.8v.316c0 .056 0 .197-.01.253.29-.456.66-.639 1.28-.639.22 0 .37.014.64.07Zm2.37 4.041c-1.23 0-2-.807-2-2.077 0-1.269.77-2.076 1.99-2.076s1.99.807 1.99 2.069c0 1.263-.79 2.084-1.98 2.084Zm0-3.543c-.77 0-1.25.555-1.25 1.452 0 .912.47 1.466 1.24 1.466.76 0 1.23-.547 1.23-1.445 0-.918-.46-1.473-1.22-1.473Zm2.54 2.329.81-.105c.04.238.1.351.23.47.16.154.41.231.74.231.54 0 .9-.231.9-.582a.467.467 0 0 0-.19-.393c-.15-.098-.25-.126-.77-.238-.56-.119-.78-.189-1.03-.33a.94.94 0 0 1-.51-.855c0-.274.11-.534.31-.73.29-.266.69-.4 1.23-.4.52 0 .94.134 1.21.379.19.168.28.337.37.673l-.77.106c-.03-.176-.07-.253-.15-.344-.15-.161-.38-.246-.68-.246-.46 0-.78.225-.78.548 0 .147.08.273.22.357.16.084.32.133.73.218.75.168 1.01.259 1.23.456.23.203.34.448.34.792 0 .274-.13.561-.33.751-.3.287-.77.435-1.37.435-.68 0-1.2-.204-1.49-.59-.12-.161-.17-.294-.25-.603Zm3.99 0 .81-.105c.05.238.1.351.23.47.17.154.41.231.74.231.55 0 .9-.231.9-.582a.467.467 0 0 0-.19-.393c-.15-.098-.25-.126-.77-.238-.56-.119-.78-.189-1.03-.33a.94.94 0 0 1-.51-.855c0-.274.11-.534.31-.73.29-.266.69-.4 1.23-.4.52 0 .94.134 1.21.379.19.168.28.337.38.673l-.78.106c-.03-.176-.06-.253-.15-.344-.15-.161-.38-.246-.68-.246-.46 0-.78.225-.78.548 0 .147.08.273.22.357.16.084.32.133.73.218.75.168 1.01.259 1.23.456.23.203.34.448.34.792 0 .274-.13.561-.33.751-.3.287-.77.435-1.37.435-.68 0-1.2-.204-1.49-.59-.11-.161-.17-.294-.25-.603Zm9.12 1.101v-.442c-.26.211-.38.288-.59.372-.25.091-.52.141-.8.141-.83 0-1.32-.428-1.32-1.137 0-.519.33-.954.88-1.157.44-.161.85-.211 1.83-.239v-.301c0-.253-.06-.414-.18-.512-.15-.119-.37-.183-.66-.183-.58 0-.88.19-1.03.653l-.77-.148c.14-.364.26-.547.49-.722.32-.253.75-.372 1.31-.372.58 0 .98.119 1.25.386.22.21.31.47.31.905v1.922c0 .343.01.533.05.834h-.77Zm0-1.522v-.392c-.75.021-1.13.07-1.45.189-.35.133-.51.351-.51.659 0 .344.26.554.68.554.36 0 .76-.161 1.02-.413a.803.803 0 0 0 .26-.597Zm1.67-3.963h.85c-.03.267-.04.477-.04.87v3.753c0 .357.01.554.04.862h-.85c.04-.287.05-.491.05-.862v-3.76c0-.386-.01-.61-.05-.863Zm1.78 0h.86c-.04.267-.05.477-.05.87v3.753c0 .357.01.554.05.862h-.86c.04-.287.05-.491.05-.862v-3.76c0-.386-.01-.61-.05-.863Zm4.96 6.895h-.83c.03-.294.05-.54.05-.87v-3.584c0-.379-.02-.603-.05-.884h.77v.309c0 .091 0 .112-.01.253.36-.449.79-.646 1.43-.646.54 0 .97.162 1.28.477.36.365.55.905.55 1.557 0 1.249-.71 2.034-1.85 2.034-.4 0-.77-.105-1.05-.294a1.734 1.734 0 0 1-.36-.323c.02.197.02.281.02.491v.603c0 .372.01.597.05.877Zm1.27-1.985c.72 0 1.15-.54 1.15-1.438 0-.855-.43-1.36-1.16-1.36-.75 0-1.29.582-1.29 1.395 0 .4.15.8.37 1.031.23.232.58.372.93.372Zm2.67-4.91h.85c-.03.267-.05.477-.05.87v3.753c0 .357.02.554.05.862h-.85c.03-.287.05-.491.05-.862v-3.76c0-.386-.02-.61-.05-.863Zm4.38 5.485v-.442c-.25.211-.37.288-.58.372-.25.091-.52.141-.8.141-.83 0-1.32-.428-1.32-1.137 0-.519.32-.954.88-1.157.44-.161.85-.211 1.82-.239v-.301c0-.253-.05-.414-.17-.512-.15-.119-.37-.183-.67-.183-.57 0-.87.19-1.02.653l-.77-.148c.14-.364.25-.547.49-.722.32-.253.74-.372 1.31-.372.58 0 .97.119 1.25.386.21.21.3.47.3.905v1.922c0 .343.02.533.06.834h-.78Zm0-1.522v-.392c-.75.021-1.12.07-1.44.189-.35.133-.52.351-.52.659 0 .344.26.554.69.554.36 0 .76-.161 1.02-.413a.794.794 0 0 0 .25-.597Zm2.13-3.472h.85c-.03.239-.05.519-.05.828v.238h.32c.33 0 .47-.007.71-.042v.709a3.97 3.97 0 0 0-.7-.042h-.33v2.265c0 .351.11.463.44.463.18 0 .33-.042.54-.161l.15.659c-.3.119-.53.162-.85.162-.36 0-.62-.078-.78-.225-.18-.154-.25-.379-.25-.75v-2.413h-.27c-.25 0-.4.014-.62.042v-.709c.19.035.34.042.63.042h.26v-.238c0-.288-.02-.582-.05-.828Zm3.02 1.684h-.29c-.24 0-.43.014-.65.042v-.702c.19.028.39.042.65.042h.29v-.392c0-.428.08-.702.29-.919.19-.204.55-.323.98-.323.3 0 .53.042.82.14l-.17.625a1.25 1.25 0 0 0-.61-.148c-.21 0-.37.057-.46.162-.07.098-.1.238-.1.526v.329h.34c.28 0 .5-.014.77-.042v.702a5.886 5.886 0 0 0-.77-.042h-.34v2.448c0 .371.01.617.05.862h-.85c.04-.245.05-.526.05-.869v-2.441Zm4.44 3.423c-1.22 0-2-.807-2-2.077 0-1.269.78-2.076 2-2.076s1.98.807 1.98 2.069c0 1.263-.78 2.084-1.98 2.084Zm0-3.543c-.77 0-1.24.555-1.24 1.452 0 .912.47 1.466 1.24 1.466.76 0 1.23-.547 1.23-1.445 0-.918-.46-1.473-1.23-1.473Zm5.45-.498-.2.744a1.8 1.8 0 0 0-.6-.105c-.36 0-.63.119-.84.372-.16.21-.23.378-.27.708v1.347c0 .35.01.554.05.862h-.85c.03-.343.05-.533.05-.862v-2.203a6.7 6.7 0 0 0-.05-.863h.8v.316c0 .056-.01.197-.01.253.29-.456.66-.639 1.28-.639.21 0 .37.014.64.07Zm1.38 3.928h-.84c.03-.287.05-.505.05-.862v-2.203c0-.407-.02-.603-.05-.863h.79v.302c0 .133 0 .14-.01.147v.106c.29-.428.71-.639 1.26-.639.4 0 .71.113.92.33.1.105.15.182.23.365.15-.204.24-.295.37-.4.27-.189.58-.288.97-.288.47 0 .82.141 1.05.414.21.239.3.533.3.989v1.74c0 .378.01.589.05.862h-.86c.04-.28.05-.47.05-.862v-1.607c0-.329-.03-.498-.14-.645-.11-.161-.32-.252-.56-.252-.32 0-.61.154-.83.456-.13.175-.19.329-.26.659v1.389c0 .378.01.596.05.862h-.85c.04-.266.05-.484.05-.862v-1.607c0-.596-.24-.897-.71-.897-.28 0-.6.189-.81.498-.12.168-.19.308-.27.617v1.389c0 .35.01.554.05.862Zm5.81-1.101.81-.105c.05.238.1.351.23.47.17.154.41.231.74.231.55 0 .9-.231.9-.582a.467.467 0 0 0-.19-.393c-.15-.098-.25-.126-.77-.238-.56-.119-.78-.189-1.03-.33a.94.94 0 0 1-.51-.855c0-.274.11-.534.31-.73.29-.266.69-.4 1.23-.4.52 0 .94.134 1.21.379.19.168.28.337.38.673l-.78.106c-.03-.176-.06-.253-.15-.344-.15-.161-.38-.246-.68-.246-.46 0-.78.225-.78.548 0 .147.08.273.22.357.16.084.32.133.73.218.75.168 1.01.259 1.23.456.23.203.34.448.34.792 0 .274-.13.561-.33.751-.3.287-.77.435-1.37.435-.68 0-1.2-.204-1.49-.59-.12-.161-.17-.294-.25-.603Zm6.97-3.893h.84a6.85 6.85 0 0 0-.04.828v.238h.31c.33 0 .48-.007.71-.042v.709a3.97 3.97 0 0 0-.7-.042h-.32v2.265c0 .351.1.463.43.463.19 0 .34-.042.55-.161l.14.659c-.29.119-.52.162-.84.162-.36 0-.63-.078-.79-.225-.17-.154-.24-.379-.24-.75v-2.413h-.28c-.24 0-.4.014-.62.042v-.709c.2.035.34.042.63.042h.27v-.238c0-.288-.02-.582-.05-.828Zm5.18 1.066-.21.744c-.25-.077-.39-.105-.59-.105-.37 0-.64.119-.84.372-.17.21-.24.378-.27.708v1.347c0 .35.01.554.04.862h-.85c.04-.343.05-.533.05-.862v-2.203c0-.393-.01-.589-.05-.863h.81v.316c0 .056-.01.197-.02.253.3-.456.67-.639 1.28-.639.22 0 .37.014.65.07Zm3.14 3.928v-.442c-.25.211-.37.288-.59.372-.25.091-.52.141-.8.141-.82 0-1.32-.428-1.32-1.137 0-.519.33-.954.88-1.157.44-.161.85-.211 1.83-.239v-.301c0-.253-.06-.414-.18-.512-.14-.119-.37-.183-.66-.183-.58 0-.88.19-1.03.653l-.77-.148c.14-.364.26-.547.49-.722.32-.253.75-.372 1.31-.372.59 0 .98.119 1.25.386.22.21.31.47.31.905v1.922c0 .343.01.533.05.834h-.77Zm0-1.522v-.392c-.75.021-1.13.07-1.44.189-.35.133-.52.351-.52.659 0 .344.26.554.68.554.36 0 .77-.161 1.03-.413a.832.832 0 0 0 .25-.597Zm5.13-1.325-.73.189c-.18-.519-.49-.765-.97-.765-.71 0-1.17.562-1.17 1.452 0 .884.46 1.445 1.19 1.445.36 0 .68-.154.85-.407.05-.091.09-.168.14-.343l.74.154c-.11.288-.17.421-.3.575-.32.435-.82.66-1.44.66-1.18 0-1.94-.807-1.94-2.063 0-1.262.76-2.097 1.92-2.097.83 0 1.42.414 1.71 1.2Zm.79-2.638h.84c-.04.26-.05.484-.05.87v2.385l1.14-1.101c.29-.281.42-.428.52-.597h1.12c-.09.092-.09.092-.28.253-.11.098-.13.119-.4.379l-.98.933 1.19 1.578c.42.568.46.617.62.785h-1.06c-.1-.203-.19-.371-.46-.743l-.82-1.178-.59.554v.512c.02.624.02.624.05.855h-.84c.05-.252.06-.484.06-.862v-3.753c0-.393-.01-.61-.06-.87Zm7.91 3.697h-3.01c.03.421.1.638.28.863.21.273.52.42.91.42.37 0 .66-.119.88-.364.09-.113.14-.19.21-.386l.69.238c-.13.295-.23.442-.41.618-.34.343-.81.519-1.37.519-1.18 0-1.93-.807-1.93-2.077 0-1.262.74-2.083 1.88-2.083.98 0 1.67.617 1.82 1.642.01.091.01.091.05.61Zm-2.99-.596h2.22c-.04-.344-.14-.562-.33-.751-.2-.196-.45-.295-.78-.295-.4 0-.72.19-.93.541-.1.161-.13.273-.18.505Zm6.79 2.384v-.287c.01-.126.02-.211.02-.253-.37.442-.8.632-1.43.632-.52 0-.93-.155-1.24-.463-.38-.365-.58-.926-.58-1.6 0-1.255.71-2.041 1.84-2.041.62 0 1.09.211 1.41.618 0-.078 0-.078-.02-.183v-1.024c0-.379-.02-.603-.05-.884h.83c-.03.309-.05.547-.05.877v3.718c0 .385.02.603.05.89h-.78Zm-.02-1.999c0-.841-.51-1.367-1.32-1.367-.38 0-.71.189-.91.505-.13.203-.21.554-.21.876 0 .463.11.842.32 1.074.2.224.51.35.84.35.77 0 1.28-.568 1.28-1.438Zm1.74 1.109h.88v.89h-.88v-.89Z" />
            <path fill="#475367"
                d="M884.887 300.44c-.375 0-.694-.102-.957-.306-.264-.206-.465-.504-.604-.895-.139-.391-.209-.865-.209-1.419 0-.552.07-1.022.209-1.413.141-.391.343-.69.606-.896.265-.208.584-.312.955-.312s.688.104.952.312c.265.206.467.505.606.896.141.391.211.861.211 1.413 0 .554-.069 1.028-.209 1.419-.139.391-.34.689-.604.895-.263.204-.582.306-.956.306Zm0-.548c.371 0 .659-.179.865-.538.205-.358.308-.87.308-1.534 0-.442-.048-.818-.142-1.129-.093-.31-.227-.547-.403-.71a.888.888 0 0 0-.628-.243c-.368 0-.656.181-.863.545-.207.362-.31.874-.31 1.537 0 .441.046.817.139 1.125.093.31.226.544.4.705a.902.902 0 0 0 .634.242Z" />
            <path stroke="#D0D5DD" d="M891.738 297.74h164.052" />
            <path fill="#475367"
                d="M878.988 272.314v-.449l1.68-1.843c.197-.216.36-.403.487-.563.128-.161.222-.312.284-.453.063-.143.094-.292.094-.448a.83.83 0 0 0-.477-.77 1.13 1.13 0 0 0-.497-.107c-.196 0-.366.04-.512.122a.849.849 0 0 0-.336.336 1.067 1.067 0 0 0-.116.508h-.587c0-.299.069-.561.206-.787.138-.226.325-.402.562-.528.239-.126.506-.189.803-.189.298 0 .562.063.793.189.23.126.411.296.541.511.131.214.197.452.197.715 0 .187-.034.371-.102.55a2.405 2.405 0 0 1-.348.595c-.164.218-.392.484-.684.798l-1.143 1.225v.039h2.366v.549h-3.211Zm5.898.069c-.375 0-.694-.101-.957-.306-.264-.206-.465-.504-.604-.894-.139-.392-.209-.865-.209-1.42 0-.551.07-1.022.209-1.412.141-.392.343-.691.606-.897.266-.207.584-.311.955-.311s.688.104.952.311c.265.206.467.505.606.897.141.39.211.861.211 1.412 0 .555-.069 1.028-.209 1.42-.139.39-.34.688-.603.894-.264.205-.583.306-.957.306Zm0-.547c.371 0 .659-.18.865-.539.205-.358.308-.87.308-1.534 0-.441-.047-.818-.142-1.128-.093-.311-.227-.547-.403-.71a.883.883 0 0 0-.628-.244c-.368 0-.656.182-.863.545-.207.362-.31.875-.31 1.537 0 .442.046.817.139 1.126.093.309.226.544.4.705a.906.906 0 0 0 .634.242Z" />
            <path stroke="#F0F2F5" stroke-dasharray="4 4" d="M891.738 269.684h308.292" />
            <path fill="#475367"
                d="M878.617 243.211v-.508l2.237-3.547h.368v.787h-.249l-1.69 2.68v.04h3.012v.548h-3.678Zm2.396 1.046v-5.101h.587v5.101h-.587Zm3.874.07c-.375 0-.694-.102-.957-.307-.263-.205-.465-.504-.604-.894-.139-.392-.209-.865-.209-1.42 0-.551.07-1.021.209-1.412.141-.392.343-.691.606-.897.266-.207.584-.311.955-.311s.688.104.952.311c.265.206.467.505.606.897.141.391.211.861.211 1.412 0 .555-.069 1.028-.208 1.42-.14.39-.341.689-.604.894a1.513 1.513 0 0 1-.957.307Zm0-.548c.371 0 .659-.18.865-.538.205-.359.308-.87.308-1.535 0-.441-.047-.817-.142-1.128-.093-.31-.227-.547-.402-.71a.892.892 0 0 0-.629-.244c-.368 0-.655.182-.863.546-.207.361-.31.874-.31 1.536 0 .442.046.817.139 1.126.093.309.226.544.4.705a.906.906 0 0 0 .634.242Z" />
            <path stroke="#F0F2F5" stroke-dasharray="4 4" d="M891.738 241.627h308.292" />
            <path fill="#475367"
                d="M879.09 214.587a2.1 2.1 0 0 1 .072-.496 2.96 2.96 0 0 1 .226-.571c.106-.209.252-.451.438-.727l1.143-1.694h.676l-1.342 1.963c.059-.02.121-.037.184-.05a.975.975 0 0 1 .194-.02c.308 0 .583.072.825.215.243.142.435.337.574.585.141.247.211.529.211.844 0 .316-.07.596-.209.842-.137.246-.327.44-.569.58-.24.142-.514.212-.823.212-.311 0-.588-.072-.83-.216a1.566 1.566 0 0 1-.569-.598 1.767 1.767 0 0 1-.201-.869Zm.586.039c0 .216.044.407.13.573a.974.974 0 0 0 .358.391.973.973 0 0 0 .526.142.999.999 0 0 0 .527-.139.981.981 0 0 0 .358-.389c.086-.166.129-.356.129-.568 0-.215-.043-.406-.129-.57a.967.967 0 0 0-.885-.526.98.98 0 0 0-.526.14.946.946 0 0 0-.358.383 1.19 1.19 0 0 0-.13.563Zm5.212 1.644c-.374 0-.693-.102-.957-.306-.263-.206-.465-.504-.604-.895-.139-.391-.208-.865-.208-1.419 0-.552.069-1.022.208-1.413.141-.391.343-.69.607-.896.265-.208.583-.312.954-.312s.688.104.952.312c.265.206.467.505.606.896.141.391.212.861.212 1.413 0 .554-.07 1.028-.209 1.419-.139.391-.341.689-.604.895a1.518 1.518 0 0 1-.957.306Zm0-.548c.371 0 .659-.179.865-.538.205-.358.308-.87.308-1.534 0-.442-.047-.818-.142-1.128-.092-.311-.227-.548-.402-.711a.89.89 0 0 0-.629-.243c-.368 0-.655.181-.862.545-.207.362-.311.874-.311 1.537 0 .442.046.817.139 1.125.093.31.226.545.4.705a.902.902 0 0 0 .634.242Z" />
            <path stroke="#F0F2F5" stroke-dasharray="4 4" d="M891.738 213.57h308.292" />
            <path fill="#475367"
                d="M880.546 188.213a2.13 2.13 0 0 1-.904-.181 1.482 1.482 0 0 1-.609-.506 1.277 1.277 0 0 1-.217-.737 1.372 1.372 0 0 1 .127-.598c.086-.184.204-.338.353-.461.151-.124.319-.203.505-.236v-.03a.985.985 0 0 1-.582-.411 1.254 1.254 0 0 1-.214-.725 1.235 1.235 0 0 1 .197-.695 1.38 1.38 0 0 1 .546-.483c.234-.118.5-.177.798-.177.295 0 .559.059.79.177.232.118.415.279.547.483.134.204.202.436.204.695a1.267 1.267 0 0 1-.221.725.986.986 0 0 1-.574.411v.03c.184.033.349.112.497.236a1.39 1.39 0 0 1 .487 1.059 1.29 1.29 0 0 1-.224.737 1.489 1.489 0 0 1-.609.506 2.091 2.091 0 0 1-.897.181Zm0-.547c.23 0 .429-.038.597-.113a.883.883 0 0 0 .387-.316.921.921 0 0 0-.01-.989.998.998 0 0 0-.4-.348 1.247 1.247 0 0 0-.574-.128c-.217 0-.411.043-.581.128a.998.998 0 0 0-.4.348.892.892 0 0 0-.142.511.83.83 0 0 0 .132.478.88.88 0 0 0 .39.316c.169.075.369.113.601.113Zm0-2.421c.182 0 .344-.037.485-.11a.828.828 0 0 0 .335-.307.864.864 0 0 0 .125-.46.86.86 0 0 0-.122-.451.792.792 0 0 0-.331-.299 1.08 1.08 0 0 0-.492-.107c-.19 0-.357.036-.499.107a.77.77 0 0 0-.331.299.83.83 0 0 0-.114.451.843.843 0 0 0 .117.46.828.828 0 0 0 .335.307c.143.073.307.11.492.11Zm4.343 2.968c-.375 0-.694-.101-.957-.306-.264-.206-.465-.504-.604-.894-.139-.392-.209-.865-.209-1.42 0-.551.07-1.022.209-1.412.141-.392.343-.691.606-.897.265-.207.583-.311.955-.311.371 0 .688.104.951.311.265.206.468.505.607.897.141.39.211.861.211 1.412 0 .555-.07 1.028-.209 1.42-.139.39-.34.688-.604.894-.263.205-.582.306-.956.306Zm0-.547c.371 0 .659-.18.864-.539.206-.358.309-.869.309-1.534 0-.441-.048-.818-.142-1.128-.093-.31-.227-.547-.403-.71a.885.885 0 0 0-.628-.244c-.368 0-.656.182-.863.545-.207.362-.311.875-.311 1.537 0 .442.047.817.14 1.126.092.309.226.544.4.705a.905.905 0 0 0 .634.242Z" />
            <path stroke="#F0F2F5" stroke-dasharray="4 4" d="M891.738 185.514h308.292" />
            <path fill="#475367"
                d="M877.394 155.279v5.101h-.617v-4.204h-.039a.5.5 0 0 1-.179.159c-.096.058-.221.11-.373.155a1.92 1.92 0 0 1-.522.065v-.519c.197 0 .368-.036.512-.107.144-.071.264-.155.36-.251.098-.097.172-.184.222-.262l.089-.137h.547Zm3.119 5.171c-.375 0-.694-.102-.957-.307-.263-.205-.465-.503-.604-.894-.139-.392-.209-.865-.209-1.42 0-.551.07-1.021.209-1.412.141-.391.343-.691.606-.896.266-.208.584-.312.955-.312s.688.104.952.312c.265.205.467.505.606.896.141.391.211.861.211 1.412 0 .555-.069 1.028-.209 1.42-.139.391-.34.689-.603.894a1.513 1.513 0 0 1-.957.307Zm0-.548c.371 0 .659-.179.865-.538.205-.359.308-.87.308-1.535 0-.441-.047-.817-.142-1.128-.093-.31-.227-.547-.403-.71a.888.888 0 0 0-.628-.244c-.368 0-.656.182-.863.546-.207.361-.31.874-.31 1.536 0 .442.046.817.139 1.126.093.309.226.544.4.705a.906.906 0 0 0 .634.242Zm4.374.548c-.375 0-.694-.102-.957-.307-.263-.205-.465-.503-.604-.894-.139-.392-.209-.865-.209-1.42 0-.551.07-1.021.209-1.412.141-.391.343-.691.606-.896.266-.208.584-.312.955-.312s.688.104.952.312c.265.205.467.505.606.896.141.391.211.861.211 1.412 0 .555-.069 1.028-.209 1.42-.139.391-.34.689-.603.894a1.513 1.513 0 0 1-.957.307Zm0-.548c.371 0 .659-.179.865-.538.205-.359.308-.87.308-1.535 0-.441-.047-.817-.142-1.128-.093-.31-.227-.547-.402-.71a.892.892 0 0 0-.629-.244c-.368 0-.656.182-.863.546-.207.361-.31.874-.31 1.536 0 .442.046.817.139 1.126.093.309.226.544.4.705a.906.906 0 0 0 .634.242Z" />
            <path stroke="#F0F2F5" stroke-dasharray="4 4" d="M891.738 157.75h308.292" />
            <path fill="#3D89DF"
                d="M898.578 224.676c0-3.873 3.133-7.014 6.999-7.014h13.287c3.865 0 6.999 3.141 6.999 7.014v73.064h-27.285v-73.064Zm38.949 37.992c0-3.873 3.133-7.014 6.999-7.014h13.287c3.865 0 6.999 3.141 6.999 7.014v35.071h-27.285v-35.071Zm38.95-53.189c0-3.874 3.133-7.014 6.998-7.014h13.288c3.867 0 6.997 3.14 6.997 7.014v88.26h-27.283v-88.26Zm38.953 30.978c0-3.873 3.13-7.014 6.99-7.014h13.29c3.87 0 7 3.141 7 7.014v57.282h-27.28v-57.282Zm38.95-15.781c0-3.873 3.13-7.014 6.99-7.014h13.29c3.87 0 7 3.141 7 7.014v73.064h-27.28v-73.064Zm38.94 13.444c0-3.874 3.14-7.015 7-7.015h13.29c3.87 0 7 3.141 7 7.015v59.619h-27.29V238.12Zm38.95 2.337c0-3.873 3.13-7.014 7-7.014h13.29c3.86 0 6.99 3.141 6.99 7.014v57.282h-27.28v-57.282Zm38.95-54.943c0-3.873 3.13-7.014 7-7.014h13.28c3.87 0 7 3.141 7 7.014v112.225h-27.28V185.514Z" />
        </g>
    </g>
    <defs>
        <linearGradient id="c" x1="-151.293" x2="1191.58" y1="544.133" y2="99.331" gradientUnits="userSpaceOnUse">
            <stop stop-color="#fff" stop-opacity=".05" />
            <stop offset="1" stop-color="#fff" stop-opacity=".4" />
        </linearGradient>
        <linearGradient id="g" x1="873.654" x2="887.661" y1="117.124" y2="117.124" gradientUnits="userSpaceOnUse">
            <stop stop-color="#FFFCA8" />
            <stop offset=".312" stop-color="#FDB836" />
            <stop offset=".759" stop-color="#FDC966" />
            <stop offset="1" stop-color="#F1DC83" />
        </linearGradient>
        <linearGradient id="h" x1="874.822" x2="886.495" y1="117.125" y2="117.125" gradientUnits="userSpaceOnUse">
            <stop stop-color="#FFFCA8" />
            <stop offset=".312" stop-color="#FDB836" />
            <stop offset=".759" stop-color="#FDC966" />
            <stop offset="1" stop-color="#F1DC83" />
        </linearGradient>
        <linearGradient id="j" x1="880.658" x2="880.658" y1="112.451" y2="121.803" gradientUnits="userSpaceOnUse">
            <stop offset=".5" stop-opacity="0" />
            <stop offset=".776" stop-opacity=".2" />
        </linearGradient>
        <linearGradient id="k" x1="878.032" x2="883.284" y1="117.125" y2="117.125" gradientUnits="userSpaceOnUse">
            <stop stop-color="#AAA87D" />
            <stop offset=".312" stop-color="#B57B0E" />
            <stop offset=".759" stop-color="#A08042" />
            <stop offset="1" stop-color="#BCAC66" />
        </linearGradient>
        <radialGradient id="b" cx="0" cy="0" r="1"
            gradientTransform="matrix(638.88566 -186.58118 254.1086 870.11098 332.705 203.105)"
            gradientUnits="userSpaceOnUse">
            <stop stop-color="#ADE1FF" />
            <stop offset="1" stop-color="#EFD4FF" />
        </radialGradient>
        <radialGradient id="i" cx="0" cy="0" r="1" gradientTransform="matrix(5.24626 0 0 5.258 880.656 117.123)"
            gradientUnits="userSpaceOnUse">
            <stop stop-color="#fff" stop-opacity="0" />
            <stop offset="1" stop-color="#571600" />
        </radialGradient>
        <clipPath id="a">
            <rect width="1352" height="300" fill="#fff" rx="20" />
        </clipPath>
        <clipPath id="f">
            <rect width="368" height="332" x="848" y="54" fill="#fff" rx="20" />
        </clipPath>
        <filter id="d" width="2084.61" height="2118.77" x="-909.23" y="-563.676" color-interpolation-filters="sRGB"
            filterUnits="userSpaceOnUse">
            <feFlood flood-opacity="0" result="BackgroundImageFix" />
            <feBlend in="SourceGraphic" in2="BackgroundImageFix" result="shape" />
            <feGaussianBlur result="effect1_foregroundBlur_7454_9291" stdDeviation="152" />
        </filter>
        <filter id="e" width="1018.36" height="943.988" x="-157.254" y="-317" color-interpolation-filters="sRGB"
            filterUnits="userSpaceOnUse">
            <feFlood flood-opacity="0" result="BackgroundImageFix" />
            <feBlend in="SourceGraphic" in2="BackgroundImageFix" result="shape" />
            <feGaussianBlur result="effect1_foregroundBlur_7454_9291" stdDeviation="120" />
        </filter>
    </defs>
</svg>