<svg xmlns="http://www.w3.org/2000/svg" width="480" height="56" fill="none" viewBox="0 0 480 56">
    <path fill="#fff"
        d="M.5 12C.5 5.649 5.649.5 12 .5h456c6.351 0 11.5 5.149 11.5 11.5v32c0 6.351-5.149 11.5-11.5 11.5H12C5.649 55.5.5 50.351.5 44V12Z" />
    <path stroke="#D0D5DD"
        d="M.5 12C.5 5.649 5.649.5 12 .5h456c6.351 0 11.5 5.149 11.5 11.5v32c0 6.351-5.149 11.5-11.5 11.5H12C5.649 55.5.5 50.351.5 44V12Z" />
    <path fill="#1877F2"
        d="M158 28c0-6.627-5.373-12-12-12s-12 5.373-12 12c0 5.99 4.388 10.954 10.125 11.854V31.47h-3.047V28h3.047v-2.644c0-3.007 1.792-4.669 4.533-4.669 1.312 0 2.686.235 2.686.235v2.953h-1.513c-1.491 0-1.956.925-1.956 1.875V28h3.328l-.532 3.469h-2.796v8.385C153.612 38.954 158 33.99 158 28Z" />
    <path fill="#fff"
        d="m150.671 31.469.532-3.469h-3.328v-2.25c0-.95.465-1.875 1.956-1.875h1.513v-2.953s-1.374-.235-2.686-.235c-2.741 0-4.533 1.662-4.533 4.67V28h-3.047v3.469h3.047v8.385a12.13 12.13 0 0 0 3.75 0V31.47h2.796Z" />
    <path fill="#2B2B2B"
        d="M177.729 25.563c-.053-.497-.276-.883-.67-1.16-.39-.276-.898-.414-1.523-.414-.439 0-.816.066-1.13.198-.315.133-.555.313-.722.54a1.312 1.312 0 0 0-.256.779c0 .242.055.452.165.63.114.178.267.33.46.455.193.121.407.223.642.307.235.083.472.153.711.21l1.09.273c.44.102.862.24 1.267.415.41.174.775.393 1.097.659.326.265.583.585.773.96.189.375.284.814.284 1.318 0 .682-.174 1.282-.523 1.801-.348.515-.852.919-1.511 1.21-.655.288-1.449.432-2.381.432-.905 0-1.691-.14-2.358-.42-.663-.28-1.182-.69-1.557-1.228-.371-.537-.572-1.193-.602-1.965h2.074c.03.405.155.742.375 1.01.22.27.506.47.858.603a3.39 3.39 0 0 0 1.193.199c.458 0 .86-.068 1.205-.205.348-.14.621-.333.818-.58a1.4 1.4 0 0 0 .301-.874c-.004-.303-.093-.553-.267-.75-.174-.2-.419-.367-.733-.5a7.057 7.057 0 0 0-1.091-.364l-1.324-.34c-.958-.247-1.716-.62-2.273-1.12-.553-.504-.829-1.172-.829-2.006 0-.685.186-1.286.557-1.8.375-.516.884-.915 1.528-1.2.644-.287 1.373-.431 2.188-.431.825 0 1.549.144 2.17.431.625.285 1.116.68 1.472 1.188.356.504.539 1.083.551 1.738h-2.029ZM181.705 34v-8.727h2.057V34h-2.057Zm1.034-9.966c-.325 0-.606-.108-.841-.324a1.047 1.047 0 0 1-.352-.79c0-.31.118-.573.352-.79.235-.219.516-.329.841-.329.33 0 .61.11.841.33.235.216.353.479.353.79 0 .306-.118.57-.353.79a1.186 1.186 0 0 1-.841.323Zm6.934 13.42c-.739 0-1.374-.1-1.904-.3-.53-.198-.956-.463-1.278-.796a2.755 2.755 0 0 1-.671-1.108l1.853-.449c.083.17.204.34.363.506.159.17.373.31.642.42.273.114.616.17 1.029.17.583 0 1.066-.141 1.449-.425.382-.28.573-.743.573-1.387v-1.653h-.102c-.106.212-.261.43-.466.653a2.388 2.388 0 0 1-.801.563c-.329.151-.744.227-1.244.227a3.584 3.584 0 0 1-1.824-.472c-.542-.318-.974-.791-1.296-1.42-.318-.633-.477-1.424-.477-2.375 0-.958.159-1.767.477-2.426.322-.663.756-1.165 1.302-1.506a3.34 3.34 0 0 1 1.823-.517c.512 0 .932.087 1.262.262.333.17.598.376.795.619.197.238.347.464.449.676h.114v-1.443h2.028v8.869c0 .746-.178 1.364-.534 1.852-.356.489-.843.855-1.46 1.097-.618.242-1.318.364-2.102.364Zm.017-5.193c.435 0 .806-.106 1.113-.318.307-.212.54-.517.699-.915.159-.397.239-.875.239-1.431 0-.55-.08-1.03-.239-1.444-.155-.412-.386-.732-.693-.96-.303-.23-.676-.346-1.119-.346-.459 0-.841.119-1.148.357-.307.24-.538.567-.693.983a3.967 3.967 0 0 0-.233 1.41c0 .534.077 1.002.233 1.403.159.398.392.708.699.932.31.22.691.33 1.142.33Zm8.244-3.375V34h-2.057v-8.727h1.966v1.483h.102c.201-.489.521-.877.961-1.165.443-.288.99-.432 1.642-.432.602 0 1.126.129 1.573.387.451.257.8.63 1.046 1.119.25.488.373 1.081.369 1.778V34h-2.057v-5.239c0-.583-.151-1.04-.454-1.369-.299-.33-.714-.494-1.244-.494-.36 0-.68.08-.961.238a1.66 1.66 0 0 0-.653.677c-.155.295-.233.653-.233 1.073Zm13.256 1.444v-5.057h2.056V34h-1.994v-1.551h-.091a2.628 2.628 0 0 1-.971 1.199c-.447.31-.998.466-1.654.466-.572 0-1.077-.127-1.517-.381a2.655 2.655 0 0 1-1.023-1.12c-.246-.492-.369-1.087-.369-1.784v-5.556h2.057v5.238c0 .553.151.993.454 1.319.304.325.701.488 1.194.488.303 0 .596-.074.88-.221.284-.148.517-.368.699-.66.186-.295.279-.664.279-1.108Zm4.172 6.943v-12h2.022v1.443h.12c.106-.212.255-.438.448-.676.194-.243.455-.45.785-.62.329-.174.75-.26 1.261-.26.674 0 1.282.171 1.824.516.545.341.977.847 1.295 1.517.322.667.483 1.485.483 2.455 0 .958-.157 1.773-.471 2.443-.315.67-.743 1.182-1.285 1.534a3.299 3.299 0 0 1-1.84.528c-.5 0-.915-.083-1.245-.25a2.538 2.538 0 0 1-.795-.602 3.848 3.848 0 0 1-.46-.676h-.086v4.648h-2.056Zm2.017-7.637c0 .565.079 1.06.238 1.483.163.425.396.756.699.995.307.235.678.352 1.114.352.454 0 .835-.121 1.142-.364.307-.246.538-.581.693-1.005.159-.428.239-.915.239-1.46 0-.542-.078-1.023-.233-1.444-.156-.42-.387-.75-.694-.989-.306-.238-.689-.357-1.147-.357-.44 0-.813.115-1.12.346-.306.231-.539.555-.698.972-.156.416-.233.907-.233 1.471ZM231.131 34l-2.466-8.727h2.097l1.534 6.136h.08l1.568-6.136h2.074l1.568 6.102h.085l1.512-6.102h2.102L238.813 34h-2.142l-1.636-5.898h-.12L233.279 34h-2.148Zm11.59 0v-8.727h2.057V34h-2.057Zm1.034-9.966a1.2 1.2 0 0 1-.841-.324 1.043 1.043 0 0 1-.352-.79c0-.31.117-.573.352-.79.235-.219.515-.329.841-.329.33 0 .61.11.841.33.235.216.352.479.352.79 0 .306-.117.57-.352.79a1.186 1.186 0 0 1-.841.323Zm7.496 1.239v1.59h-5.017v-1.59h5.017Zm-3.779-2.091h2.057v8.193c0 .276.042.489.125.636a.675.675 0 0 0 .341.296c.14.053.295.08.466.08.129 0 .246-.01.352-.029.11-.019.193-.036.25-.051l.347 1.608c-.11.038-.267.08-.472.125a3.87 3.87 0 0 1-.738.08 3.349 3.349 0 0 1-1.392-.234 2.163 2.163 0 0 1-.983-.806c-.239-.364-.356-.819-.353-1.364v-8.534Zm7.743 5.704V34h-2.057V22.364h2.012v4.392h.102c.205-.493.521-.881.949-1.165.432-.288.981-.432 1.648-.432.606 0 1.134.127 1.585.38.451.255.799.626 1.045 1.114.25.489.375 1.086.375 1.79V34h-2.057v-5.239c0-.587-.151-1.043-.454-1.369-.299-.33-.72-.494-1.261-.494a2 2 0 0 0-.978.238 1.67 1.67 0 0 0-.67.677c-.159.295-.239.653-.239 1.073ZM267.031 34V22.364h7.454v1.767h-5.347v3.159h4.836v1.767h-4.836V34h-2.107Zm11.717.176a3.639 3.639 0 0 1-1.494-.295 2.44 2.44 0 0 1-1.046-.887c-.254-.39-.381-.87-.381-1.443 0-.492.091-.9.273-1.221.182-.322.43-.58.744-.773a3.764 3.764 0 0 1 1.063-.438 8.657 8.657 0 0 1 1.233-.221c.511-.053.926-.1 1.244-.142.318-.046.549-.114.693-.205.148-.095.222-.24.222-.437v-.035c0-.428-.127-.759-.381-.994-.253-.235-.619-.352-1.096-.352-.504 0-.904.11-1.199.33-.292.22-.489.479-.591.778l-1.92-.273c.151-.53.401-.973.75-1.33.348-.36.774-.628 1.278-.806a4.893 4.893 0 0 1 1.67-.273c.421 0 .839.05 1.256.148.417.098.797.261 1.142.489.345.223.621.528.83.914.212.387.318.87.318 1.45V34h-1.977v-1.199h-.069c-.125.243-.301.47-.528.682a2.548 2.548 0 0 1-.847.506 3.411 3.411 0 0 1-1.187.187Zm.534-1.511c.413 0 .771-.082 1.074-.245a1.8 1.8 0 0 0 .699-.659c.166-.272.25-.57.25-.892v-1.028a.979.979 0 0 1-.33.148 4.64 4.64 0 0 1-.511.119c-.19.034-.377.064-.563.09l-.483.069c-.306.042-.581.11-.824.205a1.368 1.368 0 0 0-.573.397c-.141.167-.211.383-.211.648 0 .379.139.665.415.858.277.193.629.29 1.057.29Zm9.949 1.505c-.871 0-1.619-.19-2.244-.573a3.828 3.828 0 0 1-1.438-1.586c-.333-.678-.5-1.458-.5-2.34 0-.887.17-1.67.511-2.347a3.813 3.813 0 0 1 1.444-1.591c.625-.383 1.363-.574 2.215-.574.709 0 1.336.13 1.881.392.549.258.987.623 1.313 1.097.325.47.511 1.019.556 1.648h-1.965a1.882 1.882 0 0 0-.569-1.052c-.295-.284-.691-.426-1.187-.426-.421 0-.79.114-1.108.341-.318.224-.566.546-.744.966-.175.42-.262.924-.262 1.511 0 .595.087 1.106.262 1.535.174.424.418.751.733.982a1.87 1.87 0 0 0 1.119.341c.303 0 .574-.056.812-.17.243-.118.445-.286.608-.506a1.95 1.95 0 0 0 .336-.801h1.965a3.429 3.429 0 0 1-.545 1.642 3.224 3.224 0 0 1-1.284 1.114c-.542.265-1.178.397-1.909.397Zm9.291 0c-.875 0-1.631-.181-2.267-.545a3.692 3.692 0 0 1-1.46-1.557c-.341-.674-.512-1.468-.512-2.38 0-.898.171-1.686.512-2.364a3.864 3.864 0 0 1 1.443-1.591c.617-.383 1.343-.574 2.176-.574.538 0 1.046.087 1.523.262.481.17.905.435 1.273.795.371.36.662.818.875 1.375.212.553.318 1.212.318 1.977v.63h-7.154v-1.386h5.182a2.211 2.211 0 0 0-.256-1.05 1.854 1.854 0 0 0-.698-.734 1.97 1.97 0 0 0-1.035-.267 2 2 0 0 0-1.107.307c-.319.2-.567.466-.745.796a2.295 2.295 0 0 0-.267 1.073v1.21c0 .508.093.944.279 1.308.185.36.445.636.778.83.333.189.723.283 1.17.283.3 0 .571-.041.813-.125.242-.087.453-.214.631-.38.178-.167.312-.374.403-.62l1.92.216a2.99 2.99 0 0 1-.693 1.33 3.38 3.38 0 0 1-1.295.875c-.527.204-1.129.306-1.807.306Zm5.712-.17V22.364h2.056v4.352h.086c.106-.212.255-.438.449-.676.193-.243.454-.45.784-.62.329-.174.75-.26 1.261-.26.674 0 1.282.171 1.824.516.545.341.977.847 1.295 1.517.322.667.483 1.485.483 2.455 0 .958-.157 1.773-.471 2.443-.315.67-.743 1.182-1.284 1.534a3.304 3.304 0 0 1-1.841.528c-.5 0-.915-.083-1.245-.25a2.538 2.538 0 0 1-.795-.602 3.903 3.903 0 0 1-.46-.676h-.12V34h-2.022Zm2.017-4.364c0 .565.079 1.06.238 1.483.163.425.396.756.699.995.307.235.678.352 1.114.352.454 0 .835-.121 1.142-.364.307-.246.538-.581.693-1.005.159-.428.239-.915.239-1.46 0-.542-.078-1.023-.233-1.444-.156-.42-.387-.75-.693-.989-.307-.238-.69-.357-1.148-.357-.44 0-.813.115-1.119.346-.307.231-.54.555-.699.972-.156.416-.233.907-.233 1.471Zm11.777 4.534c-.853 0-1.591-.187-2.216-.562a3.823 3.823 0 0 1-1.455-1.574c-.341-.674-.511-1.462-.511-2.363 0-.902.17-1.692.511-2.37a3.815 3.815 0 0 1 1.455-1.58c.625-.374 1.363-.562 2.216-.562.852 0 1.591.188 2.216.563a3.767 3.767 0 0 1 1.448 1.58c.345.677.518 1.467.518 2.369 0 .901-.173 1.689-.518 2.363a3.775 3.775 0 0 1-1.448 1.574c-.625.375-1.364.563-2.216.563Zm.011-1.647c.462 0 .849-.127 1.159-.381.311-.258.542-.602.693-1.034.156-.432.233-.913.233-1.443 0-.534-.077-1.017-.233-1.45-.151-.435-.382-.781-.693-1.039-.31-.257-.697-.386-1.159-.386-.473 0-.867.129-1.182.386-.31.258-.543.604-.699 1.04a4.369 4.369 0 0 0-.227 1.449c0 .53.076 1.011.227 1.443.156.432.389.776.699 1.034.315.254.709.38 1.182.38Zm9.723 1.647c-.852 0-1.591-.187-2.216-.562a3.814 3.814 0 0 1-1.454-1.574c-.341-.674-.512-1.462-.512-2.363 0-.902.171-1.692.512-2.37a3.806 3.806 0 0 1 1.454-1.58c.625-.374 1.364-.562 2.216-.562.852 0 1.591.188 2.216.563a3.775 3.775 0 0 1 1.449 1.58c.345.677.517 1.467.517 2.369 0 .901-.172 1.689-.517 2.363a3.783 3.783 0 0 1-1.449 1.574c-.625.375-1.364.563-2.216.563Zm.011-1.647c.463 0 .849-.127 1.16-.381.31-.258.541-.602.693-1.034.155-.432.233-.913.233-1.443 0-.534-.078-1.017-.233-1.45-.152-.435-.383-.781-.693-1.039-.311-.257-.697-.386-1.16-.386-.473 0-.867.129-1.181.386-.311.258-.544.604-.699 1.04a4.343 4.343 0 0 0-.228 1.449c0 .53.076 1.011.228 1.443.155.432.388.776.699 1.034.314.254.708.38 1.181.38Zm7.792-1.262-.006-2.483h.329l3.137-3.505h2.403l-3.858 4.295h-.426l-1.579 1.693ZM333.69 34V22.364h2.056V34h-2.056Zm5.477 0-2.841-3.972 1.386-1.448 3.915 5.42h-2.46Z" />
</svg>