<svg xmlns="http://www.w3.org/2000/svg" width="480" height="56" fill="none" viewBox="0 0 480 56">
  <path fill="#fff" d="M.5 12C.5 5.649 5.649.5 12 .5h456c6.351 0 11.5 5.149 11.5 11.5v32c0 6.351-5.149 11.5-11.5 11.5H12C5.649 55.5.5 50.351.5 44V12Z"/>
  <path stroke="#D0D5DD" d="M.5 12C.5 5.649 5.649.5 12 .5h456c6.351 0 11.5 5.149 11.5 11.5v32c0 6.351-5.149 11.5-11.5 11.5H12C5.649 55.5.5 50.351.5 44V12Z"/>
  <path fill="#4285F4" d="M168.264 28.276c0-.816-.066-1.636-.207-2.438h-11.319v4.62h6.482a5.553 5.553 0 0 1-2.399 3.647v2.999h3.867c2.271-2.09 3.576-5.177 3.576-8.828Z"/>
  <path fill="#34A853" d="M156.739 40.001c3.237 0 5.966-1.062 7.955-2.897l-3.867-2.998c-1.076.732-2.465 1.146-4.083 1.146-3.131 0-5.786-2.112-6.738-4.951h-3.99v3.09a12 12 0 0 0 10.723 6.61Z"/>
  <path fill="#FBBC04" d="M150.001 30.3a7.183 7.183 0 0 1 0-4.594v-3.09h-3.986a12.01 12.01 0 0 0 0 10.776l3.986-3.091Z"/>
  <path fill="#EA4335" d="M156.739 20.75a6.52 6.52 0 0 1 4.603 1.799l3.427-3.426a11.535 11.535 0 0 0-8.03-3.122 11.997 11.997 0 0 0-10.723 6.614l3.986 3.09c.948-2.843 3.606-4.955 6.737-4.955Z"/>
  <path fill="#2B2B2B" d="M188.058 25.563c-.054-.497-.277-.883-.671-1.16-.39-.276-.898-.414-1.523-.414-.439 0-.816.066-1.13.198-.315.133-.555.313-.722.54a1.312 1.312 0 0 0-.256.779c0 .242.055.452.165.63.114.178.267.33.46.455.194.121.408.223.642.307.235.083.472.153.711.21l1.091.273c.439.102.861.24 1.267.415a4.43 4.43 0 0 1 1.096.659c.326.265.584.585.773.96.189.375.284.814.284 1.318 0 .682-.174 1.282-.523 1.801-.348.515-.852.919-1.511 1.21-.655.288-1.449.432-2.381.432-.905 0-1.691-.14-2.358-.42-.663-.28-1.182-.69-1.557-1.228-.371-.537-.571-1.193-.602-1.965h2.074c.03.405.155.742.375 1.01.22.27.506.47.858.603a3.39 3.39 0 0 0 1.193.199c.459 0 .86-.068 1.205-.205.348-.14.621-.333.818-.58a1.4 1.4 0 0 0 .301-.874c-.004-.303-.093-.553-.267-.75-.174-.2-.419-.367-.733-.5a7.057 7.057 0 0 0-1.091-.364l-1.324-.34c-.958-.247-1.716-.62-2.272-1.12-.553-.504-.83-1.172-.83-2.006 0-.685.186-1.286.557-1.8.375-.516.884-.915 1.528-1.2.644-.287 1.373-.431 2.188-.431.826 0 1.549.144 2.17.431.625.285 1.116.68 1.472 1.188.356.504.54 1.083.551 1.738h-2.028ZM192.033 34v-8.727h2.057V34h-2.057Zm1.034-9.966c-.325 0-.606-.108-.84-.324a1.044 1.044 0 0 1-.353-.79c0-.31.118-.573.353-.79.234-.219.515-.329.84-.329.33 0 .61.11.841.33.235.216.353.479.353.79 0 .306-.118.57-.353.79a1.186 1.186 0 0 1-.841.323Zm6.934 13.42c-.739 0-1.373-.1-1.904-.3-.53-.198-.956-.463-1.278-.796a2.755 2.755 0 0 1-.671-1.108l1.853-.449c.083.17.204.34.363.506.159.17.373.31.642.42.273.114.616.17 1.029.17.583 0 1.066-.141 1.449-.425.382-.28.574-.743.574-1.387v-1.653h-.103c-.106.212-.261.43-.466.653a2.37 2.37 0 0 1-.801.563c-.329.151-.744.227-1.244.227a3.584 3.584 0 0 1-1.824-.472c-.542-.318-.973-.791-1.295-1.42-.319-.633-.478-1.424-.478-2.375 0-.958.159-1.767.478-2.426.322-.663.755-1.165 1.301-1.506a3.342 3.342 0 0 1 1.824-.517c.511 0 .931.087 1.261.262.333.17.598.376.795.619.197.238.347.464.449.676h.114v-1.443h2.028v8.869c0 .746-.178 1.364-.534 1.852-.356.489-.843.855-1.46 1.097s-1.318.364-2.102.364Zm.017-5.193c.435 0 .807-.106 1.113-.318.307-.212.54-.517.699-.915.159-.397.239-.875.239-1.431 0-.55-.08-1.03-.239-1.444-.155-.412-.386-.732-.693-.96-.303-.23-.676-.346-1.119-.346-.459 0-.841.119-1.148.357-.307.24-.538.567-.693.983a3.99 3.99 0 0 0-.233 1.41c0 .534.078 1.002.233 1.403.159.398.392.708.699.932.31.22.691.33 1.142.33Zm8.244-3.375V34h-2.057v-8.727h1.966v1.483h.102c.201-.489.521-.877.961-1.165.443-.288.99-.432 1.642-.432.602 0 1.127.129 1.574.387.45.257.799.63 1.045 1.119.25.488.373 1.081.369 1.778V34h-2.056v-5.239c0-.583-.152-1.04-.455-1.369-.299-.33-.714-.494-1.244-.494-.36 0-.68.08-.961.238a1.66 1.66 0 0 0-.653.677c-.155.295-.233.653-.233 1.073Zm13.256 1.444v-5.057h2.057V34h-1.995v-1.551h-.091c-.197.489-.52.888-.971 1.199-.447.31-.998.466-1.654.466-.572 0-1.077-.127-1.517-.381a2.647 2.647 0 0 1-1.022-1.12c-.247-.492-.37-1.087-.37-1.784v-5.556h2.057v5.238c0 .553.152.993.455 1.319.303.325.7.488 1.193.488.303 0 .596-.074.88-.221a1.78 1.78 0 0 0 .699-.66c.186-.295.279-.664.279-1.108Zm4.172 6.943v-12h2.022v1.443h.12c.106-.212.255-.438.449-.676.193-.243.454-.45.784-.62.329-.174.75-.26 1.261-.26.674 0 1.282.171 1.824.516.545.341.977.847 1.295 1.517.322.667.483 1.485.483 2.455 0 .958-.157 1.773-.471 2.443-.315.67-.743 1.182-1.284 1.534a3.304 3.304 0 0 1-1.841.528c-.5 0-.915-.083-1.245-.25a2.538 2.538 0 0 1-.795-.602 3.903 3.903 0 0 1-.46-.676h-.086v4.648h-2.056Zm2.017-7.637c0 .565.079 1.06.238 1.483.163.425.396.756.699.995.307.235.678.352 1.114.352.454 0 .835-.121 1.142-.364.307-.246.538-.581.693-1.005.159-.428.239-.915.239-1.46 0-.542-.078-1.023-.233-1.444-.156-.42-.387-.75-.693-.989-.307-.238-.69-.357-1.148-.357-.44 0-.813.115-1.12.346-.306.231-.539.555-.698.972-.156.416-.233.907-.233 1.471ZM241.46 34l-2.466-8.727h2.096l1.534 6.136h.08l1.568-6.136h2.074l1.568 6.102h.085l1.512-6.102h2.102L249.141 34h-2.142l-1.636-5.898h-.119L243.607 34h-2.147Zm11.589 0v-8.727h2.057V34h-2.057Zm1.034-9.966a1.2 1.2 0 0 1-.841-.324 1.043 1.043 0 0 1-.352-.79c0-.31.117-.573.352-.79.235-.219.515-.329.841-.329.33 0 .61.11.841.33.235.216.352.479.352.79 0 .306-.117.57-.352.79a1.186 1.186 0 0 1-.841.323Zm7.496 1.239v1.59h-5.017v-1.59h5.017Zm-3.779-2.091h2.057v8.193c0 .276.042.489.125.636a.675.675 0 0 0 .341.296c.14.053.296.08.466.08.129 0 .246-.01.352-.029a3.08 3.08 0 0 0 .25-.051l.347 1.608c-.11.038-.267.08-.472.125a3.86 3.86 0 0 1-.738.08 3.355 3.355 0 0 1-1.392-.234 2.163 2.163 0 0 1-.983-.806c-.239-.364-.356-.819-.353-1.364v-8.534Zm7.743 5.704V34h-2.056V22.364h2.011v4.392h.102c.205-.493.521-.881.949-1.165.432-.288.981-.432 1.648-.432.606 0 1.134.127 1.585.38.451.255.799.626 1.045 1.114.25.489.375 1.086.375 1.79V34h-2.056v-5.239c0-.587-.152-1.043-.455-1.369-.299-.33-.72-.494-1.261-.494a2 2 0 0 0-.978.238 1.67 1.67 0 0 0-.67.677c-.159.295-.239.653-.239 1.073Zm19.611-2.806a3.01 3.01 0 0 0-.392-.824 2.538 2.538 0 0 0-.591-.631 2.374 2.374 0 0 0-.784-.392 3.264 3.264 0 0 0-.966-.136 3.02 3.02 0 0 0-1.67.471c-.489.315-.873.777-1.154 1.386-.276.607-.414 1.345-.414 2.216 0 .88.138 1.624.414 2.233.277.61.661 1.074 1.154 1.393.492.314 1.064.471 1.716.471.591 0 1.102-.114 1.534-.34.435-.228.771-.55 1.005-.967.235-.42.353-.913.353-1.477l.477.074h-3.159v-1.648h4.721v1.398c0 .996-.212 1.858-.636 2.585a4.35 4.35 0 0 1-1.75 1.682c-.742.39-1.595.585-2.557.585-1.072 0-2.013-.24-2.824-.721-.806-.485-1.437-1.173-1.892-2.063-.45-.894-.676-1.954-.676-3.182 0-.94.133-1.778.398-2.517.269-.738.644-1.365 1.125-1.88a4.784 4.784 0 0 1 1.693-1.182 5.392 5.392 0 0 1 2.114-.41c.644 0 1.244.095 1.801.285.557.185 1.051.45 1.483.795a4.336 4.336 0 0 1 1.625 2.796h-2.148Zm7.999 8.09c-.853 0-1.591-.187-2.216-.562a3.823 3.823 0 0 1-1.455-1.574c-.341-.674-.511-1.462-.511-2.363 0-.902.17-1.692.511-2.37a3.815 3.815 0 0 1 1.455-1.58c.625-.374 1.363-.562 2.216-.562.852 0 1.591.188 2.216.563a3.767 3.767 0 0 1 1.448 1.58c.345.677.518 1.467.518 2.369 0 .901-.173 1.689-.518 2.363a3.775 3.775 0 0 1-1.448 1.574c-.625.375-1.364.563-2.216.563Zm.011-1.647c.462 0 .849-.127 1.159-.381.311-.258.542-.602.693-1.034.156-.432.233-.913.233-1.443 0-.534-.077-1.017-.233-1.45-.151-.435-.382-.781-.693-1.039-.31-.257-.697-.386-1.159-.386-.473 0-.867.129-1.182.386-.31.258-.543.604-.699 1.04a4.369 4.369 0 0 0-.227 1.449c0 .53.076 1.011.227 1.443.156.432.389.776.699 1.034.315.254.709.38 1.182.38Zm9.723 1.647c-.852 0-1.591-.187-2.216-.562a3.814 3.814 0 0 1-1.454-1.574c-.341-.674-.512-1.462-.512-2.363 0-.902.171-1.692.512-2.37a3.806 3.806 0 0 1 1.454-1.58c.625-.374 1.364-.562 2.216-.562.852 0 1.591.188 2.216.563a3.775 3.775 0 0 1 1.449 1.58c.345.677.517 1.467.517 2.369 0 .901-.172 1.689-.517 2.363a3.783 3.783 0 0 1-1.449 1.574c-.625.375-1.364.563-2.216.563Zm.011-1.647c.463 0 .849-.127 1.16-.381.31-.258.541-.602.693-1.034.155-.432.233-.913.233-1.443 0-.534-.078-1.017-.233-1.45-.152-.435-.383-.781-.693-1.039-.311-.257-.697-.386-1.16-.386-.473 0-.867.129-1.181.386-.311.258-.544.604-.699 1.04a4.343 4.343 0 0 0-.228 1.449c0 .53.076 1.011.228 1.443.155.432.388.776.699 1.034.314.254.708.38 1.181.38Zm9.712 4.931c-.739 0-1.373-.1-1.903-.3-.531-.198-.957-.463-1.279-.796a2.753 2.753 0 0 1-.67-1.108l1.852-.449c.083.17.205.34.364.506.159.17.373.31.642.42.272.114.615.17 1.028.17.584 0 1.066-.141 1.449-.425.383-.28.574-.743.574-1.387v-1.653h-.102c-.106.212-.262.43-.466.653a2.388 2.388 0 0 1-.801.563c-.33.151-.745.227-1.245.227a3.59 3.59 0 0 1-1.824-.472c-.541-.318-.973-.791-1.295-1.42-.318-.633-.477-1.424-.477-2.375 0-.958.159-1.767.477-2.426.322-.663.756-1.165 1.301-1.506a3.344 3.344 0 0 1 1.824-.517c.511 0 .932.087 1.261.262.334.17.599.376.796.619.197.238.346.464.449.676h.113v-1.443h2.029v8.869c0 .746-.178 1.364-.534 1.852-.356.489-.843.855-1.461 1.097-.617.242-1.318.364-2.102.364Zm.017-5.193c.436 0 .807-.106 1.114-.318.307-.212.54-.517.699-.915.159-.397.238-.875.238-1.431 0-.55-.079-1.03-.238-1.444-.156-.412-.387-.732-.694-.96-.303-.23-.676-.346-1.119-.346-.458 0-.841.119-1.148.357-.306.24-.537.567-.693.983a3.99 3.99 0 0 0-.233 1.41c0 .534.078 1.002.233 1.403.159.398.392.708.699.932.311.22.691.33 1.142.33Zm8.244-9.897V34h-2.056V22.364h2.056Zm5.979 11.806c-.875 0-1.631-.181-2.267-.545a3.698 3.698 0 0 1-1.46-1.557c-.341-.674-.511-1.468-.511-2.38 0-.898.17-1.686.511-2.364a3.87 3.87 0 0 1 1.443-1.591c.617-.383 1.343-.574 2.176-.574.538 0 1.046.087 1.523.262.481.17.905.435 1.273.795.371.36.663.818.875 1.375.212.553.318 1.212.318 1.977v.63h-7.154v-1.386h5.182a2.222 2.222 0 0 0-.255-1.05 1.863 1.863 0 0 0-.699-.734 1.966 1.966 0 0 0-1.034-.267c-.421 0-.79.103-1.108.307-.319.2-.567.466-.745.796a2.295 2.295 0 0 0-.267 1.073v1.21c0 .508.093.944.279 1.308.185.36.445.636.778.83.333.189.724.283 1.171.283.299 0 .57-.041.812-.125.242-.087.453-.214.631-.38.178-.167.312-.374.403-.62l1.921.216c-.122.508-.353.95-.694 1.33a3.38 3.38 0 0 1-1.295.875c-.527.204-1.129.306-1.807.306Z"/>
</svg>
