<svg xmlns="http://www.w3.org/2000/svg" width="480" height="56" fill="none" viewBox="0 0 480 56">
    <path fill="#fff"
        d="M.5 12C.5 5.649 5.649.5 12 .5h456c6.351 0 11.5 5.149 11.5 11.5v32c0 6.351-5.149 11.5-11.5 11.5H12C5.649 55.5.5 50.351.5 44V12Z" />
    <path stroke="#D0D5DD"
        d="M.5 12C.5 5.649 5.649.5 12 .5h456c6.351 0 11.5 5.149 11.5 11.5v32c0 6.351-5.149 11.5-11.5 11.5H12C5.649 55.5.5 50.351.5 44V12Z" />
    <g clip-path="url(#a)">
        <path fill="url(#b)"
            d="M135.005 13.45a7.548 7.548 0 0 0-2.725 1.776 7.524 7.524 0 0 0-1.775 2.719c-.381.974-.637 2.093-.712 3.73-.075 1.638-.094 2.163-.094 6.338 0 4.175.019 4.7.094 6.338.075 1.637.337 2.756.712 3.731a7.545 7.545 0 0 0 1.775 2.725 7.548 7.548 0 0 0 2.725 1.775c.975.381 2.094.637 3.732.712 1.637.076 2.162.094 6.337.094s4.7-.018 6.338-.093c1.637-.076 2.756-.338 3.731-.713a7.54 7.54 0 0 0 2.725-1.775 7.545 7.545 0 0 0 1.775-2.725c.381-.975.637-2.094.712-3.731.075-1.638.094-2.163.094-6.338 0-4.175-.019-4.7-.094-6.337-.075-1.638-.337-2.756-.712-3.731a7.585 7.585 0 0 0-1.769-2.72 7.532 7.532 0 0 0-2.725-1.774c-.975-.382-2.094-.638-3.731-.713-1.638-.075-2.163-.093-6.338-.093-4.175 0-4.7.018-6.337.093-1.644.069-2.763.332-3.738.713Zm16.282 2.05c1.5.07 2.312.32 2.856.532a4.793 4.793 0 0 1 1.769 1.15c.537.538.868 1.05 1.15 1.769.212.543.462 1.356.531 2.856.075 1.619.087 2.106.087 6.213 0 4.106-.018 4.593-.087 6.212-.069 1.5-.319 2.313-.531 2.856a4.805 4.805 0 0 1-1.15 1.769 4.792 4.792 0 0 1-1.769 1.15c-.544.212-1.356.462-2.856.531-1.619.075-2.107.088-6.213.088s-4.594-.019-6.212-.088c-1.5-.069-2.313-.319-2.857-.531a4.788 4.788 0 0 1-1.768-1.15 4.78 4.78 0 0 1-1.15-1.769c-.213-.544-.463-1.356-.532-2.856-.075-1.619-.087-2.106-.087-6.212 0-4.107.019-4.594.087-6.213.069-1.5.319-2.313.532-2.856a4.78 4.78 0 0 1 1.15-1.769 4.79 4.79 0 0 1 1.768-1.15c.544-.213 1.357-.463 2.857-.531 1.618-.075 2.106-.088 6.212-.088s4.594.013 6.213.088Z" />
        <path fill="url(#c)"
            d="M137.18 28.019a7.894 7.894 0 1 0 7.893-7.894 7.89 7.89 0 0 0-7.893 7.894Zm13.018 0a5.123 5.123 0 0 1-5.125 5.125 5.124 5.124 0 0 1-5.125-5.125 5.124 5.124 0 0 1 5.125-5.125 5.123 5.123 0 0 1 5.125 5.125Z" />
        <path fill="#654C9F" d="M153.285 21.656a1.844 1.844 0 1 0 0-3.688 1.844 1.844 0 0 0 0 3.688Z" />
    </g>
    <path fill="#2B2B2B"
        d="M176.698 25.563c-.053-.497-.276-.883-.67-1.16-.39-.276-.898-.414-1.523-.414-.439 0-.816.066-1.131.198-.314.133-.555.313-.721.54a1.312 1.312 0 0 0-.256.779c0 .242.055.452.165.63a1.5 1.5 0 0 0 .46.455c.193.121.407.223.642.307.235.083.472.153.71.21l1.091.273c.44.102.862.24 1.267.415a4.47 4.47 0 0 1 1.097.659c.326.265.583.585.773.96.189.375.284.814.284 1.318 0 .682-.175 1.282-.523 1.801-.349.515-.852.919-1.511 1.21-.656.288-1.449.432-2.381.432-.905 0-1.691-.14-2.358-.42-.663-.28-1.182-.69-1.557-1.228-.371-.537-.572-1.193-.602-1.965h2.074c.03.405.155.742.375 1.01.219.27.505.47.858.603.356.133.753.199 1.193.199.458 0 .86-.068 1.204-.205.349-.14.622-.333.819-.58a1.4 1.4 0 0 0 .301-.874c-.004-.303-.093-.553-.267-.75-.175-.2-.419-.367-.733-.5a7.093 7.093 0 0 0-1.091-.364l-1.324-.34c-.958-.247-1.716-.62-2.273-1.12-.553-.504-.829-1.172-.829-2.006 0-.685.185-1.286.556-1.8.375-.516.885-.915 1.529-1.2.644-.287 1.373-.431 2.187-.431.826 0 1.55.144 2.171.431.625.285 1.115.68 1.471 1.188.356.504.54 1.083.552 1.738h-2.029ZM180.674 34v-8.727h2.057V34h-2.057Zm1.034-9.966a1.2 1.2 0 0 1-.841-.324 1.043 1.043 0 0 1-.352-.79c0-.31.117-.573.352-.79.235-.219.515-.329.841-.329.33 0 .61.11.841.33.235.216.352.479.352.79 0 .306-.117.57-.352.79a1.186 1.186 0 0 1-.841.323Zm6.933 13.42c-.738 0-1.373-.1-1.903-.3-.53-.198-.957-.463-1.278-.796a2.755 2.755 0 0 1-.671-1.108l1.852-.449c.084.17.205.34.364.506.159.17.373.31.642.42.273.114.616.17 1.028.17.584 0 1.067-.141 1.449-.425.383-.28.574-.743.574-1.387v-1.653h-.102c-.106.212-.261.43-.466.653a2.388 2.388 0 0 1-.801.563c-.33.151-.744.227-1.244.227a3.584 3.584 0 0 1-1.824-.472c-.542-.318-.974-.791-1.296-1.42-.318-.633-.477-1.424-.477-2.375 0-.958.159-1.767.477-2.426.322-.663.756-1.165 1.301-1.506a3.347 3.347 0 0 1 1.824-.517c.512 0 .932.087 1.262.262.333.17.598.376.795.619.197.238.347.464.449.676h.114v-1.443h2.028v8.869c0 .746-.178 1.364-.534 1.852-.356.489-.843.855-1.46 1.097-.618.242-1.319.364-2.103.364Zm.017-5.193c.436 0 .807-.106 1.114-.318.307-.212.54-.517.699-.915.159-.397.239-.875.239-1.431 0-.55-.08-1.03-.239-1.444-.155-.412-.386-.732-.693-.96-.303-.23-.676-.346-1.12-.346-.458 0-.841.119-1.147.357-.307.24-.538.567-.694.983a3.99 3.99 0 0 0-.232 1.41c0 .534.077 1.002.232 1.403.16.398.393.708.699.932.311.22.692.33 1.142.33Zm8.245-3.375V34h-2.057v-8.727h1.966v1.483h.102c.201-.489.521-.877.96-1.165.443-.288.991-.432 1.642-.432.603 0 1.127.129 1.574.387a2.6 2.6 0 0 1 1.046 1.119c.25.488.373 1.081.369 1.778V34h-2.057v-5.239c0-.583-.151-1.04-.454-1.369-.3-.33-.714-.494-1.245-.494-.36 0-.68.08-.96.238a1.66 1.66 0 0 0-.653.677c-.156.295-.233.653-.233 1.073Zm13.255 1.444v-5.057h2.057V34h-1.994v-1.551h-.091a2.624 2.624 0 0 1-.972 1.199c-.447.31-.998.466-1.653.466-.572 0-1.078-.127-1.517-.381a2.643 2.643 0 0 1-1.023-1.12c-.246-.492-.369-1.087-.369-1.784v-5.556h2.057v5.238c0 .553.151.993.454 1.319.303.325.701.488 1.193.488.303 0 .597-.074.881-.221.284-.148.517-.368.699-.66.186-.295.278-.664.278-1.108Zm4.172 6.943v-12h2.023v1.443h.119c.106-.212.256-.438.449-.676.193-.243.455-.45.784-.62.33-.174.75-.26 1.262-.26.674 0 1.282.171 1.823.516.546.341.978.847 1.296 1.517.322.667.483 1.485.483 2.455 0 .958-.157 1.773-.472 2.443-.314.67-.742 1.182-1.284 1.534a3.3 3.3 0 0 1-1.841.528c-.5 0-.914-.083-1.244-.25a2.515 2.515 0 0 1-.795-.602 3.914 3.914 0 0 1-.461-.676h-.085v4.648h-2.057Zm2.017-7.637c0 .565.08 1.06.239 1.483.163.425.396.756.699.995.307.235.678.352 1.113.352.455 0 .836-.121 1.142-.364.307-.246.538-.581.694-1.005.159-.428.238-.915.238-1.46 0-.542-.077-1.023-.233-1.444-.155-.42-.386-.75-.693-.989-.307-.238-.689-.357-1.148-.357-.439 0-.812.115-1.119.346-.307.231-.54.555-.699.972-.155.416-.233.907-.233 1.471ZM230.1 34l-2.466-8.727h2.097l1.534 6.136h.079l1.569-6.136h2.074l1.568 6.102h.085l1.511-6.102h2.103L237.782 34h-2.142l-1.636-5.898h-.12L232.248 34H230.1Zm11.59 0v-8.727h2.056V34h-2.056Zm1.034-9.966a1.2 1.2 0 0 1-.841-.324 1.043 1.043 0 0 1-.352-.79c0-.31.117-.573.352-.79.235-.219.515-.329.841-.329.329 0 .61.11.841.33.234.216.352.479.352.79 0 .306-.118.57-.352.79a1.188 1.188 0 0 1-.841.323Zm7.495 1.239v1.59h-5.017v-1.59h5.017Zm-3.778-2.091h2.057v8.193c0 .276.042.489.125.636a.675.675 0 0 0 .341.296c.14.053.295.08.466.08.128 0 .246-.01.352-.029.11-.019.193-.036.25-.051l.347 1.608c-.11.038-.267.08-.472.125a3.871 3.871 0 0 1-.739.08 3.355 3.355 0 0 1-1.392-.234 2.168 2.168 0 0 1-.983-.806c-.238-.364-.356-.819-.352-1.364v-8.534Zm7.743 5.704V34h-2.057V22.364h2.011v4.392h.103a2.52 2.52 0 0 1 .949-1.165c.431-.288.981-.432 1.647-.432.606 0 1.135.127 1.586.38.45.255.799.626 1.045 1.114.25.489.375 1.086.375 1.79V34h-2.057v-5.239c0-.587-.151-1.043-.454-1.369-.3-.33-.72-.494-1.262-.494-.363 0-.689.08-.977.238a1.667 1.667 0 0 0-.67.677c-.16.295-.239.653-.239 1.073Zm13.923-6.522V34h-2.108V22.364h2.108Zm4.249 6.522V34h-2.057v-8.727h1.966v1.483h.102c.201-.489.521-.877.96-1.165.444-.288.991-.432 1.642-.432.603 0 1.127.129 1.574.387.451.257.8.63 1.046 1.119.25.488.373 1.081.369 1.778V34h-2.057v-5.239c0-.583-.151-1.04-.454-1.369-.3-.33-.714-.494-1.245-.494-.359 0-.68.08-.96.238a1.66 1.66 0 0 0-.653.677c-.156.295-.233.653-.233 1.073Zm14.591-1.306-1.875.204a1.501 1.501 0 0 0-.279-.534 1.379 1.379 0 0 0-.522-.403 1.906 1.906 0 0 0-.807-.154c-.428 0-.788.093-1.08.279-.288.185-.43.426-.426.721a.753.753 0 0 0 .279.62c.193.159.511.29.954.392l1.489.318c.825.178 1.439.46 1.841.846.405.387.609.892.613 1.517a2.376 2.376 0 0 1-.483 1.455c-.314.417-.752.742-1.312.977-.561.235-1.205.352-1.932.352-1.068 0-1.928-.223-2.58-.67-.651-.45-1.039-1.078-1.164-1.88l2.005-.194c.091.394.284.691.58.892.295.2.68.301 1.153.301.489 0 .881-.1 1.176-.3.3-.202.449-.45.449-.745a.775.775 0 0 0-.289-.62c-.19-.162-.485-.287-.887-.375l-1.488-.312c-.838-.174-1.457-.468-1.858-.88-.402-.417-.601-.944-.597-1.58-.004-.538.142-1.004.437-1.398.3-.398.714-.704 1.245-.92.534-.22 1.149-.33 1.846-.33 1.023 0 1.828.218 2.415.654.591.435.957 1.024 1.097 1.767Zm6.241-2.307v1.59h-5.017v-1.59h5.017Zm-3.778-2.091h2.057v8.193c0 .276.041.489.125.636a.67.67 0 0 0 .341.296c.14.053.295.08.465.08.129 0 .247-.01.353-.029.11-.019.193-.036.25-.051l.346 1.608c-.11.038-.267.08-.471.125a3.871 3.871 0 0 1-.739.08 3.355 3.355 0 0 1-1.392-.234 2.163 2.163 0 0 1-.983-.806c-.239-.364-.356-.819-.352-1.364v-8.534Zm8.01 10.994a3.647 3.647 0 0 1-1.495-.295 2.442 2.442 0 0 1-1.045-.887c-.254-.39-.381-.87-.381-1.443 0-.492.091-.9.273-1.221.182-.322.43-.58.744-.773a3.764 3.764 0 0 1 1.063-.438 8.657 8.657 0 0 1 1.233-.221c.511-.053.926-.1 1.244-.142.318-.046.549-.114.693-.205.148-.095.222-.24.222-.437v-.035c0-.428-.127-.759-.381-.994s-.619-.352-1.096-.352c-.504 0-.904.11-1.199.33-.292.22-.489.479-.591.778l-1.921-.273c.152-.53.402-.973.75-1.33.349-.36.775-.628 1.279-.806a4.888 4.888 0 0 1 1.67-.273c.421 0 .839.05 1.256.148.417.098.797.261 1.142.489.345.223.621.528.83.914.212.387.318.87.318 1.45V34h-1.978v-1.199h-.068c-.125.243-.301.47-.528.682a2.548 2.548 0 0 1-.847.506 3.411 3.411 0 0 1-1.187.187Zm.534-1.511c.413 0 .771-.082 1.074-.245a1.8 1.8 0 0 0 .699-.659c.166-.272.25-.57.25-.892v-1.028a.979.979 0 0 1-.33.148 4.64 4.64 0 0 1-.511.119c-.19.034-.377.064-.563.09l-.483.069a3.6 3.6 0 0 0-.824.205 1.377 1.377 0 0 0-.574.397c-.14.167-.21.383-.21.648 0 .379.139.665.415.858.277.193.629.29 1.057.29Zm9.937 4.79c-.738 0-1.373-.1-1.903-.302-.53-.197-.957-.462-1.278-.795a2.755 2.755 0 0 1-.671-1.108l1.852-.449c.084.17.205.34.364.506.159.17.373.31.642.42.273.114.616.17 1.028.17.584 0 1.067-.141 1.449-.425.383-.28.574-.743.574-1.387v-1.653h-.102c-.106.212-.261.43-.466.653a2.388 2.388 0 0 1-.801.563c-.33.151-.744.227-1.244.227a3.584 3.584 0 0 1-1.824-.472c-.542-.318-.974-.791-1.296-1.42-.318-.633-.477-1.424-.477-2.375 0-.958.159-1.767.477-2.426.322-.663.756-1.165 1.301-1.506a3.347 3.347 0 0 1 1.824-.517c.512 0 .932.087 1.262.262.333.17.598.376.795.619.197.238.347.464.449.676h.114v-1.443h2.028v8.869c0 .746-.178 1.364-.534 1.852-.356.489-.843.855-1.46 1.097-.618.242-1.319.364-2.103.364Zm.017-5.194c.436 0 .807-.106 1.114-.318.307-.212.54-.517.699-.915.159-.397.239-.875.239-1.431 0-.55-.08-1.03-.239-1.444-.155-.412-.386-.732-.693-.96-.303-.23-.676-.346-1.12-.346-.458 0-.841.119-1.147.357-.307.24-.538.567-.694.983a3.99 3.99 0 0 0-.232 1.41c0 .534.077 1.002.232 1.403.16.398.393.708.699.932.311.22.692.33 1.142.33ZM314.096 34v-8.727h1.994v1.454h.091c.159-.503.432-.892.818-1.165.39-.276.836-.414 1.336-.414.113 0 .24.005.38.017.144.007.263.02.358.04v1.892a2.16 2.16 0 0 0-.415-.08 3.804 3.804 0 0 0-.539-.04c-.375 0-.713.082-1.012.245-.295.159-.528.38-.699.664a1.88 1.88 0 0 0-.255.983V34h-2.057Zm8.699.176a3.647 3.647 0 0 1-1.495-.295 2.442 2.442 0 0 1-1.045-.887c-.254-.39-.381-.87-.381-1.443 0-.492.091-.9.273-1.221.182-.322.43-.58.744-.773a3.764 3.764 0 0 1 1.063-.438 8.657 8.657 0 0 1 1.233-.221c.511-.053.926-.1 1.244-.142.318-.046.549-.114.693-.205.148-.095.222-.24.222-.437v-.035c0-.428-.127-.759-.381-.994s-.619-.352-1.096-.352c-.504 0-.904.11-1.199.33-.292.22-.489.479-.591.778l-1.921-.273c.152-.53.402-.973.75-1.33.349-.36.775-.628 1.279-.806a4.888 4.888 0 0 1 1.67-.273c.421 0 .839.05 1.256.148.417.098.797.261 1.142.489.345.223.621.528.83.914.212.387.318.87.318 1.45V34h-1.978v-1.199h-.068c-.125.243-.301.47-.528.682a2.548 2.548 0 0 1-.847.506 3.411 3.411 0 0 1-1.187.187Zm.534-1.511c.413 0 .771-.082 1.074-.245a1.8 1.8 0 0 0 .699-.659c.166-.272.25-.57.25-.892v-1.028a.979.979 0 0 1-.33.148 4.64 4.64 0 0 1-.511.119c-.19.034-.377.064-.563.09l-.483.069a3.6 3.6 0 0 0-.824.205 1.377 1.377 0 0 0-.574.397c-.14.167-.21.383-.21.648 0 .379.139.665.415.858.277.193.629.29 1.057.29ZM329.471 34v-8.727h1.966v1.483h.102c.182-.5.483-.89.903-1.17.421-.285.923-.427 1.506-.427.591 0 1.089.144 1.494.432.41.284.697.672.864 1.165h.091c.193-.485.519-.872.977-1.16.462-.291 1.01-.437 1.642-.437.803 0 1.459.254 1.966.762.508.507.762 1.248.762 2.221V34h-2.063v-5.54c0-.541-.144-.937-.432-1.187a1.542 1.542 0 0 0-1.057-.381c-.496 0-.884.155-1.164.466-.277.307-.415.706-.415 1.199V34h-2.017v-5.625c0-.45-.136-.81-.409-1.08-.269-.269-.621-.403-1.057-.403a1.5 1.5 0 0 0-.807.227 1.588 1.588 0 0 0-.579.631 1.969 1.969 0 0 0-.216.943V34h-2.057Z" />
    <defs>
        <radialGradient id="b" cx="0" cy="0" r="1"
            gradientTransform="matrix(44.39617 -2.32677 1.97774 37.73631 130.259 40.574)"
            gradientUnits="userSpaceOnUse">
            <stop stop-color="#FED576" />
            <stop offset=".263" stop-color="#F47133" />
            <stop offset=".609" stop-color="#BC3081" />
            <stop offset="1" stop-color="#4C63D2" />
        </radialGradient>
        <radialGradient id="c" cx="0" cy="0" r="1"
            gradientTransform="matrix(22.79801 -1.19483 1.0156 19.3781 137.466 34.465)" gradientUnits="userSpaceOnUse">
            <stop stop-color="#FED576" />
            <stop offset=".263" stop-color="#F47133" />
            <stop offset=".609" stop-color="#BC3081" />
            <stop offset="1" stop-color="#4C63D2" />
        </radialGradient>
        <clipPath id="a">
            <path fill="#fff" d="M129 12h32v32h-32z" />
        </clipPath>
    </defs>
</svg>