<svg xmlns="http://www.w3.org/2000/svg" width="344" height="334" fill="none" viewBox="0 0 344 334">
    <g filter="url(#a)">
        <rect width="293" height="284" x="30.555" y="4" fill="#fff" rx="20" transform="rotate(2.13 30.555 4)" />
        <path fill="#101928"
            d="m62.584 28.458-.04 1.083-2.707-.1-.221 5.953 5.954.222.1-2.707 1.083.04-.12 3.248a.542.542 0 0 1-.562.521l-7.037-.261a.542.542 0 0 1-.52-.562l.26-7.037a.542.542 0 0 1 .562-.52l3.248.12Zm6.015-1.402-.161 4.33-1.083-.04.092-2.483-4.375 4.062-.737-.794 4.375-4.061-2.482-.093.04-1.082 4.33.16ZM78.84 37.82l.374-10.074 3.96.148c.638.023 1.17.174 1.594.451.424.277.738.628.942 1.05.204.42.297.857.28 1.314-.02.555-.176 1.026-.466 1.412a2.027 2.027 0 0 1-1.128.77l-.002-.343c.638.183 1.121.511 1.449.986.328.47.48 1.01.458 1.62-.022.593-.16 1.104-.414 1.533-.25.43-.605.76-1.067.99-.456.226-1.004.328-1.643.304l-4.337-.162Zm1.534-1.337 2.63.097c.332.013.63-.04.896-.155.27-.116.485-.288.643-.516.162-.232.25-.511.262-.838a1.653 1.653 0 0 0-.172-.826 1.405 1.405 0 0 0-.552-.602 1.702 1.702 0 0 0-.867-.25l-2.72-.1-.12 3.19Zm.17-4.568 2.456.091c.27.01.515-.035.733-.134.224-.104.402-.256.535-.456.139-.205.213-.455.225-.748.014-.392-.105-.719-.356-.98-.252-.262-.597-.4-1.036-.417l-2.455-.091-.102 2.735Zm7.04 6.23.28-7.555 1.302.048-.068 1.833-.173-.245a2.73 2.73 0 0 1 .388-.65c.157-.2.336-.362.536-.485.197-.133.413-.232.649-.298.24-.07.485-.108.733-.113.248-.01.485.011.712.061l-.051 1.371a2.374 2.374 0 0 0-.823-.086c-.3.017-.579.102-.837.256a1.86 1.86 0 0 0-.587.539 2.38 2.38 0 0 0-.321.723c-.07.264-.111.545-.123.843L89.06 38.2l-1.476-.055Zm7.317.482c-.56-.02-1.024-.141-1.394-.36a2.194 2.194 0 0 1-.83-.858 2.301 2.301 0 0 1-.245-1.143 2.35 2.35 0 0 1 .24-1c.147-.284.356-.522.63-.712a3.22 3.22 0 0 1 .997-.46c.34-.086.723-.158 1.15-.217.427-.059.875-.112 1.344-.16l1.406-.144-.542.274c.031-.592-.078-1.035-.33-1.33-.245-.298-.683-.459-1.312-.482a2.187 2.187 0 0 0-1.102.239c-.338.17-.58.464-.726.884l-1.349-.47a2.828 2.828 0 0 1 1.121-1.507c.541-.363 1.248-.528 2.12-.496.676.025 1.26.164 1.75.416.495.247.85.624 1.065 1.132.112.252.176.515.194.792.018.276.021.572.01.89l-.174 4.651-1.294-.048.064-1.728.244.234c-.334.566-.749.983-1.244 1.25-.491.261-1.089.38-1.793.353Zm.303-1.187c.416.016.775-.043 1.079-.177a2.11 2.11 0 0 0 .741-.54c.19-.221.319-.455.384-.7a2.51 2.51 0 0 0 .16-.75c.025-.28.04-.503.047-.671l.469.193-1.266.142c-.38.041-.725.085-1.035.13-.305.04-.578.092-.818.158-.204.062-.386.14-.548.232a1.236 1.236 0 0 0-.384.343.937.937 0 0 0-.152.505c-.007.196.035.38.126.551.092.167.237.303.433.409.197.105.452.164.764.175Zm10.839 1.391.138-3.714a5.463 5.463 0 0 0-.043-.906 2.707 2.707 0 0 0-.248-.877 1.644 1.644 0 0 0-.556-.666c-.242-.172-.563-.266-.964-.28a2.06 2.06 0 0 0-.746.105 1.546 1.546 0 0 0-.631.39c-.18.184-.327.431-.441.74-.109.309-.173.687-.189 1.135l-.897-.377c.026-.686.176-1.285.452-1.797.276-.518.66-.915 1.151-1.19.492-.276 1.078-.402 1.759-.377.522.02.957.12 1.305.301s.627.413.836.697c.214.279.373.581.478.907.104.326.172.644.202.953.031.31.042.581.033.814l-.156 4.197-1.483-.055Zm-5.309-.197.281-7.555 1.308.049-.081 2.182.174.006-.199 5.373-1.483-.055Zm11.511.638c-.704-.026-1.306-.224-1.806-.593a3.472 3.472 0 0 1-1.129-1.47c-.252-.617-.365-1.303-.337-2.059.029-.76.194-1.433.496-2.02a3.392 3.392 0 0 1 1.242-1.375c.53-.33 1.15-.483 1.859-.457.714.027 1.306.224 1.778.592.477.363.828.85 1.053 1.461.229.611.33 1.294.302 2.05-.028.755-.18 1.429-.454 2.021a3.295 3.295 0 0 1-1.165 1.393c-.503.331-1.116.484-1.839.457Zm.252-1.315c.481.018.877-.081 1.188-.299.312-.217.545-.523.7-.92.155-.395.242-.854.261-1.377a4.054 4.054 0 0 0-.165-1.393c-.125-.406-.332-.727-.623-.962-.285-.234-.656-.36-1.113-.377-.485-.018-.888.086-1.21.312a2.138 2.138 0 0 0-.735.932c-.164.396-.255.84-.274 1.335-.018.5.04.954.174 1.366.139.406.355.734.65.983.299.25.681.383 1.147.4Zm2.009 1.189.202-5.435-.168-.007.172-4.637 1.469.054-.374 10.073-1.301-.048Zm11.361.422.138-3.714a5.464 5.464 0 0 0-.043-.905 2.709 2.709 0 0 0-.248-.878 1.645 1.645 0 0 0-.556-.665c-.241-.173-.562-.266-.964-.281a2.072 2.072 0 0 0-.746.105 1.547 1.547 0 0 0-.631.39c-.18.185-.326.431-.441.74-.109.309-.172.687-.189 1.135l-.897-.377c.026-.685.177-1.285.452-1.797.277-.518.66-.914 1.152-1.19.491-.276 1.077-.402 1.758-.376.522.02.957.12 1.305.3.349.181.627.414.836.697.214.279.373.581.478.907.104.327.172.644.202.954.031.309.042.58.033.813l-.156 4.197-1.483-.055Zm-5.309-.197.281-7.555 1.308.049-.081 2.182.175.007-.2 5.372-1.483-.055Zm10.74.61c-.56-.021-1.025-.141-1.395-.36a2.191 2.191 0 0 1-.829-.858 2.297 2.297 0 0 1-.245-1.144c.014-.382.094-.716.24-1 .146-.284.356-.521.629-.712.274-.195.606-.349.998-.46a10.74 10.74 0 0 1 1.15-.217 40.98 40.98 0 0 1 1.344-.16c.473-.047.942-.095 1.406-.144l-.543.274c.032-.591-.078-1.034-.328-1.329-.246-.298-.684-.46-1.313-.483a2.186 2.186 0 0 0-1.102.24c-.338.169-.58.464-.726.883l-1.349-.47a2.828 2.828 0 0 1 1.121-1.507c.541-.362 1.248-.528 2.12-.495.676.025 1.259.163 1.75.415.495.247.85.625 1.064 1.132a2.3 2.3 0 0 1 .195.792c.018.276.021.573.009.89l-.173 4.652-1.294-.048.064-1.728.244.233c-.334.567-.749.983-1.245 1.25-.49.262-1.088.38-1.792.353Zm.303-1.187c.415.015.775-.044 1.079-.177.304-.138.551-.318.741-.54.19-.222.318-.455.383-.7.088-.221.142-.471.161-.75.025-.28.04-.504.046-.672l.47.193-1.267.142a31.18 31.18 0 0 0-1.034.13c-.305.04-.578.093-.819.158-.203.063-.385.14-.548.232a1.247 1.247 0 0 0-.384.343.948.948 0 0 0-.152.506c-.007.196.035.38.127.551.092.167.236.303.433.408.197.106.452.164.764.176Zm14.588 1.53.182-4.707c.02-.546-.104-.976-.372-1.29-.269-.317-.631-.485-1.088-.502a1.55 1.55 0 0 0-.777.167 1.444 1.444 0 0 0-.581.553c-.149.247-.231.561-.245.944l-.693-.383c.01-.532.139-.995.387-1.387a2.47 2.47 0 0 1 1-.894 2.78 2.78 0 0 1 1.377-.285c.816.03 1.439.298 1.868.805.43.506.629 1.165.599 1.976l-.195 5.057-1.462-.054Zm-9.059-.337.281-7.555 1.301.049-.081 2.182.168.007-.2 5.372-1.469-.055Zm4.533.169.181-4.68c.021-.55-.103-.987-.371-1.31-.264-.322-.629-.492-1.095-.51-.462-.017-.841.128-1.137.434-.292.307-.447.717-.466 1.23l-.683-.474c.018-.494.154-.93.406-1.308.252-.379.585-.672.999-.88a2.807 2.807 0 0 1 1.391-.285c.536.02.989.15 1.358.393.37.238.645.564.826.977.185.413.268.888.248 1.424l-.195 5.043-1.462-.054Zm11.059.621c-.751-.028-1.405-.215-1.962-.563a3.481 3.481 0 0 1-1.27-1.427c-.291-.604-.422-1.296-.393-2.074.031-.826.212-1.536.542-2.13a3.423 3.423 0 0 1 1.353-1.358c.568-.31 1.22-.452 1.956-.425.77.029 1.418.233 1.946.612.528.374.912.895 1.154 1.563.246.667.324 1.453.234 2.355l-1.462-.054.02-.532c.023-.877-.12-1.531-.431-1.963-.306-.432-.791-.66-1.453-.685-.732-.027-1.291.183-1.676.631-.386.448-.595 1.108-.627 1.98-.031.83.129 1.48.48 1.952.352.466.875.712 1.57.738.457.017.855-.071 1.194-.264a2.1 2.1 0 0 0 .816-.867l1.418.509a3.408 3.408 0 0 1-1.395 1.524 3.724 3.724 0 0 1-2.014.478Zm-2.56-3.675.042-1.14 5.393.2-.042 1.141-5.393-.2Z" />
        <path fill="#667185"
            d="m284.932 39.001-4.275 3.969-1.134-1.222 5.496-5.102 5.103 5.497-1.222 1.133-3.968-4.275Z" />
        <g clip-path="url(#b)">
            <path fill="#9A9A9A"
                d="m61.381 56.267-.043 1.166 3.497.13.044-1.166 1.166.043L66 57.606l2.332.087a.583.583 0 0 1 .561.605l-.347 9.326a.583.583 0 0 1-.604.562l-10.493-.39a.583.583 0 0 1-.561-.605l.347-9.327a.583.583 0 0 1 .604-.561l2.332.087.043-1.166 1.166.043Zm6.196 6.068-9.327-.347-.174 4.663 9.327.347.174-4.663Zm-7.06 1.488-.044 1.166-1.166-.043.044-1.166 1.166.043Zm5.829.217-.044 1.166-4.663-.173.043-1.166 4.664.173Zm-6.217-5.485-1.75-.065-.086 2.332 9.327.347.087-2.332-1.749-.065-.043 1.166-1.166-.043.043-1.166-3.497-.13-.044 1.166-1.166-.044.044-1.166Z" />
        </g>
        <path fill="#9A9A9A"
            d="m77.815 66.8.05-1.324-3.308-.123.031-.845 2.56-4.938 1.01.037-2.56 4.939 2.298.085.075-2.023.9.033-.076 2.024.75.027-.032.845-.749-.028-.05 1.324-.899-.033Zm5.858.218a4 4 0 0 1-.952.04 2.107 2.107 0 0 1-.822-.217 1.194 1.194 0 0 1-.535-.56 1.6 1.6 0 0 1-.15-.65c0-.221.007-.47.017-.746l.18-4.856.89.033-.18 4.816c-.007.22-.013.409-.015.565 0 .157.03.293.09.409.112.217.297.35.555.396.262.046.579.048.95.005l-.028.764Zm-3.439-4.797.028-.734 3.612.134-.027.735-3.613-.135Zm8.377 4.98.1-2.703a3.816 3.816 0 0 0-.042-.742 1.856 1.856 0 0 0-.21-.643 1.215 1.215 0 0 0-.434-.467c-.182-.117-.417-.18-.703-.191a1.567 1.567 0 0 0-.614.092 1.193 1.193 0 0 0-.477.323 1.65 1.65 0 0 0-.327.568 2.812 2.812 0 0 0-.135.81l-.578-.201c.02-.523.13-.968.33-1.334.204-.37.48-.647.826-.835.351-.19.758-.277 1.221-.26.35.014.646.08.888.199.243.119.442.273.599.462.156.186.277.394.362.624.084.227.141.457.169.692.031.231.043.45.036.657l-.111 2.983-.9-.034Zm-3.847-.143.267-7.195.8.03-.148 3.972.1.004-.12 3.222-.9-.033Zm9.34.492c-.503-.018-.924-.17-1.264-.457a2.065 2.065 0 0 1-.678-1.126l.892-.177c.044.245.165.457.361.634.2.178.434.271.7.281.174.007.352-.028.535-.105a.89.89 0 0 0 .43-.404 1.12 1.12 0 0 0 .131-.436c.016-.162.028-.354.037-.574l.183-4.936.9.033-.184 4.937a25.46 25.46 0 0 1-.026.554c-.006.163-.028.32-.067.468a1.466 1.466 0 0 1-.197.443c-.191.31-.442.536-.75.678-.306.138-.64.201-1.003.188Zm5.502.2a2.212 2.212 0 0 1-.888-.198 1.782 1.782 0 0 1-.598-.463 2.166 2.166 0 0 1-.362-.623 3.151 3.151 0 0 1-.175-.692 4.224 4.224 0 0 1-.03-.657l.11-2.983.9.033-.1 2.704c-.01.253.004.499.042.737.038.238.108.454.211.648.106.194.25.35.433.466.186.117.42.181.704.192.223.008.427-.023.613-.093a1.26 1.26 0 0 0 .483-.322c.135-.148.242-.338.321-.568.079-.23.124-.501.135-.81l.578.2c-.019.52-.131.965-.335 1.334-.2.37-.476.65-.826.84-.348.187-.753.272-1.216.255Zm1.804-.073.054-1.444-.1-.004.147-3.952.894.033-.2 5.397-.795-.03Zm6.036.225.1-2.704a3.77 3.77 0 0 0-.042-.742 1.872 1.872 0 0 0-.211-.643 1.214 1.214 0 0 0-.433-.466c-.183-.117-.417-.181-.704-.192a1.562 1.562 0 0 0-.613.093 1.195 1.195 0 0 0-.478.322 1.66 1.66 0 0 0-.326.568 2.775 2.775 0 0 0-.135.81l-.578-.2c.019-.524.129-.968.33-1.334.203-.37.479-.648.826-.835.351-.19.758-.277 1.221-.26.349.013.646.079.888.198.242.12.442.273.598.463.157.186.277.394.362.623.085.227.142.458.17.692.031.232.043.45.035.657l-.111 2.983-.899-.033Zm-3.847-.144.2-5.396.8.03-.054 1.444.1.004-.147 3.952-.899-.034Zm8.329.46c-.529-.02-.988-.153-1.376-.401a2.45 2.45 0 0 1-.882-1.019c-.205-.43-.296-.928-.275-1.49.022-.59.149-1.096.381-1.518.233-.425.547-.746.942-.965.398-.222.859-.324 1.382-.304.543.02 1 .162 1.37.426.374.264.647.631.82 1.101.176.47.239 1.025.188 1.663l-.899-.033.012-.32c.014-.663-.102-1.163-.35-1.499-.247-.34-.628-.519-1.141-.538-.549-.02-.974.14-1.273.483-.3.343-.462.844-.487 1.503-.023.637.102 1.135.375 1.495.274.36.675.55 1.205.57.356.014.669-.056.938-.21.269-.153.485-.38.646-.681l.843.326a2.416 2.416 0 0 1-.99 1.074c-.43.244-.906.357-1.429.337Zm-1.897-2.672.027-.715 3.987.149-.026.714-3.988-.148Zm5.132 3.763.07-.412c.14.015.246-.008.318-.069a.447.447 0 0 0 .145-.254c.024-.11.032-.231.023-.365l-.514-.019.042-1.13.979.037-.048 1.28c-.013.35-.109.61-.289.78-.176.17-.418.22-.726.152Zm4.724-.95.034-.799 3.3-2.754c.275-.23.462-.45.56-.66.101-.213.156-.433.165-.66a1.499 1.499 0 0 0-.162-.756 1.423 1.423 0 0 0-1.233-.771 1.48 1.48 0 0 0-1.321.691c-.135.219-.206.46-.212.723l-.91-.034a2.27 2.27 0 0 1 .36-1.188c.223-.341.518-.604.885-.787a2.52 2.52 0 0 1 1.245-.254c.446.017.842.135 1.188.354a2.306 2.306 0 0 1 1.069 2.066 2.48 2.48 0 0 1-.151.81 1.978 1.978 0 0 1-.383.627 6.316 6.316 0 0 1-.638.596l-2.742 2.285-.103-.304 3.862.144-.032.849-4.781-.178Zm8.399.468a2.47 2.47 0 0 1-1.237-.361 2.387 2.387 0 0 1-.832-.897 2.466 2.466 0 0 1-.269-1.26l.098-2.64c.018-.465.138-.878.362-1.236.226-.359.525-.636.896-.833a2.47 2.47 0 0 1 1.261-.268c.466.017.879.138 1.237.361.359.224.637.523.833.897.196.374.285.794.268 1.26l-.098 2.639a2.471 2.471 0 0 1-.361 1.237 2.342 2.342 0 0 1-.897.832 2.47 2.47 0 0 1-1.261.269Zm.032-.855c.283.01.542-.048.777-.176s.425-.304.57-.53c.145-.227.223-.481.234-.761l.102-2.743a1.475 1.475 0 0 0-.177-.777 1.55 1.55 0 0 0-.529-.57 1.474 1.474 0 0 0-.762-.234 1.5 1.5 0 0 0-.777.177 1.552 1.552 0 0 0-.57.529 1.475 1.475 0 0 0-.233.762l-.102 2.743c-.011.28.048.538.176.777.128.235.304.425.529.57.228.145.482.223.762.233Zm3.601.835.035-.8 3.3-2.754c.275-.23.462-.45.56-.66a1.66 1.66 0 0 0 .164-.659 1.479 1.479 0 0 0-.162-.756 1.415 1.415 0 0 0-1.232-.772 1.437 1.437 0 0 0-.772.177 1.43 1.43 0 0 0-.762 1.238l-.909-.035c.017-.453.137-.848.359-1.187a2.23 2.23 0 0 1 .885-.788 2.52 2.52 0 0 1 1.246-.254 2.33 2.33 0 0 1 1.187.355 2.295 2.295 0 0 1 1.069 2.066 2.456 2.456 0 0 1-.15.81 1.962 1.962 0 0 1-.384.626 6.18 6.18 0 0 1-.637.597l-2.742 2.285-.104-.305 3.863.144-.032.85-4.782-.178Zm8.89.335.049-1.324-3.308-.123.032-.844 2.56-4.938 1.009.037-2.56 4.938 2.299.086.075-2.024.899.034-.075 2.023.749.028-.031.844-.749-.027-.05 1.324-.899-.034Zm2.81.105.036-.98.979.037-.036.98-.979-.037Z" />
        <path fill="#667185"
            d="m205.367 71.543.267-7.195 2.803.104c.43.016.793.118 1.09.306.3.188.524.43.673.726.153.292.223.605.211.938-.015.39-.127.728-.338 1.013a1.52 1.52 0 0 1-.832.575l-.001-.246c.458.14.81.38 1.054.72.244.34.358.737.341 1.194-.016.42-.116.78-.301 1.08-.181.3-.436.528-.766.686-.326.158-.709.229-1.148.213l-3.053-.114Zm.931-.816 1.983.074a1.7 1.7 0 0 0 .72-.118c.214-.093.384-.226.511-.402.13-.175.199-.39.209-.642a1.299 1.299 0 0 0-.141-.661 1.177 1.177 0 0 0-.438-.477 1.277 1.277 0 0 0-.668-.2l-2.083-.077-.093 2.503Zm.124-3.343 1.894.07a1.19 1.19 0 0 0 .579-.113c.177-.087.319-.211.425-.374a1.09 1.09 0 0 0 .176-.579.994.994 0 0 0-.286-.771c-.203-.205-.474-.313-.814-.326l-1.893-.07-.081 2.163Zm5.132 4.39.201-5.397.794.03-.048 1.304-.124-.175c.069-.164.157-.314.262-.45a1.53 1.53 0 0 1 .358-.333c.144-.108.305-.188.484-.242a2.063 2.063 0 0 1 1.057-.031l-.031.835a1.688 1.688 0 0 0-.613-.063 1.25 1.25 0 0 0-.629.222 1.343 1.343 0 0 0-.422.434 1.996 1.996 0 0 0-.216.568 3.54 3.54 0 0 0-.078.622l-.101 2.709-.894-.034Zm5.081.338c-.403-.015-.739-.1-1.007-.257a1.568 1.568 0 0 1-.592-.613 1.598 1.598 0 0 1-.175-.807 1.58 1.58 0 0 1 .187-.728c.118-.206.277-.374.479-.503.202-.132.441-.234.717-.303.259-.06.547-.11.866-.148.322-.042.646-.078.974-.11.329-.03.635-.06.919-.09l-.326.173c.028-.48-.056-.838-.25-1.075-.192-.237-.534-.365-1.027-.384a1.624 1.624 0 0 0-.868.193c-.248.138-.429.371-.541.7l-.835-.286c.148-.468.413-.83.796-1.086.383-.256.879-.372 1.489-.35.49.019.906.122 1.249.312.347.186.59.459.73.818.071.169.112.352.125.55.013.194.015.397.007.61l-.124 3.338-.789-.03.048-1.293.18.126c-.219.43-.516.748-.891.958-.371.21-.818.305-1.341.285Zm.162-.74c.32.013.599-.034.836-.138a1.58 1.58 0 0 0 .586-.434c.151-.184.252-.387.303-.609a2.06 2.06 0 0 0 .101-.552c.014-.206.023-.364.027-.474l.305.147-.858.083a19.17 19.17 0 0 0-.799.09 5.9 5.9 0 0 0-.68.12 2.2 2.2 0 0 0-.422.164.942.942 0 0 0-.32.274.746.746 0 0 0-.131.42.858.858 0 0 0 .095.424.847.847 0 0 0 .337.338c.157.089.364.138.62.148Zm7.773.885.1-2.703a3.77 3.77 0 0 0-.042-.742 1.853 1.853 0 0 0-.212-.643 1.212 1.212 0 0 0-.432-.467c-.183-.117-.417-.18-.704-.191a1.567 1.567 0 0 0-.614.092 1.199 1.199 0 0 0-.477.323 1.644 1.644 0 0 0-.326.568 2.808 2.808 0 0 0-.136.81l-.577-.201c.019-.523.129-.968.329-1.334.204-.369.48-.647.827-.835.351-.19.757-.277 1.22-.26.35.014.646.08.889.199.242.119.441.273.598.462.156.186.277.394.362.624.085.227.141.457.169.692.032.231.044.45.036.657l-.111 2.983-.899-.034Zm-3.848-.143.201-5.396.799.03-.053 1.444.1.003-.147 3.953-.9-.034Zm8.11.452c-.503-.019-.929-.16-1.28-.423a2.487 2.487 0 0 1-.796-1.055 3.516 3.516 0 0 1-.236-1.465c.02-.54.135-1.02.344-1.443.212-.423.503-.75.872-.984.369-.236.803-.345 1.303-.326.51.019.933.158 1.27.417.338.26.587.607.747 1.044.164.436.236.926.216 1.469a3.76 3.76 0 0 1-.324 1.444 2.34 2.34 0 0 1-.823.995c-.355.237-.786.346-1.293.327Zm.14-.81c.364.013.665-.063.904-.227a1.53 1.53 0 0 0 .542-.705 3.04 3.04 0 0 0 .209-1.048c.015-.4-.029-.754-.131-1.06a1.477 1.477 0 0 0-.483-.734c-.223-.182-.511-.28-.864-.293-.367-.013-.673.065-.92.236a1.605 1.605 0 0 0-.556.71 2.943 2.943 0 0 0-.209 1.023 2.94 2.94 0 0 0 .137 1.046c.105.31.271.56.497.749.23.188.521.29.874.302Zm1.555.723.147-3.972-.1-.004.12-3.223.895.033-.268 7.195-.794-.03Zm5.654.21-1.758-5.47.899.034 1.355 4.319 1.668-4.206.904.033-2.159 5.324-.909-.034Zm5.869.368c-.536-.02-.995-.158-1.376-.416a2.42 2.42 0 0 1-.856-1.043c-.194-.437-.281-.934-.26-1.49.021-.567.146-1.059.375-1.477a2.38 2.38 0 0 1 .941-.961c.399-.225.861-.328 1.388-.309.539.02 1 .16 1.38.417.381.254.667.6.857 1.037.194.435.281.93.26 1.486-.021.563-.144 1.056-.37 1.477a2.415 2.415 0 0 1-.937.971c-.398.226-.866.328-1.402.308Zm.031-.844c.56.02.983-.15 1.27-.513.287-.363.442-.841.464-1.434.023-.61-.098-1.1-.361-1.47-.263-.373-.671-.57-1.224-.59-.376-.014-.689.06-.938.22-.25.16-.44.389-.571.684a2.8 2.8 0 0 0-.219 1.033c-.022.606.099 1.098.366 1.475.266.376.67.575 1.213.595Zm4.014-5.515.034-.919.89.033-.035.92-.889-.034Zm-.236 6.351.2-5.396.89.033-.201 5.396-.889-.033Zm4.656.323c-.546-.02-1.006-.159-1.38-.416a2.373 2.373 0 0 1-.832-1.047c-.184-.437-.269-.93-.255-1.48.027-.563.151-1.054.37-1.473a2.36 2.36 0 0 1 .922-.971c.392-.226.857-.329 1.397-.308.57.02 1.054.179 1.453.474.403.295.665.688.787 1.18l-.889.232a1.45 1.45 0 0 0-.528-.75 1.51 1.51 0 0 0-.864-.292c-.37-.014-.678.061-.924.225a1.496 1.496 0 0 0-.561.69 2.91 2.91 0 0 0-.219 1.028c-.015.6.105 1.09.361 1.469.259.377.657.575 1.194.595.353.013.649-.056.888-.207.239-.155.424-.383.556-.685l.89.268c-.205.496-.511.87-.917 1.122-.406.252-.889.367-1.449.346Zm5.52.206c-.529-.02-.988-.154-1.376-.402a2.45 2.45 0 0 1-.882-1.018c-.205-.432-.296-.929-.275-1.492.022-.59.149-1.095.381-1.516.233-.425.547-.747.942-.966.399-.222.859-.323 1.382-.304.543.02 1 .162 1.37.426.374.264.647.631.82 1.101.176.47.239 1.025.188 1.664l-.899-.034.012-.32c.014-.663-.102-1.163-.35-1.499-.247-.34-.628-.518-1.141-.538-.549-.02-.974.141-1.273.483-.3.343-.462.844-.487 1.504-.023.636.102 1.134.375 1.495.274.36.675.55 1.205.57.356.013.669-.057.938-.21.269-.154.485-.381.646-.682l.843.326a2.416 2.416 0 0 1-.99 1.074 2.634 2.634 0 0 1-1.429.338Zm-1.897-2.673.027-.714 3.987.148-.026.715-3.988-.149Zm5.896 1.92.037-.979.979.037-.036.979-.98-.036Zm.114-2.917.036-.98.98.037-.037.98-.979-.037Zm10.24-3.225 1.093.041-1.051 5.142c-.093.463-.26.854-.502 1.172a2.248 2.248 0 0 1-.897.716 2.71 2.71 0 0 1-1.209.211c-.419-.015-.779-.103-1.081-.264a1.452 1.452 0 0 1-.65-.678c-.132-.291-.158-.64-.079-1.044l1.065.04a.994.994 0 0 0 .033.534.704.704 0 0 0 .307.349c.144.083.32.129.528.137a1.251 1.251 0 0 0 1.122-.555c.13-.19.224-.423.282-.7l1.039-5.1Zm3.444 7.516c-.518-.019-.947-.153-1.286-.403a1.9 1.9 0 0 1-.697-1.028c-.124-.436-.129-.937-.015-1.504.11-.554.309-1.035.597-1.441a2.94 2.94 0 0 1 1.065-.93 2.802 2.802 0 0 1 1.393-.294c.519.02.946.155 1.282.407.339.252.572.596.698 1.031.126.436.132.939.018 1.508a3.65 3.65 0 0 1-.604 1.434c-.29.404-.645.713-1.065.927-.42.214-.882.312-1.386.293Zm.093-.888a1.5 1.5 0 0 0 .901-.237c.262-.17.479-.401.651-.693a3.15 3.15 0 0 0 .367-.967c.067-.341.077-.655.031-.94a1.237 1.237 0 0 0-.329-.703c-.176-.18-.426-.275-.75-.287a1.518 1.518 0 0 0-.908.24c-.262.17-.479.403-.651.697-.17.295-.29.618-.36.971a2.747 2.747 0 0 0-.035.94c.044.286.154.518.33.695.176.177.427.272.753.284Zm9.2-4.335-3.088 5.344-1.135-.042-.869-5.49 1.096.04.526 4.22.056.002 2.232-4.117 1.182.043Zm-.114 5.455 1.111-5.417 1.061.04-1.111 5.416-1.061-.04Zm1.895-6.241a.65.65 0 0 1-.461-.202.567.567 0 0 1-.158-.454.627.627 0 0 1 .237-.439.69.69 0 0 1 .486-.17.632.632 0 0 1 .458.206.57.57 0 0 1 .161.453.637.637 0 0 1-.237.44.686.686 0 0 1-.486.166Zm2.161 6.512a2.02 2.02 0 0 1-.898-.225 1.247 1.247 0 0 1-.55-.586c-.114-.25-.135-.553-.062-.908.063-.306.174-.555.333-.748.161-.193.354-.343.579-.451.224-.11.466-.19.726-.24.26-.05.522-.083.786-.102.332-.025.602-.047.809-.066.209-.018.367-.053.473-.103a.365.365 0 0 0 .198-.27l.001-.025c.061-.305.025-.546-.108-.721-.131-.178-.367-.273-.707-.286-.355-.013-.656.054-.903.2a1.613 1.613 0 0 0-.548.506l-.943-.262a2.37 2.37 0 0 1 .679-.778c.273-.196.568-.334.886-.415a3.34 3.34 0 0 1 .971-.106c.217.008.442.043.675.103.232.059.441.159.628.3a1.2 1.2 0 0 1 .412.596c.085.251.087.575.006.97l-.734 3.597-1.036-.038.155-.74-.043-.002a2.016 2.016 0 0 1-.985.699 2.223 2.223 0 0 1-.8.101Zm.394-.838c.296.011.559-.037.791-.145a1.59 1.59 0 0 0 .574-.433 1.37 1.37 0 0 0 .288-.597l.144-.698a.654.654 0 0 1-.242.094 3.864 3.864 0 0 1-.379.067 9.16 9.16 0 0 1-.414.045 9.734 9.734 0 0 0-.332.034 2.98 2.98 0 0 0-.59.11 1.204 1.204 0 0 0-.461.25.774.774 0 0 0-.244.445c-.052.26.003.462.166.603.165.139.398.214.699.225Zm6.266-6.313-1.477 7.223-1.061-.04 1.477-7.222 1.061.04Z" />
        <rect width="228" height="174" x="59.984" y="87.15" fill="#F1F7FF" rx="12"
            transform="rotate(2.13 59.984 87.15)" />
        <path fill="#1D2739"
            d="m76.727 120.796.374-10.073 1.245.046-.175 4.729 4.582-4.565 1.567.058-4.756 4.72 4.738 5.366-1.609-.06-4.538-5.1-.183 4.925-1.245-.046Zm11.118.623c-.741-.027-1.383-.215-1.926-.562a3.43 3.43 0 0 1-1.236-1.426c-.286-.603-.414-1.299-.385-2.087.03-.826.209-1.534.534-2.124a3.327 3.327 0 0 1 1.319-1.352c.558-.311 1.203-.453 1.935-.425.76.028 1.4.227 1.918.596.523.37.906.884 1.147 1.542.247.658.335 1.434.264 2.328l-1.26-.046.017-.448c.021-.929-.142-1.628-.489-2.099-.346-.475-.879-.726-1.597-.753-.77-.028-1.364.197-1.783.677-.42.479-.647 1.18-.681 2.104-.033.891.142 1.588.525 2.093.382.504.945.77 1.686.798.5.019.937-.08 1.314-.294.377-.215.678-.533.904-.954l1.18.457a3.387 3.387 0 0 1-1.386 1.503 3.688 3.688 0 0 1-2 .472Zm-2.656-3.741.038-1 5.582.207-.037 1.001-5.583-.208Zm8.304 7.103 1.61-3.918-.023 1.176-3-8.238 1.308.049 2.346 6.623-.448-.017 2.67-6.436 1.266.047-4.519 10.759-1.21-.045Zm8.072-3.062-2.027-7.647 1.238.053 1.48 5.589 1.906-5.463 1.098.04 1.487 5.59 1.899-5.464 1.231.046-2.59 7.469-1.035-.038-1.612-5.811-2.039 5.675-1.036-.039Zm12.091.66c-.751-.028-1.393-.222-1.926-.583a3.382 3.382 0 0 1-1.199-1.459c-.272-.613-.393-1.309-.364-2.087.029-.793.205-1.483.525-2.068a3.335 3.335 0 0 1 1.318-1.345c.558-.316 1.206-.46 1.943-.432.755.028 1.399.222 1.932.583.533.356.933.84 1.2 1.452.272.608.393 1.302.364 2.08-.029.789-.202 1.478-.518 2.069a3.375 3.375 0 0 1-1.312 1.359c-.558.315-1.212.459-1.963.431Zm.044-1.182c.783.029 1.376-.21 1.778-.719.402-.508.618-1.177.649-2.007.032-.853-.137-1.539-.505-2.057-.368-.523-.939-.798-1.713-.827-.527-.02-.966.083-1.315.308a2.144 2.144 0 0 0-.799.958c-.183.414-.285.895-.306 1.446-.031.848.139 1.537.512 2.064.372.528.939.806 1.699.834Zm5.008 1.16.281-7.555 1.113.041-.068 1.826-.173-.244c.097-.23.219-.441.366-.631a2.14 2.14 0 0 1 .501-.465c.202-.151.428-.264.678-.339.25-.075.504-.114.761-.119.257-.009.497.016.719.076l-.044 1.168a2.352 2.352 0 0 0-.858-.088 1.747 1.747 0 0 0-.88.311 1.86 1.86 0 0 0-.59.608 2.73 2.73 0 0 0-.303.795 4.893 4.893 0 0 0-.109.871l-.141 3.791-1.253-.046Zm7.901.504c-.704-.026-1.301-.224-1.792-.592a3.483 3.483 0 0 1-1.115-1.478c-.248-.611-.358-1.295-.33-2.05.028-.756.189-1.429.481-2.021.298-.591.705-1.05 1.221-1.376.517-.331 1.125-.484 1.825-.458.713.027 1.306.221 1.778.585.472.363.821.85 1.046 1.46.229.611.33 1.297.301 2.057-.027.751-.179 1.425-.453 2.022-.27.592-.653 1.056-1.152 1.393-.498.331-1.101.484-1.81.458Zm.196-1.135c.509.019.931-.087 1.266-.317.336-.235.588-.564.758-.987.175-.428.273-.917.293-1.468.021-.559-.04-1.054-.183-1.484-.138-.435-.363-.777-.676-1.027-.313-.255-.717-.391-1.211-.409-.513-.02-.942.091-1.287.33-.34.239-.6.571-.779.994-.175.423-.272.9-.292 1.432a4.11 4.11 0 0 0 .191 1.464c.147.435.379.785.696 1.049.322.264.73.405 1.224.423Zm2.176 1.013.207-5.561-.14-.005.168-4.512 1.252.046-.374 10.073-1.113-.041Zm5.779.418c-.9-.034-1.632-.257-2.196-.67-.559-.418-.89-.984-.994-1.697l1.28-.156c.088.414.311.75.67 1.006.36.251.813.387 1.358.408.518.019.928-.073 1.229-.277.302-.204.46-.49.474-.858.008-.214-.035-.389-.128-.523-.093-.139-.291-.272-.595-.4a14.3 14.3 0 0 0-1.362-.471c-.66-.202-1.178-.406-1.553-.612-.376-.205-.64-.437-.794-.695-.154-.257-.224-.566-.211-.925.017-.443.152-.826.407-1.148a2.326 2.326 0 0 1 1.043-.738c.445-.166.957-.238 1.535-.217.574.022 1.084.132 1.529.331.446.198.8.471 1.063.817.267.341.418.734.453 1.179l-1.282.184a1.37 1.37 0 0 0-.552-.98c-.317-.246-.735-.385-1.252-.418-.489-.037-.891.034-1.206.214-.31.18-.471.433-.483.76a.698.698 0 0 0 .15.475c.112.134.319.266.623.394.308.128.755.278 1.342.449.661.193 1.179.397 1.553.611.38.211.647.454.8.731.153.271.223.603.208.995-.027.727-.317 1.291-.868 1.691-.552.395-1.299.575-2.241.54Z" />
        <rect width="113" height="27" x="75.672" y="136.266" fill="#fff" rx="13.5"
            transform="rotate(2.13 75.672 136.266)" />
        <rect width="113" height="27" x="75.672" y="136.266" stroke="#E3E3E3" rx="13.5"
            transform="rotate(2.13 75.672 136.266)" />
        <path fill="#101928"
            d="m91.706 155.375.378-10.174 1.232.045-.187 5.048.119.004 4.758-4.877 1.61.06-4.443 4.431 4.065 5.743-1.49-.055-3.362-4.861-1.325 1.383-.123 3.299-1.232-.046Zm11.601.591c-.735-.027-1.364-.213-1.885-.558a3.263 3.263 0 0 1-1.176-1.417c-.263-.6-.38-1.291-.35-2.072.028-.782.196-1.466.503-2.051.311-.589.729-1.041 1.255-1.356.529-.319 1.138-.466 1.827-.44.397.015.787.096 1.17.243.383.146.727.375 1.034.685.307.306.546.707.717 1.201.17.493.243 1.096.216 1.809l-.018.496-5.883-.218.038-1.014 4.69.175a2.504 2.504 0 0 0-.216-1.163 1.953 1.953 0 0 0-.695-.827c-.304-.207-.668-.318-1.092-.334-.467-.017-.876.084-1.225.303a2.286 2.286 0 0 0-.814.865 2.647 2.647 0 0 0-.317 1.173l-.025.675c-.021.576.06 1.069.244 1.477.187.405.456.718.805.94.351.219.762.337 1.236.355a2.57 2.57 0 0 0 .839-.098c.256-.081.477-.205.666-.374.189-.172.338-.388.447-.65l1.121.36c-.133.38-.346.711-.639.992a2.938 2.938 0 0 1-1.068.636c-.42.144-.888.206-1.405.187Zm5.366 2.906a2.6 2.6 0 0 1-.53-.07 1.385 1.385 0 0 1-.32-.101l.337-1.022c.282.083.533.119.752.107a.902.902 0 0 0 .592-.271c.179-.166.346-.44.503-.822l.241-.588-2.537-7.776 1.272.047 1.881 6.16.079.003 2.333-6.003 1.272.047-3.565 8.624a3.3 3.3 0 0 1-.578.958 2.033 2.033 0 0 1-.772.554 2.32 2.32 0 0 1-.96.153Zm8.867-2.536-2.041-7.718 1.232.046 1.432 5.904.08.003 1.847-5.782 1.252.047 1.393 5.882.079.003 1.866-5.761 1.232.046-2.609 7.544-1.152-.042-1.452-5.925-.119-.004-1.887 5.8-1.153-.043Zm12.473.623c-.689-.026-1.287-.212-1.795-.559a3.352 3.352 0 0 1-1.161-1.421c-.266-.601-.385-1.295-.355-2.083.029-.795.199-1.484.509-2.066a3.343 3.343 0 0 1 1.264-1.336c.532-.308 1.143-.45 1.832-.424.688.025 1.285.212 1.79.559a3.3 3.3 0 0 1 1.161 1.426c.269.604.389 1.303.359 2.098-.029.788-.2 1.472-.514 2.05a3.302 3.302 0 0 1-1.263 1.332c-.529.308-1.138.45-1.827.424Zm.039-1.053c.524.019.959-.099 1.307-.355.348-.255.611-.599.79-1.03.178-.431.277-.902.296-1.412a4.095 4.095 0 0 0-.191-1.435 2.402 2.402 0 0 0-.71-1.096c-.328-.284-.753-.436-1.277-.455-.523-.02-.959.1-1.306.359a2.398 2.398 0 0 0-.79 1.041 4.083 4.083 0 0 0-.297 1.416c-.019.51.045.987.191 1.43.146.444.383.806.711 1.086.327.281.753.431 1.276.451Zm5.215 1.089.283-7.631 1.133.042-.043 1.153.08.003c.153-.373.416-.67.789-.891a2.22 2.22 0 0 1 1.245-.307c.087.003.194.009.323.017.129.008.227.017.293.026l-.045 1.192a3.581 3.581 0 0 0-.271-.055 2.749 2.749 0 0 0-.441-.051 2.071 2.071 0 0 0-1.002.197 1.76 1.76 0 0 0-.71.61 1.72 1.72 0 0 0-.282.91l-.18 4.829-1.172-.044Zm7.848.451c-.635-.023-1.191-.205-1.666-.544-.475-.343-.839-.814-1.092-1.414-.252-.603-.364-1.309-.334-2.117.03-.801.193-1.492.49-2.071.297-.579.697-1.021 1.199-1.324.502-.303 1.074-.442 1.717-.418.497.018.886.116 1.168.292.285.173.5.367.645.581.148.211.263.385.344.52l.099.004.14-3.756 1.172.044-.378 10.174-1.133-.042.044-1.172-.139-.005a7.734 7.734 0 0 1-.388.513c-.166.202-.4.381-.701.536-.301.151-.696.218-1.187.199Zm.199-1.047c.47.018.872-.09 1.206-.323.333-.237.593-.57.778-1.001.185-.434.289-.94.31-1.516.021-.57-.043-1.071-.193-1.505-.149-.436-.382-.78-.698-1.031-.315-.253-.711-.389-1.188-.407-.497-.018-.916.094-1.257.336-.337.24-.596.574-.778 1.001a4.101 4.101 0 0 0-.298 1.442 4.22 4.22 0 0 0 .194 1.49c.152.447.388.807.706 1.081.322.27.727.415 1.218.433Z" />
        <path fill="#667185"
            d="M164.358 159.746a6.667 6.667 0 1 1 .497-13.325 6.667 6.667 0 0 1-.497 13.325Zm.05-1.333a5.332 5.332 0 0 0 5.527-5.131 5.332 5.332 0 1 0-10.659-.397 5.333 5.333 0 0 0 5.132 5.528Zm-.345-8.685 1.333.049-.05 1.333-1.332-.05.049-1.332Zm-.099 2.665 1.333.049-.149 3.997-1.332-.049.148-3.997Z" />
        <rect width="113" height="27" x="74.184" y="176.239" fill="#fff" rx="13.5"
            transform="rotate(2.13 74.184 176.239)" />
        <rect width="113" height="27" x="74.184" y="176.239" stroke="#E3E3E3" rx="13.5"
            transform="rotate(2.13 74.184 176.239)" />
        <path fill="#101928"
            d="m90.218 195.348.378-10.175 1.232.046-.188 5.048.12.004 4.758-4.878 1.61.06-4.444 4.432 4.065 5.743-1.49-.055-3.362-4.862-1.325 1.384-.122 3.299-1.232-.046Zm11.601.591c-.736-.028-1.364-.214-1.885-.558a3.273 3.273 0 0 1-1.176-1.417c-.263-.6-.38-1.291-.351-2.073.029-.781.197-1.465.504-2.05a3.379 3.379 0 0 1 1.254-1.357c.53-.318 1.139-.465 1.828-.439a3.6 3.6 0 0 1 1.17.242c.382.147.727.376 1.034.685.307.307.546.707.717 1.201.17.494.242 1.097.216 1.809l-.019.497-5.882-.219.038-1.013 4.69.174a2.5 2.5 0 0 0-.216-1.162 1.947 1.947 0 0 0-.695-.827c-.304-.207-.668-.318-1.092-.334-.467-.017-.876.083-1.226.303a2.29 2.29 0 0 0-.813.865 2.632 2.632 0 0 0-.317 1.172l-.025.676c-.022.576.06 1.068.243 1.477.188.405.456.718.806.94.35.219.762.337 1.236.354.308.012.588-.021.839-.098.255-.08.477-.204.666-.373.189-.172.338-.389.447-.65l1.121.36a2.52 2.52 0 0 1-.639.991c-.292.278-.648.49-1.069.637a3.862 3.862 0 0 1-1.404.187Zm5.365 2.906a2.599 2.599 0 0 1-.529-.07 1.42 1.42 0 0 1-.32-.101l.336-1.023c.283.084.533.12.753.108a.905.905 0 0 0 .592-.272c.178-.165.346-.439.503-.822l.241-.588-2.537-7.775 1.272.047 1.88 6.159.08.003 2.332-6.003 1.272.048-3.564 8.623c-.16.389-.353.709-.578.959a2.02 2.02 0 0 1-.772.553 2.306 2.306 0 0 1-.961.154Zm8.868-2.536-2.041-7.718 1.232.046 1.432 5.904.079.003 1.847-5.782 1.252.046 1.393 5.883.08.003 1.866-5.761 1.232.045-2.609 7.545-1.153-.043-1.451-5.924-.119-.005-1.887 5.801-1.153-.043Zm12.473.623c-.689-.026-1.287-.212-1.795-.56a3.331 3.331 0 0 1-1.161-1.421c-.266-.6-.385-1.294-.356-2.083.03-.795.2-1.483.51-2.065.314-.582.735-1.028 1.264-1.336.532-.309 1.142-.45 1.831-.425.689.026 1.286.212 1.79.559.508.348.895.823 1.161 1.427.27.603.39 1.303.36 2.098-.029.788-.201 1.471-.514 2.05a3.293 3.293 0 0 1-1.263 1.331c-.529.309-1.138.45-1.827.425Zm.039-1.053c.523.019.959-.099 1.307-.355a2.37 2.37 0 0 0 .789-1.03c.179-.431.278-.902.297-1.412a4.095 4.095 0 0 0-.191-1.435 2.413 2.413 0 0 0-.71-1.096c-.328-.284-.754-.436-1.277-.455-.523-.02-.959.1-1.307.359a2.409 2.409 0 0 0-.79 1.04 4.116 4.116 0 0 0-.296 1.417c-.019.51.044.987.19 1.43.147.443.383.805.711 1.086.328.281.754.431 1.277.451Zm5.214 1.089.284-7.631 1.133.042-.043 1.153.08.003c.153-.373.416-.67.789-.891a2.22 2.22 0 0 1 1.245-.307 9.252 9.252 0 0 1 .615.042l-.044 1.193a3.118 3.118 0 0 0-.271-.055 2.665 2.665 0 0 0-.441-.051 2.077 2.077 0 0 0-1.003.196 1.711 1.711 0 0 0-.992 1.52l-.179 4.83-1.173-.044Zm7.849.451c-.636-.024-1.191-.205-1.666-.545-.475-.342-.839-.813-1.092-1.413-.253-.603-.364-1.309-.334-2.117.03-.802.193-1.492.49-2.071.297-.58.696-1.021 1.198-1.324.503-.303 1.075-.443 1.717-.419.497.019.887.116 1.169.293.285.173.5.366.645.581.148.211.262.384.344.52l.099.004.14-3.756 1.172.043-.378 10.175-1.133-.042.044-1.172-.14-.006c-.091.136-.22.307-.387.513a2.17 2.17 0 0 1-.701.536c-.301.152-.697.218-1.187.2Zm.198-1.047c.471.017.873-.091 1.206-.324.334-.236.594-.57.779-1 .185-.435.289-.94.31-1.516.021-.57-.043-1.072-.193-1.505-.149-.437-.382-.78-.698-1.031-.315-.254-.712-.39-1.189-.407-.496-.019-.915.093-1.256.336-.337.24-.597.573-.778 1.001a4.079 4.079 0 0 0-.298 1.442 4.19 4.19 0 0 0 .194 1.489c.152.447.387.807.706 1.081.321.271.727.415 1.217.434Z" />
        <path fill="#667185"
            d="M162.87 199.718a6.666 6.666 0 1 1 6.909-6.414 6.666 6.666 0 0 1-6.909 6.414Zm.049-1.332a5.333 5.333 0 1 0 .397-10.659 5.333 5.333 0 0 0-.397 10.659Zm-.344-8.686 1.333.05-.05 1.332-1.332-.049.049-1.333Zm-.099 2.665 1.332.05-.148 3.997-1.333-.049.149-3.998Z" />
        <rect width="113" height="27" x="72.7" y="216.212" fill="#fff" rx="13.5"
            transform="rotate(2.13 72.7 216.212)" />
        <rect width="113" height="27" x="72.7" y="216.212" stroke="#E3E3E3" rx="13.5"
            transform="rotate(2.13 72.7 216.212)" />
        <path fill="#101928"
            d="m88.733 235.321.379-10.175 1.232.046-.188 5.047.12.005 4.758-4.878 1.61.06-4.444 4.432 4.065 5.743-1.49-.056-3.362-4.861-1.325 1.384-.123 3.298-1.232-.045Zm11.601.59c-.735-.027-1.363-.213-1.885-.557a3.273 3.273 0 0 1-1.176-1.417c-.263-.6-.38-1.291-.35-2.073.029-.782.197-1.465.504-2.051.31-.589.728-1.041 1.254-1.356.53-.319 1.138-.465 1.827-.44.398.015.788.096 1.17.243a2.92 2.92 0 0 1 1.035.685c.307.307.545.707.716 1.201.171.494.243 1.097.216 1.809l-.018.497-5.882-.219.037-1.014 4.69.175a2.51 2.51 0 0 0-.215-1.162 1.944 1.944 0 0 0-.696-.827c-.304-.207-.668-.319-1.092-.334-.467-.018-.875.083-1.225.302a2.29 2.29 0 0 0-.813.866c-.196.36-.302.751-.317 1.172l-.026.676c-.021.576.06 1.068.244 1.476.187.405.456.719.806.941.35.218.762.336 1.235.354.308.011.588-.021.84-.098a1.79 1.79 0 0 0 .665-.373c.189-.172.338-.389.447-.65l1.121.36c-.133.379-.346.71-.638.991-.293.278-.649.49-1.069.637a3.89 3.89 0 0 1-1.405.186Zm5.366 2.906a2.544 2.544 0 0 1-.53-.069 1.412 1.412 0 0 1-.319-.102l.336-1.022c.282.083.533.119.752.108a.906.906 0 0 0 .592-.272c.179-.166.347-.44.504-.822l.24-.588-2.536-7.776 1.272.047 1.88 6.16.079.003 2.333-6.003 1.272.047-3.564 8.624a3.329 3.329 0 0 1-.578.959 2.038 2.038 0 0 1-.772.553 2.325 2.325 0 0 1-.961.153Zm8.868-2.536-2.042-7.717 1.232.046 1.433 5.904.079.002 1.847-5.781 1.252.046 1.393 5.883.08.003 1.866-5.762 1.232.046-2.609 7.545-1.153-.043-1.451-5.925-.119-.004-1.888 5.8-1.152-.043Zm12.473.623c-.689-.025-1.288-.212-1.796-.559a3.352 3.352 0 0 1-1.161-1.421c-.266-.6-.384-1.295-.355-2.083.03-.795.199-1.483.51-2.066a3.334 3.334 0 0 1 1.263-1.336c.532-.308 1.143-.45 1.832-.424.689.026 1.286.212 1.79.559.508.347.895.823 1.161 1.426.269.604.389 1.303.36 2.098-.03.789-.201 1.472-.514 2.051a3.302 3.302 0 0 1-1.264 1.331c-.529.309-1.138.45-1.826.424Zm.039-1.053c.523.02.959-.098 1.306-.354.348-.256.611-.599.79-1.031.178-.431.277-.901.296-1.411a4.092 4.092 0 0 0-.19-1.435 2.401 2.401 0 0 0-.711-1.096c-.327-.284-.753-.436-1.276-.456-.524-.019-.959.101-1.307.36a2.403 2.403 0 0 0-.79 1.04 4.088 4.088 0 0 0-.297 1.417c-.018.51.045.986.191 1.43.146.443.383.805.711 1.086.328.281.753.431 1.277.45Zm5.214 1.09.284-7.631 1.133.042-.043 1.152.079.003c.153-.372.416-.669.79-.891a2.229 2.229 0 0 1 1.245-.307c.086.003.193.009.323.017.129.008.226.017.292.026l-.044 1.192a3.86 3.86 0 0 0-.272-.054 2.637 2.637 0 0 0-.441-.052 2.083 2.083 0 0 0-1.002.197 1.715 1.715 0 0 0-.992 1.52l-.179 4.829-1.173-.043Zm7.849.451c-.636-.024-1.192-.205-1.666-.545-.475-.343-.839-.814-1.092-1.414-.253-.603-.364-1.308-.334-2.116.029-.802.193-1.492.49-2.072.296-.579.696-1.02 1.198-1.323.502-.303 1.075-.443 1.717-.419.497.018.886.116 1.168.292.286.173.501.367.645.581.148.212.263.385.344.521l.1.003.139-3.756 1.173.044-.379 10.175-1.132-.042.043-1.173-.139-.005c-.091.136-.22.307-.387.513a2.19 2.19 0 0 1-.702.536c-.301.151-.696.218-1.186.2Zm.198-1.048c.47.018.872-.09 1.206-.323.334-.236.593-.57.778-1.001.186-.434.289-.939.311-1.516.021-.569-.044-1.071-.193-1.504-.15-.437-.382-.781-.698-1.031-.316-.254-.712-.39-1.189-.408-.497-.018-.916.094-1.256.337-.338.239-.597.573-.779 1.001a4.095 4.095 0 0 0-.297 1.441 4.22 4.22 0 0 0 .193 1.49c.153.447.388.807.706 1.081.322.271.728.415 1.218.433Z" />
        <path fill="#667185"
            d="M161.385 239.691a6.666 6.666 0 1 1 .496-13.324 6.666 6.666 0 0 1-.496 13.324Zm.05-1.332a5.335 5.335 0 1 0 .394-10.662 5.335 5.335 0 0 0-.394 10.662Zm-.344-8.686 1.332.05-.049 1.332-1.333-.049.05-1.333Zm-.099 2.665 1.332.05-.149 3.997-1.332-.05.149-3.997Z" />
        <rect width="32" height="32" x="233.774" y="217.198" stroke="#5E7DD1" rx="16"
            transform="rotate(2.13 233.774 217.198)" />
        <path fill="#5E7DD1"
            d="M248.74 230.037a.75.75 0 0 1 .402-1.445l5.45 1.512c.4.111.633.525.523.924l-1.513 5.451a.75.75 0 0 1-1.446-.402l1.029-3.706-8.434 4.77a.75.75 0 1 1-.739-1.306l8.435-4.769-3.707-1.029Z" />
    </g>
    <defs>
        <clipPath id="b">
            <path fill="#fff" d="m56.162 55.494 13.99.52-.52 13.99-13.99-.52z" />
        </clipPath>
        <filter id="a" width="343.352" height="334.693" x="0" y="0" color-interpolation-filters="sRGB"
            filterUnits="userSpaceOnUse">
            <feFlood flood-opacity="0" result="BackgroundImageFix" />
            <feColorMatrix in="SourceAlpha" result="hardAlpha" values="0 0 0 0 0 0 0 0 0 0 0 0 0 0 0 0 0 0 127 0" />
            <feMorphology in="SourceAlpha" radius="2" result="effect1_dropShadow_7188_46199" />
            <feOffset dy="4" />
            <feGaussianBlur stdDeviation="3" />
            <feColorMatrix values="0 0 0 0 0 0 0 0 0 0.501961 0 0 0 0 0.501961 0 0 0 0.04 0" />
            <feBlend in2="BackgroundImageFix" result="effect1_dropShadow_7188_46199" />
            <feColorMatrix in="SourceAlpha" result="hardAlpha" values="0 0 0 0 0 0 0 0 0 0 0 0 0 0 0 0 0 0 127 0" />
            <feMorphology in="SourceAlpha" radius="4" result="effect2_dropShadow_7188_46199" />
            <feOffset dy="16" />
            <feGaussianBlur stdDeviation="12" />
            <feColorMatrix values="0 0 0 0 0 0 0 0 0 0.501961 0 0 0 0 0.501961 0 0 0 0.07 0" />
            <feBlend in2="effect1_dropShadow_7188_46199" result="effect2_dropShadow_7188_46199" />
            <feBlend in="SourceGraphic" in2="effect2_dropShadow_7188_46199" result="shape" />
        </filter>
    </defs>
</svg>