<svg xmlns="http://www.w3.org/2000/svg" width="510" height="935" fill="none" viewBox="0 0 510 935">
    <g clip-path="url(#a)">
        <rect width="510" height="935" fill="url(#b)" rx="20" />
        <path fill="url(#c)" fill-rule="evenodd"
            d="m-215.747-151.482 34.762 7.189c32.658 7.182 102.183 21.561 104.82 84.24 4.744 62.687-57.401 173.675-43.211 229.316 12.085 55.635 99.156 56.929 185.47 57.211 87.071 1.294 173.386 1.576 194.918 50.165 22.288 49.603-19.612 145.495-6.771 202.143 12.085 55.634 81.61 70.012 93.695 125.647 12.841 56.648-29.06 152.539-25.666 216.232 3.987 61.674 52.512 90.135 66.702 145.776 12.085 55.633-11.514 139.453 55.906 153.823 69.525 14.38 228.72-39.68 306.343-31.34 78.218 6.32 72.163 77.05 69.73 110.4l-3.027 35.37-387.345 288.85-15.867-21.28c-15.113-20.27-46.848-62.83-77.828-104.37l-94.451-126.66c-30.98-41.55-62.715-84.1-93.695-125.65-31.736-42.56-62.716-84.1-93.696-125.65a13698154.385 13698154.385 0 0 1-188.146-252.305l-94.451-126.661-93.695-125.647-93.696-125.647a15429486.681 15429486.681 0 0 1-172.278-231.03l-15.868-21.279 387.345-288.843Z"
            clip-rule="evenodd" />
        <g filter="url(#d)">
            <path fill="#FFD2D2" d="M-605.231-259.675 871.377 1216.11l-35.811 34.98L-605.231-259.675Z" />
        </g>
        <g filter="url(#e)">
            <path fill="#FFD2D2" d="m82.746-77 538.362 425.886-32.47 38.103L82.746-77.001Z" />
        </g>
    </g>
    <defs>
        <filter id="d" width="2084.61" height="2118.77" x="-909.23" y="-563.676" color-interpolation-filters="sRGB"
            filterUnits="userSpaceOnUse">
            <feFlood flood-opacity="0" result="BackgroundImageFix" />
            <feBlend in="SourceGraphic" in2="BackgroundImageFix" result="shape" />
            <feGaussianBlur result="effect1_foregroundBlur_7188_46552" stdDeviation="152" />
        </filter>
        <filter id="e" width="1018.36" height="943.988" x="-157.254" y="-317" color-interpolation-filters="sRGB"
            filterUnits="userSpaceOnUse">
            <feFlood flood-opacity="0" result="BackgroundImageFix" />
            <feBlend in="SourceGraphic" in2="BackgroundImageFix" result="shape" />
            <feGaussianBlur result="effect1_foregroundBlur_7188_46552" stdDeviation="120" />
        </filter>
        <radialGradient id="b" cx="0" cy="0" r="1"
            gradientTransform="matrix(240.9967 -581.50172 1040.97237 431.41903 125.502 633.002)"
            gradientUnits="userSpaceOnUse">
            <stop stop-color="#ADE1FF" />
            <stop offset="1" stop-color="#EFD4FF" />
        </radialGradient>
        <linearGradient id="c" x1="-358.278" x2="675.393" y1="-45.196" y2="1340.98" gradientUnits="userSpaceOnUse">
            <stop stop-color="#fff" stop-opacity=".05" />
            <stop offset="1" stop-color="#fff" stop-opacity=".4" />
        </linearGradient>
        <clipPath id="a">
            <rect width="510" height="935" fill="#fff" rx="20" />
        </clipPath>
    </defs>
</svg>